<?xml version="1.0" encoding="utf-8" standalone="no"?>
<!DOCTYPE svg PUBLIC "-//W3C//DTD SVG 1.1//EN"
  "http://www.w3.org/Graphics/SVG/1.1/DTD/svg11.dtd">
<svg xmlns:xlink="http://www.w3.org/1999/xlink" width="460.8pt" height="345.6pt" viewBox="0 0 460.8 345.6" xmlns="http://www.w3.org/2000/svg" version="1.1">
 <metadata>
  <rdf:RDF xmlns:dc="http://purl.org/dc/elements/1.1/" xmlns:cc="http://creativecommons.org/ns#" xmlns:rdf="http://www.w3.org/1999/02/22-rdf-syntax-ns#">
   <cc:Work>
    <dc:type rdf:resource="http://purl.org/dc/dcmitype/StillImage"/>
    <dc:date>2023-10-30T15:11:03.600463</dc:date>
    <dc:format>image/svg+xml</dc:format>
    <dc:creator>
     <cc:Agent>
      <dc:title>Matplotlib v3.7.0, https://matplotlib.org/</dc:title>
     </cc:Agent>
    </dc:creator>
   </cc:Work>
  </rdf:RDF>
 </metadata>
 <defs>
  <style type="text/css">*{stroke-linejoin: round; stroke-linecap: butt}</style>
 </defs>
 <g id="figure_1">
  <g id="patch_1">
   <path d="M 0 345.6 
L 460.8 345.6 
L 460.8 0 
L 0 0 
z
" style="fill: #ffffff"/>
  </g>
  <g id="axes_1">
   <g id="patch_2">
    <path d="M 57.6 307.584 
L 414.72 307.584 
L 414.72 41.472 
L 57.6 41.472 
z
" style="fill: #ffffff"/>
   </g>
   <g id="matplotlib.axis_1">
    <g id="xtick_1">
     <g id="line2d_1">
      <defs>
       <path id="m213bfc0082" d="M 0 0 
L 0 3.5 
" style="stroke: #000000; stroke-width: 0.8"/>
      </defs>
      <g>
       <use xlink:href="#m213bfc0082" x="85.432518" y="307.584" style="stroke: #000000; stroke-width: 0.8"/>
      </g>
     </g>
     <g id="text_1">
      <!-- 1.5 -->
      <g transform="translate(77.480956 322.182437) scale(0.1 -0.1)">
       <defs>
        <path id="DejaVuSans-31" d="M 794 531 
L 1825 531 
L 1825 4091 
L 703 3866 
L 703 4441 
L 1819 4666 
L 2450 4666 
L 2450 531 
L 3481 531 
L 3481 0 
L 794 0 
L 794 531 
z
" transform="scale(0.015625)"/>
        <path id="DejaVuSans-2e" d="M 684 794 
L 1344 794 
L 1344 0 
L 684 0 
L 684 794 
z
" transform="scale(0.015625)"/>
        <path id="DejaVuSans-35" d="M 691 4666 
L 3169 4666 
L 3169 4134 
L 1269 4134 
L 1269 2991 
Q 1406 3038 1543 3061 
Q 1681 3084 1819 3084 
Q 2600 3084 3056 2656 
Q 3513 2228 3513 1497 
Q 3513 744 3044 326 
Q 2575 -91 1722 -91 
Q 1428 -91 1123 -41 
Q 819 9 494 109 
L 494 744 
Q 775 591 1075 516 
Q 1375 441 1709 441 
Q 2250 441 2565 725 
Q 2881 1009 2881 1497 
Q 2881 1984 2565 2268 
Q 2250 2553 1709 2553 
Q 1456 2553 1204 2497 
Q 953 2441 691 2322 
L 691 4666 
z
" transform="scale(0.015625)"/>
       </defs>
       <use xlink:href="#DejaVuSans-31"/>
       <use xlink:href="#DejaVuSans-2e" x="63.623047"/>
       <use xlink:href="#DejaVuSans-35" x="95.410156"/>
      </g>
     </g>
    </g>
    <g id="xtick_2">
     <g id="line2d_2">
      <g>
       <use xlink:href="#m213bfc0082" x="146.688093" y="307.584" style="stroke: #000000; stroke-width: 0.8"/>
      </g>
     </g>
     <g id="text_2">
      <!-- 2.0 -->
      <g transform="translate(138.736531 322.182437) scale(0.1 -0.1)">
       <defs>
        <path id="DejaVuSans-32" d="M 1228 531 
L 3431 531 
L 3431 0 
L 469 0 
L 469 531 
Q 828 903 1448 1529 
Q 2069 2156 2228 2338 
Q 2531 2678 2651 2914 
Q 2772 3150 2772 3378 
Q 2772 3750 2511 3984 
Q 2250 4219 1831 4219 
Q 1534 4219 1204 4116 
Q 875 4013 500 3803 
L 500 4441 
Q 881 4594 1212 4672 
Q 1544 4750 1819 4750 
Q 2544 4750 2975 4387 
Q 3406 4025 3406 3419 
Q 3406 3131 3298 2873 
Q 3191 2616 2906 2266 
Q 2828 2175 2409 1742 
Q 1991 1309 1228 531 
z
" transform="scale(0.015625)"/>
        <path id="DejaVuSans-30" d="M 2034 4250 
Q 1547 4250 1301 3770 
Q 1056 3291 1056 2328 
Q 1056 1369 1301 889 
Q 1547 409 2034 409 
Q 2525 409 2770 889 
Q 3016 1369 3016 2328 
Q 3016 3291 2770 3770 
Q 2525 4250 2034 4250 
z
M 2034 4750 
Q 2819 4750 3233 4129 
Q 3647 3509 3647 2328 
Q 3647 1150 3233 529 
Q 2819 -91 2034 -91 
Q 1250 -91 836 529 
Q 422 1150 422 2328 
Q 422 3509 836 4129 
Q 1250 4750 2034 4750 
z
" transform="scale(0.015625)"/>
       </defs>
       <use xlink:href="#DejaVuSans-32"/>
       <use xlink:href="#DejaVuSans-2e" x="63.623047"/>
       <use xlink:href="#DejaVuSans-30" x="95.410156"/>
      </g>
     </g>
    </g>
    <g id="xtick_3">
     <g id="line2d_3">
      <g>
       <use xlink:href="#m213bfc0082" x="207.943668" y="307.584" style="stroke: #000000; stroke-width: 0.8"/>
      </g>
     </g>
     <g id="text_3">
      <!-- 2.5 -->
      <g transform="translate(199.992105 322.182437) scale(0.1 -0.1)">
       <use xlink:href="#DejaVuSans-32"/>
       <use xlink:href="#DejaVuSans-2e" x="63.623047"/>
       <use xlink:href="#DejaVuSans-35" x="95.410156"/>
      </g>
     </g>
    </g>
    <g id="xtick_4">
     <g id="line2d_4">
      <g>
       <use xlink:href="#m213bfc0082" x="269.199242" y="307.584" style="stroke: #000000; stroke-width: 0.8"/>
      </g>
     </g>
     <g id="text_4">
      <!-- 3.0 -->
      <g transform="translate(261.24768 322.182437) scale(0.1 -0.1)">
       <defs>
        <path id="DejaVuSans-33" d="M 2597 2516 
Q 3050 2419 3304 2112 
Q 3559 1806 3559 1356 
Q 3559 666 3084 287 
Q 2609 -91 1734 -91 
Q 1441 -91 1130 -33 
Q 819 25 488 141 
L 488 750 
Q 750 597 1062 519 
Q 1375 441 1716 441 
Q 2309 441 2620 675 
Q 2931 909 2931 1356 
Q 2931 1769 2642 2001 
Q 2353 2234 1838 2234 
L 1294 2234 
L 1294 2753 
L 1863 2753 
Q 2328 2753 2575 2939 
Q 2822 3125 2822 3475 
Q 2822 3834 2567 4026 
Q 2313 4219 1838 4219 
Q 1578 4219 1281 4162 
Q 984 4106 628 3988 
L 628 4550 
Q 988 4650 1302 4700 
Q 1616 4750 1894 4750 
Q 2613 4750 3031 4423 
Q 3450 4097 3450 3541 
Q 3450 3153 3228 2886 
Q 3006 2619 2597 2516 
z
" transform="scale(0.015625)"/>
       </defs>
       <use xlink:href="#DejaVuSans-33"/>
       <use xlink:href="#DejaVuSans-2e" x="63.623047"/>
       <use xlink:href="#DejaVuSans-30" x="95.410156"/>
      </g>
     </g>
    </g>
    <g id="xtick_5">
     <g id="line2d_5">
      <g>
       <use xlink:href="#m213bfc0082" x="330.454817" y="307.584" style="stroke: #000000; stroke-width: 0.8"/>
      </g>
     </g>
     <g id="text_5">
      <!-- 3.5 -->
      <g transform="translate(322.503254 322.182437) scale(0.1 -0.1)">
       <use xlink:href="#DejaVuSans-33"/>
       <use xlink:href="#DejaVuSans-2e" x="63.623047"/>
       <use xlink:href="#DejaVuSans-35" x="95.410156"/>
      </g>
     </g>
    </g>
    <g id="xtick_6">
     <g id="line2d_6">
      <g>
       <use xlink:href="#m213bfc0082" x="391.710392" y="307.584" style="stroke: #000000; stroke-width: 0.8"/>
      </g>
     </g>
     <g id="text_6">
      <!-- 4.0 -->
      <g transform="translate(383.758829 322.182437) scale(0.1 -0.1)">
       <defs>
        <path id="DejaVuSans-34" d="M 2419 4116 
L 825 1625 
L 2419 1625 
L 2419 4116 
z
M 2253 4666 
L 3047 4666 
L 3047 1625 
L 3713 1625 
L 3713 1100 
L 3047 1100 
L 3047 0 
L 2419 0 
L 2419 1100 
L 313 1100 
L 313 1709 
L 2253 4666 
z
" transform="scale(0.015625)"/>
       </defs>
       <use xlink:href="#DejaVuSans-34"/>
       <use xlink:href="#DejaVuSans-2e" x="63.623047"/>
       <use xlink:href="#DejaVuSans-30" x="95.410156"/>
      </g>
     </g>
    </g>
    <g id="text_7">
     <!-- t (s) -->
     <g transform="translate(226.104531 335.860562) scale(0.1 -0.1)">
      <defs>
       <path id="DejaVuSans-74" d="M 1172 4494 
L 1172 3500 
L 2356 3500 
L 2356 3053 
L 1172 3053 
L 1172 1153 
Q 1172 725 1289 603 
Q 1406 481 1766 481 
L 2356 481 
L 2356 0 
L 1766 0 
Q 1100 0 847 248 
Q 594 497 594 1153 
L 594 3053 
L 172 3053 
L 172 3500 
L 594 3500 
L 594 4494 
L 1172 4494 
z
" transform="scale(0.015625)"/>
       <path id="DejaVuSans-20" transform="scale(0.015625)"/>
       <path id="DejaVuSans-28" d="M 1984 4856 
Q 1566 4138 1362 3434 
Q 1159 2731 1159 2009 
Q 1159 1288 1364 580 
Q 1569 -128 1984 -844 
L 1484 -844 
Q 1016 -109 783 600 
Q 550 1309 550 2009 
Q 550 2706 781 3412 
Q 1013 4119 1484 4856 
L 1984 4856 
z
" transform="scale(0.015625)"/>
       <path id="DejaVuSans-73" d="M 2834 3397 
L 2834 2853 
Q 2591 2978 2328 3040 
Q 2066 3103 1784 3103 
Q 1356 3103 1142 2972 
Q 928 2841 928 2578 
Q 928 2378 1081 2264 
Q 1234 2150 1697 2047 
L 1894 2003 
Q 2506 1872 2764 1633 
Q 3022 1394 3022 966 
Q 3022 478 2636 193 
Q 2250 -91 1575 -91 
Q 1294 -91 989 -36 
Q 684 19 347 128 
L 347 722 
Q 666 556 975 473 
Q 1284 391 1588 391 
Q 1994 391 2212 530 
Q 2431 669 2431 922 
Q 2431 1156 2273 1281 
Q 2116 1406 1581 1522 
L 1381 1569 
Q 847 1681 609 1914 
Q 372 2147 372 2553 
Q 372 3047 722 3315 
Q 1072 3584 1716 3584 
Q 2034 3584 2315 3537 
Q 2597 3491 2834 3397 
z
" transform="scale(0.015625)"/>
       <path id="DejaVuSans-29" d="M 513 4856 
L 1013 4856 
Q 1481 4119 1714 3412 
Q 1947 2706 1947 2009 
Q 1947 1309 1714 600 
Q 1481 -109 1013 -844 
L 513 -844 
Q 928 -128 1133 580 
Q 1338 1288 1338 2009 
Q 1338 2731 1133 3434 
Q 928 4138 513 4856 
z
" transform="scale(0.015625)"/>
      </defs>
      <use xlink:href="#DejaVuSans-74"/>
      <use xlink:href="#DejaVuSans-20" x="39.208984"/>
      <use xlink:href="#DejaVuSans-28" x="70.996094"/>
      <use xlink:href="#DejaVuSans-73" x="110.009766"/>
      <use xlink:href="#DejaVuSans-29" x="162.109375"/>
     </g>
    </g>
   </g>
   <g id="matplotlib.axis_2">
    <g id="ytick_1">
     <g id="line2d_7">
      <defs>
       <path id="maeac26c43e" d="M 0 0 
L -3.5 0 
" style="stroke: #000000; stroke-width: 0.8"/>
      </defs>
      <g>
       <use xlink:href="#maeac26c43e" x="57.6" y="285.399935" style="stroke: #000000; stroke-width: 0.8"/>
      </g>
     </g>
     <g id="text_8">
      <!-- 4.25 -->
      <g transform="translate(28.334375 289.199154) scale(0.1 -0.1)">
       <use xlink:href="#DejaVuSans-34"/>
       <use xlink:href="#DejaVuSans-2e" x="63.623047"/>
       <use xlink:href="#DejaVuSans-32" x="95.410156"/>
       <use xlink:href="#DejaVuSans-35" x="159.033203"/>
      </g>
     </g>
    </g>
    <g id="ytick_2">
     <g id="line2d_8">
      <g>
       <use xlink:href="#maeac26c43e" x="57.6" y="250.858888" style="stroke: #000000; stroke-width: 0.8"/>
      </g>
     </g>
     <g id="text_9">
      <!-- 4.50 -->
      <g transform="translate(28.334375 254.658107) scale(0.1 -0.1)">
       <use xlink:href="#DejaVuSans-34"/>
       <use xlink:href="#DejaVuSans-2e" x="63.623047"/>
       <use xlink:href="#DejaVuSans-35" x="95.410156"/>
       <use xlink:href="#DejaVuSans-30" x="159.033203"/>
      </g>
     </g>
    </g>
    <g id="ytick_3">
     <g id="line2d_9">
      <g>
       <use xlink:href="#maeac26c43e" x="57.6" y="216.317841" style="stroke: #000000; stroke-width: 0.8"/>
      </g>
     </g>
     <g id="text_10">
      <!-- 4.75 -->
      <g transform="translate(28.334375 220.11706) scale(0.1 -0.1)">
       <defs>
        <path id="DejaVuSans-37" d="M 525 4666 
L 3525 4666 
L 3525 4397 
L 1831 0 
L 1172 0 
L 2766 4134 
L 525 4134 
L 525 4666 
z
" transform="scale(0.015625)"/>
       </defs>
       <use xlink:href="#DejaVuSans-34"/>
       <use xlink:href="#DejaVuSans-2e" x="63.623047"/>
       <use xlink:href="#DejaVuSans-37" x="95.410156"/>
       <use xlink:href="#DejaVuSans-35" x="159.033203"/>
      </g>
     </g>
    </g>
    <g id="ytick_4">
     <g id="line2d_10">
      <g>
       <use xlink:href="#maeac26c43e" x="57.6" y="181.776794" style="stroke: #000000; stroke-width: 0.8"/>
      </g>
     </g>
     <g id="text_11">
      <!-- 5.00 -->
      <g transform="translate(28.334375 185.576013) scale(0.1 -0.1)">
       <use xlink:href="#DejaVuSans-35"/>
       <use xlink:href="#DejaVuSans-2e" x="63.623047"/>
       <use xlink:href="#DejaVuSans-30" x="95.410156"/>
       <use xlink:href="#DejaVuSans-30" x="159.033203"/>
      </g>
     </g>
    </g>
    <g id="ytick_5">
     <g id="line2d_11">
      <g>
       <use xlink:href="#maeac26c43e" x="57.6" y="147.235747" style="stroke: #000000; stroke-width: 0.8"/>
      </g>
     </g>
     <g id="text_12">
      <!-- 5.25 -->
      <g transform="translate(28.334375 151.034966) scale(0.1 -0.1)">
       <use xlink:href="#DejaVuSans-35"/>
       <use xlink:href="#DejaVuSans-2e" x="63.623047"/>
       <use xlink:href="#DejaVuSans-32" x="95.410156"/>
       <use xlink:href="#DejaVuSans-35" x="159.033203"/>
      </g>
     </g>
    </g>
    <g id="ytick_6">
     <g id="line2d_12">
      <g>
       <use xlink:href="#maeac26c43e" x="57.6" y="112.694701" style="stroke: #000000; stroke-width: 0.8"/>
      </g>
     </g>
     <g id="text_13">
      <!-- 5.50 -->
      <g transform="translate(28.334375 116.493919) scale(0.1 -0.1)">
       <use xlink:href="#DejaVuSans-35"/>
       <use xlink:href="#DejaVuSans-2e" x="63.623047"/>
       <use xlink:href="#DejaVuSans-35" x="95.410156"/>
       <use xlink:href="#DejaVuSans-30" x="159.033203"/>
      </g>
     </g>
    </g>
    <g id="ytick_7">
     <g id="line2d_13">
      <g>
       <use xlink:href="#maeac26c43e" x="57.6" y="78.153654" style="stroke: #000000; stroke-width: 0.8"/>
      </g>
     </g>
     <g id="text_14">
      <!-- 5.75 -->
      <g transform="translate(28.334375 81.952872) scale(0.1 -0.1)">
       <use xlink:href="#DejaVuSans-35"/>
       <use xlink:href="#DejaVuSans-2e" x="63.623047"/>
       <use xlink:href="#DejaVuSans-37" x="95.410156"/>
       <use xlink:href="#DejaVuSans-35" x="159.033203"/>
      </g>
     </g>
    </g>
    <g id="ytick_8">
     <g id="line2d_14">
      <g>
       <use xlink:href="#maeac26c43e" x="57.6" y="43.612607" style="stroke: #000000; stroke-width: 0.8"/>
      </g>
     </g>
     <g id="text_15">
      <!-- 6.00 -->
      <g transform="translate(28.334375 47.411826) scale(0.1 -0.1)">
       <defs>
        <path id="DejaVuSans-36" d="M 2113 2584 
Q 1688 2584 1439 2293 
Q 1191 2003 1191 1497 
Q 1191 994 1439 701 
Q 1688 409 2113 409 
Q 2538 409 2786 701 
Q 3034 994 3034 1497 
Q 3034 2003 2786 2293 
Q 2538 2584 2113 2584 
z
M 3366 4563 
L 3366 3988 
Q 3128 4100 2886 4159 
Q 2644 4219 2406 4219 
Q 1781 4219 1451 3797 
Q 1122 3375 1075 2522 
Q 1259 2794 1537 2939 
Q 1816 3084 2150 3084 
Q 2853 3084 3261 2657 
Q 3669 2231 3669 1497 
Q 3669 778 3244 343 
Q 2819 -91 2113 -91 
Q 1303 -91 875 529 
Q 447 1150 447 2328 
Q 447 3434 972 4092 
Q 1497 4750 2381 4750 
Q 2619 4750 2861 4703 
Q 3103 4656 3366 4563 
z
" transform="scale(0.015625)"/>
       </defs>
       <use xlink:href="#DejaVuSans-36"/>
       <use xlink:href="#DejaVuSans-2e" x="63.623047"/>
       <use xlink:href="#DejaVuSans-30" x="95.410156"/>
       <use xlink:href="#DejaVuSans-30" x="159.033203"/>
      </g>
     </g>
    </g>
    <g id="text_16">
     <!-- p (Pa) -->
     <g transform="translate(22.254687 189.04675) rotate(-90) scale(0.1 -0.1)">
      <defs>
       <path id="DejaVuSans-70" d="M 1159 525 
L 1159 -1331 
L 581 -1331 
L 581 3500 
L 1159 3500 
L 1159 2969 
Q 1341 3281 1617 3432 
Q 1894 3584 2278 3584 
Q 2916 3584 3314 3078 
Q 3713 2572 3713 1747 
Q 3713 922 3314 415 
Q 2916 -91 2278 -91 
Q 1894 -91 1617 61 
Q 1341 213 1159 525 
z
M 3116 1747 
Q 3116 2381 2855 2742 
Q 2594 3103 2138 3103 
Q 1681 3103 1420 2742 
Q 1159 2381 1159 1747 
Q 1159 1113 1420 752 
Q 1681 391 2138 391 
Q 2594 391 2855 752 
Q 3116 1113 3116 1747 
z
" transform="scale(0.015625)"/>
       <path id="DejaVuSans-50" d="M 1259 4147 
L 1259 2394 
L 2053 2394 
Q 2494 2394 2734 2622 
Q 2975 2850 2975 3272 
Q 2975 3691 2734 3919 
Q 2494 4147 2053 4147 
L 1259 4147 
z
M 628 4666 
L 2053 4666 
Q 2838 4666 3239 4311 
Q 3641 3956 3641 3272 
Q 3641 2581 3239 2228 
Q 2838 1875 2053 1875 
L 1259 1875 
L 1259 0 
L 628 0 
L 628 4666 
z
" transform="scale(0.015625)"/>
       <path id="DejaVuSans-61" d="M 2194 1759 
Q 1497 1759 1228 1600 
Q 959 1441 959 1056 
Q 959 750 1161 570 
Q 1363 391 1709 391 
Q 2188 391 2477 730 
Q 2766 1069 2766 1631 
L 2766 1759 
L 2194 1759 
z
M 3341 1997 
L 3341 0 
L 2766 0 
L 2766 531 
Q 2569 213 2275 61 
Q 1981 -91 1556 -91 
Q 1019 -91 701 211 
Q 384 513 384 1019 
Q 384 1609 779 1909 
Q 1175 2209 1959 2209 
L 2766 2209 
L 2766 2266 
Q 2766 2663 2505 2880 
Q 2244 3097 1772 3097 
Q 1472 3097 1187 3025 
Q 903 2953 641 2809 
L 641 3341 
Q 956 3463 1253 3523 
Q 1550 3584 1831 3584 
Q 2591 3584 2966 3190 
Q 3341 2797 3341 1997 
z
" transform="scale(0.015625)"/>
      </defs>
      <use xlink:href="#DejaVuSans-70"/>
      <use xlink:href="#DejaVuSans-20" x="63.476562"/>
      <use xlink:href="#DejaVuSans-28" x="95.263672"/>
      <use xlink:href="#DejaVuSans-50" x="134.277344"/>
      <use xlink:href="#DejaVuSans-61" x="190.080078"/>
      <use xlink:href="#DejaVuSans-29" x="251.359375"/>
     </g>
    </g>
    <g id="text_17">
     <!-- +1.0132e5 -->
     <g transform="translate(57.6 38.472) scale(0.1 -0.1)">
      <defs>
       <path id="DejaVuSans-2b" d="M 2944 4013 
L 2944 2272 
L 4684 2272 
L 4684 1741 
L 2944 1741 
L 2944 0 
L 2419 0 
L 2419 1741 
L 678 1741 
L 678 2272 
L 2419 2272 
L 2419 4013 
L 2944 4013 
z
" transform="scale(0.015625)"/>
       <path id="DejaVuSans-65" d="M 3597 1894 
L 3597 1613 
L 953 1613 
Q 991 1019 1311 708 
Q 1631 397 2203 397 
Q 2534 397 2845 478 
Q 3156 559 3463 722 
L 3463 178 
Q 3153 47 2828 -22 
Q 2503 -91 2169 -91 
Q 1331 -91 842 396 
Q 353 884 353 1716 
Q 353 2575 817 3079 
Q 1281 3584 2069 3584 
Q 2775 3584 3186 3129 
Q 3597 2675 3597 1894 
z
M 3022 2063 
Q 3016 2534 2758 2815 
Q 2500 3097 2075 3097 
Q 1594 3097 1305 2825 
Q 1016 2553 972 2059 
L 3022 2063 
z
" transform="scale(0.015625)"/>
      </defs>
      <use xlink:href="#DejaVuSans-2b"/>
      <use xlink:href="#DejaVuSans-31" x="83.789062"/>
      <use xlink:href="#DejaVuSans-2e" x="147.412109"/>
      <use xlink:href="#DejaVuSans-30" x="179.199219"/>
      <use xlink:href="#DejaVuSans-31" x="242.822266"/>
      <use xlink:href="#DejaVuSans-33" x="306.445312"/>
      <use xlink:href="#DejaVuSans-32" x="370.068359"/>
      <use xlink:href="#DejaVuSans-65" x="433.691406"/>
      <use xlink:href="#DejaVuSans-35" x="495.214844"/>
     </g>
    </g>
   </g>
   <g id="line2d_15">
    <path d="M 73.832727 185.79988 
L 74.567794 178.17699 
L 75.057839 172.115386 
L 75.302861 171.089776 
L 75.547883 172.734557 
L 76.037928 178.534522 
L 76.527973 180.721925 
L 77.018017 185.812546 
L 77.508062 190.793988 
L 77.998106 192.595427 
L 78.243129 192.42293 
L 78.488151 191.180052 
L 78.978196 188.292607 
L 79.223218 188.037262 
L 79.46824 188.352413 
L 79.958285 189.9947 
L 80.448329 190.760231 
L 80.938374 191.971648 
L 81.428419 191.102872 
L 81.673441 189.679977 
L 82.898552 176.105694 
L 83.388597 172.350323 
L 83.633619 171.080698 
L 83.878642 170.870731 
L 84.123664 172.789301 
L 84.858731 181.846283 
L 85.593798 190.365246 
L 86.083842 193.879584 
L 86.328864 194.907243 
L 86.573887 195.189704 
L 86.818909 194.308425 
L 87.308954 190.116879 
L 87.553976 188.866483 
L 87.798998 188.902077 
L 88.534065 193.554379 
L 89.269132 195.289735 
L 89.514154 194.896471 
L 89.759177 193.534928 
L 90.249221 186.751483 
L 90.739266 180.753787 
L 91.719355 171.366594 
L 91.964377 170.429596 
L 92.2094 171.029452 
L 93.189489 184.741117 
L 93.679533 190.814835 
L 94.169578 195.032377 
L 94.4146 196.260581 
L 94.659623 196.887543 
L 94.904645 196.990956 
L 95.149667 196.074933 
L 95.639712 192.684472 
L 95.884734 191.681475 
L 96.129756 192.092884 
L 96.619801 195.826618 
L 96.864823 196.630968 
L 97.109846 196.779855 
L 97.59989 197.959688 
L 97.844913 197.407521 
L 98.089935 194.970257 
L 99.070024 180.173962 
L 99.805091 171.907033 
L 100.050113 170.40396 
L 100.295136 169.613948 
L 100.540158 170.991051 
L 101.765269 189.665327 
L 102.255314 195.339871 
L 102.745358 198.307281 
L 102.990381 199.001131 
L 103.235403 198.947961 
L 104.215492 193.351928 
L 104.460515 194.471837 
L 104.950559 198.664793 
L 105.195581 198.898341 
L 105.440604 198.82773 
L 105.685626 199.391742 
L 105.930648 199.643387 
L 106.175671 198.264605 
L 106.665715 189.865724 
L 107.15576 181.663403 
L 108.135849 169.602656 
L 108.380871 168.091375 
L 108.625894 167.761338 
L 108.870916 170.270011 
L 110.096027 190.622602 
L 110.586072 197.016473 
L 111.076117 199.777295 
L 111.321139 200.889994 
L 111.566161 200.649777 
L 112.056206 196.3353 
L 112.301228 195.138653 
L 112.54625 195.031316 
L 112.791273 196.83486 
L 113.036295 199.544299 
L 113.281317 200.690504 
L 113.771362 200.594814 
L 114.016384 200.997008 
L 114.261407 200.726901 
L 114.506429 198.48244 
L 116.221585 169.056399 
L 116.71163 165.393875 
L 116.956652 165.90559 
L 117.691719 177.235209 
L 118.91683 198.907887 
L 119.651897 203.348273 
L 119.896919 202.644655 
L 120.386964 198.615001 
L 120.631986 197.931903 
L 120.877009 198.209444 
L 121.367053 202.870815 
L 121.612075 203.581318 
L 121.857098 203.328665 
L 122.10212 203.568804 
L 122.347142 203.975566 
L 122.592165 203.036745 
L 122.837187 199.442995 
L 124.062298 174.348096 
L 124.552343 166.25745 
L 125.042388 163.241607 
L 125.28741 164.900164 
L 126.512521 187.688833 
L 127.002566 198.614404 
L 127.492611 203.181868 
L 127.982655 207.079036 
L 128.227678 206.060387 
L 128.4727 203.430222 
L 128.717722 202.494606 
L 128.962744 202.23879 
L 129.207767 203.103075 
L 129.697811 208.076949 
L 129.942834 208.048972 
L 130.187856 207.641165 
L 130.432878 207.974176 
L 130.677901 208.541562 
L 130.922923 206.860172 
L 131.412967 194.930863 
L 132.148034 178.336287 
L 132.883101 164.020158 
L 133.128123 161.995861 
L 133.373146 161.363471 
L 133.618168 163.882614 
L 134.598257 182.023908 
L 135.333324 201.494161 
L 136.068391 210.737415 
L 136.313413 212.489063 
L 136.558436 210.828967 
L 136.803458 207.943611 
L 137.04848 207.576345 
L 137.293503 207.982566 
L 137.538525 209.817067 
L 137.783547 213.222818 
L 138.028569 214.526056 
L 138.518614 213.442443 
L 138.763636 213.571074 
L 139.008659 213.841332 
L 139.253681 211.162087 
L 141.213859 161.359223 
L 141.458882 159.044024 
L 141.703904 158.806473 
L 142.193949 165.443065 
L 142.683993 173.919938 
L 143.174038 189.803613 
L 143.664082 203.895378 
L 144.154127 210.888783 
L 144.399149 215.815856 
L 144.644172 218.048816 
L 145.134216 213.247915 
L 145.379238 213.451376 
L 145.624261 214.594255 
L 145.869283 216.685421 
L 146.114305 219.954184 
L 146.359328 221.102948 
L 146.60435 220.855225 
L 146.849372 220.780005 
L 147.339417 219.815035 
L 147.584439 216.216766 
L 149.544617 157.702305 
L 149.78964 154.941379 
L 150.034662 154.83266 
L 150.524707 160.098441 
L 151.014751 169.211921 
L 151.504796 187.646917 
L 151.99484 204.208029 
L 152.484885 213.756267 
L 152.729907 220.35758 
L 152.97493 223.479887 
L 153.464974 219.726469 
L 153.709997 220.816666 
L 154.690086 228.847185 
L 155.18013 229.759746 
L 155.425153 229.15359 
L 155.670175 228.183588 
L 155.915197 223.682355 
L 157.875376 153.313283 
L 158.120398 149.547652 
L 158.36542 149.065283 
L 158.855465 152.00955 
L 159.100487 155.363823 
L 159.345509 160.803978 
L 159.835554 181.438868 
L 160.325599 200.966078 
L 160.815643 214.73494 
L 161.305688 228.498673 
L 161.55071 228.074749 
L 161.795732 226.769692 
L 162.040755 228.175135 
L 162.530799 235.689839 
L 163.020844 238.520266 
L 163.265866 239.300033 
L 163.510889 240.516172 
L 163.755911 240.177138 
L 164.000933 239.063576 
L 164.245955 234.451366 
L 164.981022 205.628517 
L 166.206134 150.459825 
L 166.451156 144.309167 
L 166.696178 141.998834 
L 167.186223 140.341453 
L 167.431245 141.569746 
L 167.676268 146.587942 
L 168.166312 168.781059 
L 168.656357 191.284644 
L 169.146401 210.702849 
L 169.636446 230.606255 
L 169.881468 233.254812 
L 170.126491 233.131635 
L 170.371513 235.020217 
L 171.10658 249.800979 
L 171.351602 250.406129 
L 172.086669 254.932037 
L 172.331691 253.695754 
L 172.576714 249.565615 
L 173.066758 233.034529 
L 174.046847 181.080811 
L 174.536892 152.291628 
L 175.026937 136.994735 
L 175.762003 123.802881 
L 176.007026 125.587634 
L 176.49707 146.595034 
L 177.967204 222.247122 
L 178.457249 234.797916 
L 178.702271 238.301643 
L 179.68236 262.20791 
L 180.662449 271.637645 
L 181.152494 264.579153 
L 181.397516 259.157549 
L 181.642539 248.556882 
L 183.357695 141.168106 
L 184.337784 103.08321 
L 184.582806 105.974974 
L 185.807918 153.961829 
L 186.542985 203.115105 
L 187.523074 244.218423 
L 188.503163 274.587594 
L 188.993208 283.378633 
L 189.23823 283.959028 
L 189.483252 282.89064 
L 189.728274 284.378072 
L 189.973297 282.788876 
L 190.218319 272.603232 
L 191.198408 207.798826 
L 191.688453 168.79171 
L 192.178497 135.302498 
L 192.668542 97.753057 
L 192.913564 88.274089 
L 193.158587 87.679497 
L 193.403609 90.433034 
L 193.648631 90.63924 
L 193.893654 89.328276 
L 194.138676 93.485517 
L 195.363787 165.524924 
L 196.098854 214.21354 
L 196.588899 235.741176 
L 197.078943 262.076985 
L 197.568988 274.554175 
L 198.059033 283.769895 
L 198.549077 295.488 
L 198.794099 293.430528 
L 199.039122 286.819099 
L 199.774189 253.014594 
L 200.754278 176.639616 
L 201.489345 106.89495 
L 201.979389 92.918183 
L 202.714456 59.960256 
L 202.959479 61.190028 
L 203.449523 78.62102 
L 203.939568 86.839772 
L 205.409702 182.621716 
L 205.899746 219.764383 
L 206.144768 227.87985 
L 206.389791 231.928781 
L 207.124858 273.969576 
L 207.614902 277.171006 
L 207.859925 279.523036 
L 208.104947 284.936145 
L 208.349969 287.863179 
L 208.594991 283.793988 
L 209.575081 238.580093 
L 210.310148 174.241601 
L 210.800192 143.791031 
L 211.290237 101.608197 
L 211.780281 81.760975 
L 212.025304 76.60055 
L 212.76037 53.568 
L 213.005393 57.51405 
L 213.495437 71.222867 
L 213.74046 74.626006 
L 213.985482 81.578551 
L 214.230504 94.003635 
L 214.720549 129.201215 
L 215.210593 147.926881 
L 215.700638 183.039225 
L 216.190683 218.211472 
L 216.435705 221.672816 
L 216.680727 222.971102 
L 216.92575 231.757879 
L 217.415794 257.806483 
L 217.660816 263.531461 
L 217.905839 263.822453 
L 218.150861 263.255826 
L 218.395883 263.769333 
L 218.640906 262.426172 
L 219.13095 250.458536 
L 219.375973 246.353638 
L 219.620995 235.886649 
L 220.601084 164.956941 
L 221.091129 139.091128 
L 221.581173 105.958695 
L 222.071218 91.079164 
L 223.051307 63.042357 
L 223.296329 66.613906 
L 223.541352 71.834076 
L 223.786374 73.345767 
L 224.031396 71.237338 
L 224.276419 71.912577 
L 224.521441 79.484009 
L 224.766463 91.322197 
L 225.256508 127.486034 
L 226.236597 164.445082 
L 226.971664 201.27343 
L 227.461708 207.899537 
L 228.441798 237.811507 
L 228.68682 239.789922 
L 229.421887 236.170994 
L 229.911931 225.860699 
L 230.401976 202.902842 
L 231.137043 168.401589 
L 231.382065 162.275541 
L 231.627087 152.160473 
L 232.362154 112.971267 
L 232.852199 105.976607 
L 233.097221 99.408592 
L 233.587266 82.057746 
L 233.832288 78.384444 
L 234.07731 79.463551 
L 234.812377 89.608953 
L 235.302422 93.682878 
L 235.547444 95.507833 
L 235.792467 101.4502 
L 236.527533 135.150306 
L 236.772556 140.619485 
L 238.24269 191.895717 
L 238.977756 202.084057 
L 239.467801 212.618659 
L 239.712823 215.244655 
L 239.957846 213.8779 
L 240.692913 206.777845 
L 240.937935 206.056914 
L 241.182957 203.242931 
L 241.427979 196.430686 
L 241.918024 173.244932 
L 243.63318 120.875258 
L 243.878202 118.061716 
L 244.123225 118.415115 
L 244.368247 117.591727 
L 245.103314 101.439425 
L 245.348336 102.184283 
L 245.593358 105.06067 
L 245.838381 104.954616 
L 246.328425 101.113568 
L 246.573448 104.467871 
L 247.798559 134.967663 
L 248.288604 150.983637 
L 249.513715 174.426523 
L 249.758738 176.695008 
L 250.248782 188.98254 
L 250.493804 190.163268 
L 250.738827 189.997217 
L 251.473894 201.001467 
L 251.718916 200.3274 
L 252.699005 185.631036 
L 252.944027 182.6763 
L 253.18905 176.926707 
L 253.679094 159.155051 
L 253.924117 155.192969 
L 254.169139 154.737375 
L 254.414161 152.211828 
L 255.149228 134.876303 
L 255.39425 132.90439 
L 255.639273 132.169943 
L 256.129317 128.133638 
L 256.37434 127.475337 
L 256.619362 125.699664 
L 257.354429 114.48105 
L 257.599451 117.511141 
L 257.844473 124.107223 
L 258.089496 126.748674 
L 258.57954 124.936711 
L 258.824563 128.293456 
L 259.55963 150.944138 
L 259.804652 153.030404 
L 260.049674 153.32372 
L 260.294696 156.968475 
L 260.784741 165.964191 
L 261.274786 173.6116 
L 262.254875 183.872499 
L 262.744919 190.28915 
L 263.234964 187.891135 
L 263.725009 189.943267 
L 263.970031 188.785705 
L 264.215053 184.748808 
L 264.705098 173.279633 
L 264.95012 172.101744 
L 265.195142 172.119058 
L 265.440165 169.799605 
L 265.930209 158.234594 
L 266.175232 152.832095 
L 266.420254 150.244282 
L 266.665276 150.376965 
L 266.910298 151.354444 
L 267.155321 149.047018 
L 267.890388 139.463153 
L 268.380432 136.269618 
L 268.870477 134.521762 
L 269.360521 135.774741 
L 269.850566 132.73926 
L 270.095588 133.493174 
L 270.585633 145.776288 
L 270.830655 151.030093 
L 271.075678 151.239464 
L 271.3207 150.502842 
L 271.565722 151.451888 
L 272.300789 169.217706 
L 272.545811 169.571513 
L 272.790834 168.465769 
L 273.035856 168.102153 
L 273.280878 171.216106 
L 274.015945 185.180354 
L 274.260967 185.717685 
L 274.50599 184.049866 
L 274.751012 183.497748 
L 275.486079 188.477322 
L 275.731101 186.14798 
L 276.221146 179.49081 
L 276.466168 179.230712 
L 276.71119 178.210617 
L 277.201235 171.166132 
L 277.69128 162.996121 
L 277.936302 161.318738 
L 278.426346 162.242398 
L 278.671369 160.628106 
L 279.406436 149.453043 
L 279.651458 148.517537 
L 279.89648 149.548774 
L 280.141503 149.976887 
L 280.386525 148.487869 
L 280.876569 143.691335 
L 281.121592 143.047212 
L 281.366614 143.124944 
L 281.611636 143.946236 
L 282.101681 148.501826 
L 282.346703 151.543973 
L 282.591726 152.733325 
L 282.836748 153.322403 
L 283.08177 154.360979 
L 283.326792 157.041761 
L 283.816837 166.669819 
L 284.061859 168.582379 
L 284.551904 167.100946 
L 284.796926 168.290096 
L 285.531993 180.986185 
L 285.777015 181.818997 
L 286.022038 181.273698 
L 286.26706 181.201574 
L 286.512082 182.260851 
L 287.002127 186.54593 
L 287.247149 187.090018 
L 287.492172 185.819156 
L 287.982216 181.266059 
L 288.717283 178.333516 
L 288.962305 175.984525 
L 289.45235 169.197361 
L 289.697372 167.421924 
L 289.942395 166.519511 
L 290.187417 166.367786 
L 290.432439 166.047973 
L 290.677461 164.402422 
L 291.167506 158.493736 
L 291.412528 157.298444 
L 291.657551 157.769682 
L 291.902573 157.904764 
L 292.147595 156.025062 
L 292.63764 151.055436 
L 292.882662 151.049862 
L 293.372707 152.75118 
L 293.617729 152.990574 
L 293.862751 153.500522 
L 294.84284 158.591308 
L 295.087863 160.225773 
L 295.82293 168.097488 
L 296.557997 169.859394 
L 297.048041 175.987927 
L 297.293063 178.949879 
L 297.538086 180.178005 
L 297.783108 180.137858 
L 298.02813 180.262696 
L 298.273153 181.128462 
L 298.763197 185.106931 
L 299.00822 186.108373 
L 299.253242 186.063596 
L 300.233331 180.538074 
L 300.478353 180.276646 
L 300.723376 179.681464 
L 300.968398 177.690235 
L 301.703465 169.902057 
L 301.948487 169.151902 
L 302.193509 169.199676 
L 302.438532 169.118395 
L 302.683554 167.545529 
L 303.173599 163.215676 
L 303.418621 162.655093 
L 303.663643 162.819501 
L 303.908666 162.196661 
L 304.643732 156.991844 
L 304.888755 157.040845 
L 305.378799 157.783538 
L 305.623822 157.830091 
L 306.113866 159.683792 
L 306.603911 161.666938 
L 307.093955 163.768183 
L 308.074045 170.232264 
L 308.319067 170.89966 
L 308.564089 172.007949 
L 309.054134 176.577721 
L 309.299156 179.018968 
L 309.544178 179.926837 
L 309.789201 179.83241 
L 310.034223 180.093205 
L 310.279245 180.802409 
L 311.014312 185.229142 
L 311.259334 185.181845 
L 311.504357 184.095999 
L 311.994401 181.153316 
L 312.239424 180.578193 
L 312.484446 180.620485 
L 312.729468 180.214687 
L 312.974491 178.895438 
L 313.464535 173.478869 
L 313.709557 171.878162 
L 313.95458 171.63252 
L 314.199602 171.940699 
L 314.444624 171.754474 
L 314.689647 170.291062 
L 315.179691 166.489338 
L 315.424714 165.896862 
L 315.914758 165.700742 
L 316.15978 164.773087 
L 316.649825 162.227457 
L 316.894847 161.719343 
L 317.13987 161.593052 
L 317.384892 161.652367 
L 318.364981 164.229478 
L 319.100048 166.65799 
L 319.34507 167.725537 
L 319.835115 171.136102 
L 320.32516 172.549374 
L 320.570182 173.316585 
L 320.815204 174.681568 
L 321.550271 180.086257 
L 321.795293 180.212782 
L 322.040316 180.141477 
L 322.285338 180.644595 
L 323.020405 184.758641 
L 323.265427 184.92319 
L 323.510449 184.198421 
L 324.000494 181.780037 
L 324.245516 181.49349 
L 324.490539 181.746612 
L 324.735561 181.65548 
L 324.980583 180.544463 
L 325.71565 174.29524 
L 325.960672 174.083832 
L 326.205695 174.536079 
L 326.450717 174.740333 
L 326.695739 173.790967 
L 327.185784 170.332917 
L 327.430806 169.282876 
L 327.675828 168.963147 
L 327.920851 169.118411 
L 328.165873 168.826536 
L 329.145962 165.429934 
L 329.390985 165.6478 
L 330.126051 167.259065 
L 330.371074 167.261591 
L 331.106141 169.113875 
L 331.596185 171.510881 
L 332.08623 174.053148 
L 332.331252 174.341583 
L 332.576274 174.81736 
L 332.821297 175.74437 
L 333.556364 180.716637 
L 333.801386 181.090169 
L 334.046408 181.07544 
L 334.291431 181.191174 
L 334.536453 182.115556 
L 335.026497 185.087344 
L 335.27152 185.493588 
L 335.516542 184.978881 
L 336.006587 182.905384 
L 336.251609 182.511197 
L 336.741654 183.07904 
L 336.986676 182.441884 
L 337.966765 175.913824 
L 338.45681 176.468268 
L 338.701832 176.32082 
L 339.681921 171.89137 
L 339.926943 171.747662 
L 340.171966 171.784777 
L 340.416988 171.185483 
L 341.152055 168.330401 
L 341.397077 168.242603 
L 341.887122 169.699713 
L 342.132144 170.014154 
L 342.377166 170.058143 
L 342.622189 169.985935 
L 342.867211 170.310887 
L 343.357256 171.739768 
L 344.337345 175.659646 
L 344.582367 175.981173 
L 344.827389 176.58976 
L 345.317434 179.460739 
L 345.807479 181.674488 
L 346.297523 181.689285 
L 346.542545 182.038832 
L 347.277612 185.567154 
L 347.522635 185.460621 
L 348.257702 182.971231 
L 348.502724 183.071652 
L 348.747746 183.380717 
L 348.992768 183.329371 
L 349.237791 182.249971 
L 349.972858 177.474484 
L 350.21788 177.384334 
L 350.462902 177.603676 
L 350.707925 177.47389 
L 350.952947 176.957141 
L 351.688014 174.075281 
L 351.933036 173.928718 
L 352.178058 173.986511 
L 352.423081 173.925561 
L 352.668103 173.29433 
L 353.40317 170.453042 
L 353.648192 170.876138 
L 354.138237 172.463343 
L 354.383259 172.540493 
L 354.628281 172.440237 
L 354.873304 172.47995 
L 355.118326 172.81898 
L 355.60837 174.292405 
L 356.343437 176.853085 
L 356.833482 177.637177 
L 357.078504 178.497135 
L 357.813571 182.276791 
L 358.058593 182.682411 
L 358.303616 182.536161 
L 358.548638 182.620855 
L 358.79366 183.234683 
L 359.283705 185.622955 
L 359.528727 186.098729 
L 359.77375 185.699191 
L 360.263794 183.890029 
L 360.508816 183.79884 
L 360.998861 184.27324 
L 361.243883 183.857421 
L 362.223973 179.1792 
L 362.714017 179.467158 
L 362.959039 179.253904 
L 363.204062 178.525648 
L 363.694106 176.524753 
L 363.939129 176.161895 
L 364.429173 176.421679 
L 364.674196 176.350075 
L 364.919218 175.690762 
L 365.409262 173.703564 
L 365.654285 173.475096 
L 366.389352 175.331164 
L 366.879396 175.061193 
L 367.124419 175.232478 
L 367.614463 176.326308 
L 368.34953 178.723496 
L 368.594552 179.160705 
L 368.839575 179.370071 
L 369.084597 179.856939 
L 370.064686 183.901028 
L 370.309708 184.086842 
L 370.554731 183.919334 
L 370.799753 184.067928 
L 371.044775 184.784477 
L 371.53482 186.877738 
L 371.779842 187.036467 
L 372.514909 185.191313 
L 372.759931 185.315267 
L 373.004954 185.651549 
L 373.249976 185.65955 
L 373.494998 185.001117 
L 374.230065 181.432683 
L 374.475087 181.181326 
L 374.965132 181.509235 
L 375.210154 181.306416 
L 376.190244 178.481598 
L 376.680288 178.705861 
L 376.92531 178.605349 
L 377.415355 176.971918 
L 377.660377 176.211835 
L 377.9054 176.315071 
L 378.395444 177.623674 
L 378.640467 177.82262 
L 379.130511 177.350405 
L 379.375533 177.524892 
L 379.865578 178.67805 
L 380.600645 180.743313 
L 381.09069 181.13123 
L 381.335712 181.639627 
L 382.315801 185.054067 
L 382.805846 184.948007 
L 383.050868 185.181142 
L 383.785935 187.625348 
L 384.030957 187.489437 
L 384.521002 186.071139 
L 384.766024 185.949507 
L 385.256069 186.463883 
L 385.501091 186.235362 
L 385.746113 185.400154 
L 386.236158 183.016826 
L 386.48118 182.331916 
L 386.726202 182.204246 
L 387.216247 182.405938 
L 387.461269 182.146777 
L 388.441358 179.880325 
L 388.931403 179.901417 
L 389.176425 179.691118 
L 389.911492 177.449201 
L 390.156515 177.720726 
L 390.646559 178.964302 
L 390.891581 178.967233 
L 391.381626 178.444973 
L 391.626648 178.546317 
L 392.116693 179.682574 
L 392.85176 181.320309 
L 393.096782 181.42843 
L 393.341804 181.65884 
L 393.586827 182.150192 
L 394.321894 184.596531 
L 394.566916 185.022914 
L 395.056961 184.911759 
L 395.301983 185.226807 
L 396.03705 187.238246 
L 396.282072 186.907592 
L 396.772117 185.647253 
L 397.017139 185.632016 
L 397.507184 186.108403 
L 397.752206 185.766538 
L 398.24225 183.854138 
L 398.487273 182.76743 
L 398.487273 182.76743 
" clip-path="url(#p0cb12944c4)" style="fill: none; stroke: #1f77b4; stroke-width: 1.5; stroke-linecap: square"/>
   </g>
   <g id="patch_3">
    <path d="M 57.6 307.584 
L 57.6 41.472 
" style="fill: none; stroke: #000000; stroke-width: 0.8; stroke-linejoin: miter; stroke-linecap: square"/>
   </g>
   <g id="patch_4">
    <path d="M 414.72 307.584 
L 414.72 41.472 
" style="fill: none; stroke: #000000; stroke-width: 0.8; stroke-linejoin: miter; stroke-linecap: square"/>
   </g>
   <g id="patch_5">
    <path d="M 57.6 307.584 
L 414.72 307.584 
" style="fill: none; stroke: #000000; stroke-width: 0.8; stroke-linejoin: miter; stroke-linecap: square"/>
   </g>
   <g id="patch_6">
    <path d="M 57.6 41.472 
L 414.72 41.472 
" style="fill: none; stroke: #000000; stroke-width: 0.8; stroke-linejoin: miter; stroke-linecap: square"/>
   </g>
   <g id="text_18">
    <!-- Obs2 p(t) -->
    <g transform="translate(207.934687 35.472) scale(0.12 -0.12)">
     <defs>
      <path id="DejaVuSans-4f" d="M 2522 4238 
Q 1834 4238 1429 3725 
Q 1025 3213 1025 2328 
Q 1025 1447 1429 934 
Q 1834 422 2522 422 
Q 3209 422 3611 934 
Q 4013 1447 4013 2328 
Q 4013 3213 3611 3725 
Q 3209 4238 2522 4238 
z
M 2522 4750 
Q 3503 4750 4090 4092 
Q 4678 3434 4678 2328 
Q 4678 1225 4090 567 
Q 3503 -91 2522 -91 
Q 1538 -91 948 565 
Q 359 1222 359 2328 
Q 359 3434 948 4092 
Q 1538 4750 2522 4750 
z
" transform="scale(0.015625)"/>
      <path id="DejaVuSans-62" d="M 3116 1747 
Q 3116 2381 2855 2742 
Q 2594 3103 2138 3103 
Q 1681 3103 1420 2742 
Q 1159 2381 1159 1747 
Q 1159 1113 1420 752 
Q 1681 391 2138 391 
Q 2594 391 2855 752 
Q 3116 1113 3116 1747 
z
M 1159 2969 
Q 1341 3281 1617 3432 
Q 1894 3584 2278 3584 
Q 2916 3584 3314 3078 
Q 3713 2572 3713 1747 
Q 3713 922 3314 415 
Q 2916 -91 2278 -91 
Q 1894 -91 1617 61 
Q 1341 213 1159 525 
L 1159 0 
L 581 0 
L 581 4863 
L 1159 4863 
L 1159 2969 
z
" transform="scale(0.015625)"/>
     </defs>
     <use xlink:href="#DejaVuSans-4f"/>
     <use xlink:href="#DejaVuSans-62" x="78.710938"/>
     <use xlink:href="#DejaVuSans-73" x="142.1875"/>
     <use xlink:href="#DejaVuSans-32" x="194.287109"/>
     <use xlink:href="#DejaVuSans-20" x="257.910156"/>
     <use xlink:href="#DejaVuSans-70" x="289.697266"/>
     <use xlink:href="#DejaVuSans-28" x="353.173828"/>
     <use xlink:href="#DejaVuSans-74" x="392.1875"/>
     <use xlink:href="#DejaVuSans-29" x="431.396484"/>
    </g>
   </g>
  </g>
 </g>
 <defs>
  <clipPath id="p0cb12944c4">
   <rect x="57.6" y="41.472" width="357.12" height="266.112"/>
  </clipPath>
 </defs>
</svg>
