<?xml version="1.0" encoding="utf-8" standalone="no"?>
<!DOCTYPE svg PUBLIC "-//W3C//DTD SVG 1.1//EN"
  "http://www.w3.org/Graphics/SVG/1.1/DTD/svg11.dtd">
<svg xmlns:xlink="http://www.w3.org/1999/xlink" width="460.8pt" height="345.6pt" viewBox="0 0 460.8 345.6" xmlns="http://www.w3.org/2000/svg" version="1.1">
 <metadata>
  <rdf:RDF xmlns:dc="http://purl.org/dc/elements/1.1/" xmlns:cc="http://creativecommons.org/ns#" xmlns:rdf="http://www.w3.org/1999/02/22-rdf-syntax-ns#">
   <cc:Work>
    <dc:type rdf:resource="http://purl.org/dc/dcmitype/StillImage"/>
    <dc:date>2025-01-10T16:39:48.383232</dc:date>
    <dc:format>image/svg+xml</dc:format>
    <dc:creator>
     <cc:Agent>
      <dc:title>Matplotlib v3.7.0, https://matplotlib.org/</dc:title>
     </cc:Agent>
    </dc:creator>
   </cc:Work>
  </rdf:RDF>
 </metadata>
 <defs>
  <style type="text/css">*{stroke-linejoin: round; stroke-linecap: butt}</style>
 </defs>
 <g id="figure_1">
  <g id="patch_1">
   <path d="M 0 345.6 
L 460.8 345.6 
L 460.8 0 
L 0 0 
z
" style="fill: #ffffff"/>
  </g>
  <g id="axes_1">
   <g id="patch_2">
    <path d="M 57.6 307.584 
L 414.72 307.584 
L 414.72 41.472 
L 57.6 41.472 
z
" style="fill: #ffffff"/>
   </g>
   <g id="matplotlib.axis_1">
    <g id="xtick_1">
     <g id="line2d_1">
      <defs>
       <path id="mff73f8993c" d="M 0 0 
L 0 3.5 
" style="stroke: #000000; stroke-width: 0.8"/>
      </defs>
      <g>
       <use xlink:href="#mff73f8993c" x="75.597447" y="307.584" style="stroke: #000000; stroke-width: 0.8"/>
      </g>
     </g>
     <g id="text_1">
      <!-- 1.0 -->
      <g transform="translate(67.645885 322.182437) scale(0.1 -0.1)">
       <defs>
        <path id="DejaVuSans-31" d="M 794 531 
L 1825 531 
L 1825 4091 
L 703 3866 
L 703 4441 
L 1819 4666 
L 2450 4666 
L 2450 531 
L 3481 531 
L 3481 0 
L 794 0 
L 794 531 
z
" transform="scale(0.015625)"/>
        <path id="DejaVuSans-2e" d="M 684 794 
L 1344 794 
L 1344 0 
L 684 0 
L 684 794 
z
" transform="scale(0.015625)"/>
        <path id="DejaVuSans-30" d="M 2034 4250 
Q 1547 4250 1301 3770 
Q 1056 3291 1056 2328 
Q 1056 1369 1301 889 
Q 1547 409 2034 409 
Q 2525 409 2770 889 
Q 3016 1369 3016 2328 
Q 3016 3291 2770 3770 
Q 2525 4250 2034 4250 
z
M 2034 4750 
Q 2819 4750 3233 4129 
Q 3647 3509 3647 2328 
Q 3647 1150 3233 529 
Q 2819 -91 2034 -91 
Q 1250 -91 836 529 
Q 422 1150 422 2328 
Q 422 3509 836 4129 
Q 1250 4750 2034 4750 
z
" transform="scale(0.015625)"/>
       </defs>
       <use xlink:href="#DejaVuSans-31"/>
       <use xlink:href="#DejaVuSans-2e" x="63.623047"/>
       <use xlink:href="#DejaVuSans-30" x="95.410156"/>
      </g>
     </g>
    </g>
    <g id="xtick_2">
     <g id="line2d_2">
      <g>
       <use xlink:href="#mff73f8993c" x="128.47278" y="307.584" style="stroke: #000000; stroke-width: 0.8"/>
      </g>
     </g>
     <g id="text_2">
      <!-- 1.5 -->
      <g transform="translate(120.521218 322.182437) scale(0.1 -0.1)">
       <defs>
        <path id="DejaVuSans-35" d="M 691 4666 
L 3169 4666 
L 3169 4134 
L 1269 4134 
L 1269 2991 
Q 1406 3038 1543 3061 
Q 1681 3084 1819 3084 
Q 2600 3084 3056 2656 
Q 3513 2228 3513 1497 
Q 3513 744 3044 326 
Q 2575 -91 1722 -91 
Q 1428 -91 1123 -41 
Q 819 9 494 109 
L 494 744 
Q 775 591 1075 516 
Q 1375 441 1709 441 
Q 2250 441 2565 725 
Q 2881 1009 2881 1497 
Q 2881 1984 2565 2268 
Q 2250 2553 1709 2553 
Q 1456 2553 1204 2497 
Q 953 2441 691 2322 
L 691 4666 
z
" transform="scale(0.015625)"/>
       </defs>
       <use xlink:href="#DejaVuSans-31"/>
       <use xlink:href="#DejaVuSans-2e" x="63.623047"/>
       <use xlink:href="#DejaVuSans-35" x="95.410156"/>
      </g>
     </g>
    </g>
    <g id="xtick_3">
     <g id="line2d_3">
      <g>
       <use xlink:href="#mff73f8993c" x="181.348114" y="307.584" style="stroke: #000000; stroke-width: 0.8"/>
      </g>
     </g>
     <g id="text_3">
      <!-- 2.0 -->
      <g transform="translate(173.396551 322.182437) scale(0.1 -0.1)">
       <defs>
        <path id="DejaVuSans-32" d="M 1228 531 
L 3431 531 
L 3431 0 
L 469 0 
L 469 531 
Q 828 903 1448 1529 
Q 2069 2156 2228 2338 
Q 2531 2678 2651 2914 
Q 2772 3150 2772 3378 
Q 2772 3750 2511 3984 
Q 2250 4219 1831 4219 
Q 1534 4219 1204 4116 
Q 875 4013 500 3803 
L 500 4441 
Q 881 4594 1212 4672 
Q 1544 4750 1819 4750 
Q 2544 4750 2975 4387 
Q 3406 4025 3406 3419 
Q 3406 3131 3298 2873 
Q 3191 2616 2906 2266 
Q 2828 2175 2409 1742 
Q 1991 1309 1228 531 
z
" transform="scale(0.015625)"/>
       </defs>
       <use xlink:href="#DejaVuSans-32"/>
       <use xlink:href="#DejaVuSans-2e" x="63.623047"/>
       <use xlink:href="#DejaVuSans-30" x="95.410156"/>
      </g>
     </g>
    </g>
    <g id="xtick_4">
     <g id="line2d_4">
      <g>
       <use xlink:href="#mff73f8993c" x="234.223447" y="307.584" style="stroke: #000000; stroke-width: 0.8"/>
      </g>
     </g>
     <g id="text_4">
      <!-- 2.5 -->
      <g transform="translate(226.271884 322.182437) scale(0.1 -0.1)">
       <use xlink:href="#DejaVuSans-32"/>
       <use xlink:href="#DejaVuSans-2e" x="63.623047"/>
       <use xlink:href="#DejaVuSans-35" x="95.410156"/>
      </g>
     </g>
    </g>
    <g id="xtick_5">
     <g id="line2d_5">
      <g>
       <use xlink:href="#mff73f8993c" x="287.09878" y="307.584" style="stroke: #000000; stroke-width: 0.8"/>
      </g>
     </g>
     <g id="text_5">
      <!-- 3.0 -->
      <g transform="translate(279.147217 322.182437) scale(0.1 -0.1)">
       <defs>
        <path id="DejaVuSans-33" d="M 2597 2516 
Q 3050 2419 3304 2112 
Q 3559 1806 3559 1356 
Q 3559 666 3084 287 
Q 2609 -91 1734 -91 
Q 1441 -91 1130 -33 
Q 819 25 488 141 
L 488 750 
Q 750 597 1062 519 
Q 1375 441 1716 441 
Q 2309 441 2620 675 
Q 2931 909 2931 1356 
Q 2931 1769 2642 2001 
Q 2353 2234 1838 2234 
L 1294 2234 
L 1294 2753 
L 1863 2753 
Q 2328 2753 2575 2939 
Q 2822 3125 2822 3475 
Q 2822 3834 2567 4026 
Q 2313 4219 1838 4219 
Q 1578 4219 1281 4162 
Q 984 4106 628 3988 
L 628 4550 
Q 988 4650 1302 4700 
Q 1616 4750 1894 4750 
Q 2613 4750 3031 4423 
Q 3450 4097 3450 3541 
Q 3450 3153 3228 2886 
Q 3006 2619 2597 2516 
z
" transform="scale(0.015625)"/>
       </defs>
       <use xlink:href="#DejaVuSans-33"/>
       <use xlink:href="#DejaVuSans-2e" x="63.623047"/>
       <use xlink:href="#DejaVuSans-30" x="95.410156"/>
      </g>
     </g>
    </g>
    <g id="xtick_6">
     <g id="line2d_6">
      <g>
       <use xlink:href="#mff73f8993c" x="339.974113" y="307.584" style="stroke: #000000; stroke-width: 0.8"/>
      </g>
     </g>
     <g id="text_6">
      <!-- 3.5 -->
      <g transform="translate(332.022551 322.182437) scale(0.1 -0.1)">
       <use xlink:href="#DejaVuSans-33"/>
       <use xlink:href="#DejaVuSans-2e" x="63.623047"/>
       <use xlink:href="#DejaVuSans-35" x="95.410156"/>
      </g>
     </g>
    </g>
    <g id="xtick_7">
     <g id="line2d_7">
      <g>
       <use xlink:href="#mff73f8993c" x="392.849446" y="307.584" style="stroke: #000000; stroke-width: 0.8"/>
      </g>
     </g>
     <g id="text_7">
      <!-- 4.0 -->
      <g transform="translate(384.897884 322.182437) scale(0.1 -0.1)">
       <defs>
        <path id="DejaVuSans-34" d="M 2419 4116 
L 825 1625 
L 2419 1625 
L 2419 4116 
z
M 2253 4666 
L 3047 4666 
L 3047 1625 
L 3713 1625 
L 3713 1100 
L 3047 1100 
L 3047 0 
L 2419 0 
L 2419 1100 
L 313 1100 
L 313 1709 
L 2253 4666 
z
" transform="scale(0.015625)"/>
       </defs>
       <use xlink:href="#DejaVuSans-34"/>
       <use xlink:href="#DejaVuSans-2e" x="63.623047"/>
       <use xlink:href="#DejaVuSans-30" x="95.410156"/>
      </g>
     </g>
    </g>
    <g id="text_8">
     <!-- t (s) -->
     <g transform="translate(226.104531 335.860562) scale(0.1 -0.1)">
      <defs>
       <path id="DejaVuSans-74" d="M 1172 4494 
L 1172 3500 
L 2356 3500 
L 2356 3053 
L 1172 3053 
L 1172 1153 
Q 1172 725 1289 603 
Q 1406 481 1766 481 
L 2356 481 
L 2356 0 
L 1766 0 
Q 1100 0 847 248 
Q 594 497 594 1153 
L 594 3053 
L 172 3053 
L 172 3500 
L 594 3500 
L 594 4494 
L 1172 4494 
z
" transform="scale(0.015625)"/>
       <path id="DejaVuSans-20" transform="scale(0.015625)"/>
       <path id="DejaVuSans-28" d="M 1984 4856 
Q 1566 4138 1362 3434 
Q 1159 2731 1159 2009 
Q 1159 1288 1364 580 
Q 1569 -128 1984 -844 
L 1484 -844 
Q 1016 -109 783 600 
Q 550 1309 550 2009 
Q 550 2706 781 3412 
Q 1013 4119 1484 4856 
L 1984 4856 
z
" transform="scale(0.015625)"/>
       <path id="DejaVuSans-73" d="M 2834 3397 
L 2834 2853 
Q 2591 2978 2328 3040 
Q 2066 3103 1784 3103 
Q 1356 3103 1142 2972 
Q 928 2841 928 2578 
Q 928 2378 1081 2264 
Q 1234 2150 1697 2047 
L 1894 2003 
Q 2506 1872 2764 1633 
Q 3022 1394 3022 966 
Q 3022 478 2636 193 
Q 2250 -91 1575 -91 
Q 1294 -91 989 -36 
Q 684 19 347 128 
L 347 722 
Q 666 556 975 473 
Q 1284 391 1588 391 
Q 1994 391 2212 530 
Q 2431 669 2431 922 
Q 2431 1156 2273 1281 
Q 2116 1406 1581 1522 
L 1381 1569 
Q 847 1681 609 1914 
Q 372 2147 372 2553 
Q 372 3047 722 3315 
Q 1072 3584 1716 3584 
Q 2034 3584 2315 3537 
Q 2597 3491 2834 3397 
z
" transform="scale(0.015625)"/>
       <path id="DejaVuSans-29" d="M 513 4856 
L 1013 4856 
Q 1481 4119 1714 3412 
Q 1947 2706 1947 2009 
Q 1947 1309 1714 600 
Q 1481 -109 1013 -844 
L 513 -844 
Q 928 -128 1133 580 
Q 1338 1288 1338 2009 
Q 1338 2731 1133 3434 
Q 928 4138 513 4856 
z
" transform="scale(0.015625)"/>
      </defs>
      <use xlink:href="#DejaVuSans-74"/>
      <use xlink:href="#DejaVuSans-20" x="39.208984"/>
      <use xlink:href="#DejaVuSans-28" x="70.996094"/>
      <use xlink:href="#DejaVuSans-73" x="110.009766"/>
      <use xlink:href="#DejaVuSans-29" x="162.109375"/>
     </g>
    </g>
   </g>
   <g id="matplotlib.axis_2">
    <g id="ytick_1">
     <g id="line2d_8">
      <defs>
       <path id="me9bffa5154" d="M 0 0 
L -3.5 0 
" style="stroke: #000000; stroke-width: 0.8"/>
      </defs>
      <g>
       <use xlink:href="#me9bffa5154" x="57.6" y="288.090178" style="stroke: #000000; stroke-width: 0.8"/>
      </g>
     </g>
     <g id="text_9">
      <!-- 4.25 -->
      <g transform="translate(28.334375 291.889397) scale(0.1 -0.1)">
       <use xlink:href="#DejaVuSans-34"/>
       <use xlink:href="#DejaVuSans-2e" x="63.623047"/>
       <use xlink:href="#DejaVuSans-32" x="95.410156"/>
       <use xlink:href="#DejaVuSans-35" x="159.033203"/>
      </g>
     </g>
    </g>
    <g id="ytick_2">
     <g id="line2d_9">
      <g>
       <use xlink:href="#me9bffa5154" x="57.6" y="253.042307" style="stroke: #000000; stroke-width: 0.8"/>
      </g>
     </g>
     <g id="text_10">
      <!-- 4.50 -->
      <g transform="translate(28.334375 256.841525) scale(0.1 -0.1)">
       <use xlink:href="#DejaVuSans-34"/>
       <use xlink:href="#DejaVuSans-2e" x="63.623047"/>
       <use xlink:href="#DejaVuSans-35" x="95.410156"/>
       <use xlink:href="#DejaVuSans-30" x="159.033203"/>
      </g>
     </g>
    </g>
    <g id="ytick_3">
     <g id="line2d_10">
      <g>
       <use xlink:href="#me9bffa5154" x="57.6" y="217.994435" style="stroke: #000000; stroke-width: 0.8"/>
      </g>
     </g>
     <g id="text_11">
      <!-- 4.75 -->
      <g transform="translate(28.334375 221.793653) scale(0.1 -0.1)">
       <defs>
        <path id="DejaVuSans-37" d="M 525 4666 
L 3525 4666 
L 3525 4397 
L 1831 0 
L 1172 0 
L 2766 4134 
L 525 4134 
L 525 4666 
z
" transform="scale(0.015625)"/>
       </defs>
       <use xlink:href="#DejaVuSans-34"/>
       <use xlink:href="#DejaVuSans-2e" x="63.623047"/>
       <use xlink:href="#DejaVuSans-37" x="95.410156"/>
       <use xlink:href="#DejaVuSans-35" x="159.033203"/>
      </g>
     </g>
    </g>
    <g id="ytick_4">
     <g id="line2d_11">
      <g>
       <use xlink:href="#me9bffa5154" x="57.6" y="182.946563" style="stroke: #000000; stroke-width: 0.8"/>
      </g>
     </g>
     <g id="text_12">
      <!-- 5.00 -->
      <g transform="translate(28.334375 186.745781) scale(0.1 -0.1)">
       <use xlink:href="#DejaVuSans-35"/>
       <use xlink:href="#DejaVuSans-2e" x="63.623047"/>
       <use xlink:href="#DejaVuSans-30" x="95.410156"/>
       <use xlink:href="#DejaVuSans-30" x="159.033203"/>
      </g>
     </g>
    </g>
    <g id="ytick_5">
     <g id="line2d_12">
      <g>
       <use xlink:href="#me9bffa5154" x="57.6" y="147.898691" style="stroke: #000000; stroke-width: 0.8"/>
      </g>
     </g>
     <g id="text_13">
      <!-- 5.25 -->
      <g transform="translate(28.334375 151.697909) scale(0.1 -0.1)">
       <use xlink:href="#DejaVuSans-35"/>
       <use xlink:href="#DejaVuSans-2e" x="63.623047"/>
       <use xlink:href="#DejaVuSans-32" x="95.410156"/>
       <use xlink:href="#DejaVuSans-35" x="159.033203"/>
      </g>
     </g>
    </g>
    <g id="ytick_6">
     <g id="line2d_13">
      <g>
       <use xlink:href="#me9bffa5154" x="57.6" y="112.850819" style="stroke: #000000; stroke-width: 0.8"/>
      </g>
     </g>
     <g id="text_14">
      <!-- 5.50 -->
      <g transform="translate(28.334375 116.650037) scale(0.1 -0.1)">
       <use xlink:href="#DejaVuSans-35"/>
       <use xlink:href="#DejaVuSans-2e" x="63.623047"/>
       <use xlink:href="#DejaVuSans-35" x="95.410156"/>
       <use xlink:href="#DejaVuSans-30" x="159.033203"/>
      </g>
     </g>
    </g>
    <g id="ytick_7">
     <g id="line2d_14">
      <g>
       <use xlink:href="#me9bffa5154" x="57.6" y="77.802947" style="stroke: #000000; stroke-width: 0.8"/>
      </g>
     </g>
     <g id="text_15">
      <!-- 5.75 -->
      <g transform="translate(28.334375 81.602165) scale(0.1 -0.1)">
       <use xlink:href="#DejaVuSans-35"/>
       <use xlink:href="#DejaVuSans-2e" x="63.623047"/>
       <use xlink:href="#DejaVuSans-37" x="95.410156"/>
       <use xlink:href="#DejaVuSans-35" x="159.033203"/>
      </g>
     </g>
    </g>
    <g id="ytick_8">
     <g id="line2d_15">
      <g>
       <use xlink:href="#me9bffa5154" x="57.6" y="42.755075" style="stroke: #000000; stroke-width: 0.8"/>
      </g>
     </g>
     <g id="text_16">
      <!-- 6.00 -->
      <g transform="translate(28.334375 46.554293) scale(0.1 -0.1)">
       <defs>
        <path id="DejaVuSans-36" d="M 2113 2584 
Q 1688 2584 1439 2293 
Q 1191 2003 1191 1497 
Q 1191 994 1439 701 
Q 1688 409 2113 409 
Q 2538 409 2786 701 
Q 3034 994 3034 1497 
Q 3034 2003 2786 2293 
Q 2538 2584 2113 2584 
z
M 3366 4563 
L 3366 3988 
Q 3128 4100 2886 4159 
Q 2644 4219 2406 4219 
Q 1781 4219 1451 3797 
Q 1122 3375 1075 2522 
Q 1259 2794 1537 2939 
Q 1816 3084 2150 3084 
Q 2853 3084 3261 2657 
Q 3669 2231 3669 1497 
Q 3669 778 3244 343 
Q 2819 -91 2113 -91 
Q 1303 -91 875 529 
Q 447 1150 447 2328 
Q 447 3434 972 4092 
Q 1497 4750 2381 4750 
Q 2619 4750 2861 4703 
Q 3103 4656 3366 4563 
z
" transform="scale(0.015625)"/>
       </defs>
       <use xlink:href="#DejaVuSans-36"/>
       <use xlink:href="#DejaVuSans-2e" x="63.623047"/>
       <use xlink:href="#DejaVuSans-30" x="95.410156"/>
       <use xlink:href="#DejaVuSans-30" x="159.033203"/>
      </g>
     </g>
    </g>
    <g id="text_17">
     <!-- p (Pa) -->
     <g transform="translate(22.254687 189.04675) rotate(-90) scale(0.1 -0.1)">
      <defs>
       <path id="DejaVuSans-70" d="M 1159 525 
L 1159 -1331 
L 581 -1331 
L 581 3500 
L 1159 3500 
L 1159 2969 
Q 1341 3281 1617 3432 
Q 1894 3584 2278 3584 
Q 2916 3584 3314 3078 
Q 3713 2572 3713 1747 
Q 3713 922 3314 415 
Q 2916 -91 2278 -91 
Q 1894 -91 1617 61 
Q 1341 213 1159 525 
z
M 3116 1747 
Q 3116 2381 2855 2742 
Q 2594 3103 2138 3103 
Q 1681 3103 1420 2742 
Q 1159 2381 1159 1747 
Q 1159 1113 1420 752 
Q 1681 391 2138 391 
Q 2594 391 2855 752 
Q 3116 1113 3116 1747 
z
" transform="scale(0.015625)"/>
       <path id="DejaVuSans-50" d="M 1259 4147 
L 1259 2394 
L 2053 2394 
Q 2494 2394 2734 2622 
Q 2975 2850 2975 3272 
Q 2975 3691 2734 3919 
Q 2494 4147 2053 4147 
L 1259 4147 
z
M 628 4666 
L 2053 4666 
Q 2838 4666 3239 4311 
Q 3641 3956 3641 3272 
Q 3641 2581 3239 2228 
Q 2838 1875 2053 1875 
L 1259 1875 
L 1259 0 
L 628 0 
L 628 4666 
z
" transform="scale(0.015625)"/>
       <path id="DejaVuSans-61" d="M 2194 1759 
Q 1497 1759 1228 1600 
Q 959 1441 959 1056 
Q 959 750 1161 570 
Q 1363 391 1709 391 
Q 2188 391 2477 730 
Q 2766 1069 2766 1631 
L 2766 1759 
L 2194 1759 
z
M 3341 1997 
L 3341 0 
L 2766 0 
L 2766 531 
Q 2569 213 2275 61 
Q 1981 -91 1556 -91 
Q 1019 -91 701 211 
Q 384 513 384 1019 
Q 384 1609 779 1909 
Q 1175 2209 1959 2209 
L 2766 2209 
L 2766 2266 
Q 2766 2663 2505 2880 
Q 2244 3097 1772 3097 
Q 1472 3097 1187 3025 
Q 903 2953 641 2809 
L 641 3341 
Q 956 3463 1253 3523 
Q 1550 3584 1831 3584 
Q 2591 3584 2966 3190 
Q 3341 2797 3341 1997 
z
" transform="scale(0.015625)"/>
      </defs>
      <use xlink:href="#DejaVuSans-70"/>
      <use xlink:href="#DejaVuSans-20" x="63.476562"/>
      <use xlink:href="#DejaVuSans-28" x="95.263672"/>
      <use xlink:href="#DejaVuSans-50" x="134.277344"/>
      <use xlink:href="#DejaVuSans-61" x="190.080078"/>
      <use xlink:href="#DejaVuSans-29" x="251.359375"/>
     </g>
    </g>
    <g id="text_18">
     <!-- +1.0132e5 -->
     <g transform="translate(57.6 38.472) scale(0.1 -0.1)">
      <defs>
       <path id="DejaVuSans-2b" d="M 2944 4013 
L 2944 2272 
L 4684 2272 
L 4684 1741 
L 2944 1741 
L 2944 0 
L 2419 0 
L 2419 1741 
L 678 1741 
L 678 2272 
L 2419 2272 
L 2419 4013 
L 2944 4013 
z
" transform="scale(0.015625)"/>
       <path id="DejaVuSans-65" d="M 3597 1894 
L 3597 1613 
L 953 1613 
Q 991 1019 1311 708 
Q 1631 397 2203 397 
Q 2534 397 2845 478 
Q 3156 559 3463 722 
L 3463 178 
Q 3153 47 2828 -22 
Q 2503 -91 2169 -91 
Q 1331 -91 842 396 
Q 353 884 353 1716 
Q 353 2575 817 3079 
Q 1281 3584 2069 3584 
Q 2775 3584 3186 3129 
Q 3597 2675 3597 1894 
z
M 3022 2063 
Q 3016 2534 2758 2815 
Q 2500 3097 2075 3097 
Q 1594 3097 1305 2825 
Q 1016 2553 972 2059 
L 3022 2063 
z
" transform="scale(0.015625)"/>
      </defs>
      <use xlink:href="#DejaVuSans-2b"/>
      <use xlink:href="#DejaVuSans-31" x="83.789062"/>
      <use xlink:href="#DejaVuSans-2e" x="147.412109"/>
      <use xlink:href="#DejaVuSans-30" x="179.199219"/>
      <use xlink:href="#DejaVuSans-31" x="242.822266"/>
      <use xlink:href="#DejaVuSans-33" x="306.445312"/>
      <use xlink:href="#DejaVuSans-32" x="370.068359"/>
      <use xlink:href="#DejaVuSans-65" x="433.691406"/>
      <use xlink:href="#DejaVuSans-35" x="495.214844"/>
     </g>
    </g>
   </g>
   <g id="line2d_16">
    <path d="M 73.832727 122.874328 
L 74.25573 112.443981 
L 75.313237 95.908173 
L 75.524738 94.203733 
L 75.736239 94.243506 
L 75.947741 94.8932 
L 76.370743 94.571485 
L 76.582245 95.660523 
L 76.793746 98.955637 
L 77.851253 124.587462 
L 78.274255 142.671662 
L 79.120261 179.791282 
L 79.543263 192.691479 
L 79.966266 199.061358 
L 80.177767 200.894693 
L 80.60077 202.391854 
L 81.023773 207.271314 
L 81.235274 208.188104 
L 81.446775 206.785918 
L 81.869778 198.082839 
L 82.292781 186.532361 
L 82.504282 184.383659 
L 82.715783 184.250602 
L 82.927285 183.325067 
L 83.138786 180.232425 
L 83.350287 175.467478 
L 83.77329 157.044833 
L 84.196293 139.794142 
L 84.830797 127.828569 
L 85.676802 103.711833 
L 85.888303 102.058773 
L 86.099805 104.793567 
L 87.368813 139.79669 
L 88.849322 196.134656 
L 89.272325 204.488474 
L 89.483826 206.645954 
L 89.906829 207.402121 
L 90.11833 208.728327 
L 91.175837 225.7757 
L 91.387338 224.894335 
L 92.021842 212.283265 
L 92.233343 213.211061 
L 92.444845 214.98127 
L 92.656346 213.49713 
L 93.079349 202.107937 
L 94.771359 142.070569 
L 95.194362 122.741104 
L 95.617365 113.386386 
L 96.040367 107.341758 
L 96.674871 109.978645 
L 96.886373 111.575225 
L 97.097874 114.088856 
L 97.309375 114.461511 
L 97.520877 115.703182 
L 97.732378 121.281078 
L 99.212887 185.09883 
L 99.847391 200.545622 
L 101.116399 246.187418 
L 101.750903 261.315404 
L 101.962405 260.379406 
L 102.385407 242.514431 
L 103.865916 171.817494 
L 104.50042 136.820729 
L 105.134924 111.348434 
L 105.98093 92.759344 
L 106.403932 81.552432 
L 106.615434 78.183548 
L 106.826935 78.586895 
L 107.038436 82.321918 
L 107.461439 99.193037 
L 108.095943 135.549205 
L 110.210956 262.922008 
L 110.422458 266.663469 
L 110.633959 267.248549 
L 110.84546 267.155598 
L 111.056962 267.877518 
L 111.268463 269.19698 
L 111.479964 268.682018 
L 111.691466 264.572043 
L 112.114468 244.799234 
L 113.806479 132.906542 
L 114.863986 79.884377 
L 115.286988 68.439982 
L 115.709991 65.585025 
L 115.921492 65.373845 
L 116.132994 66.131662 
L 116.344495 68.823005 
L 116.555996 73.984398 
L 116.978999 93.147066 
L 117.613503 144.235024 
L 118.459508 215.951536 
L 119.094012 253.01368 
L 119.728516 281.182829 
L 119.940018 284.793755 
L 120.151519 286.07594 
L 120.36302 284.729489 
L 120.574522 280.92237 
L 120.997524 265.890297 
L 121.632028 229.867456 
L 123.324039 113.210033 
L 123.747042 93.241938 
L 124.593047 64.915326 
L 125.01605 59.728948 
L 125.227551 59.494344 
L 125.439052 61.891369 
L 125.650554 67.376346 
L 126.073556 88.647486 
L 126.70806 137.786008 
L 128.18857 257.012542 
L 128.823074 286.008905 
L 129.246076 293.793277 
L 129.457578 294.299615 
L 129.669079 292.048733 
L 130.092082 276.628393 
L 130.726586 239.076201 
L 132.630098 111.647337 
L 133.264602 82.70045 
L 133.899106 62.336004 
L 134.322108 57.073228 
L 134.53361 58.070315 
L 134.745111 62.530393 
L 135.168114 82.741993 
L 135.802618 132.238026 
L 137.283127 252.575239 
L 137.917631 282.728196 
L 138.340634 291.940777 
L 138.552135 292.997684 
L 138.763636 292.37192 
L 138.975138 288.924186 
L 139.39814 272.335494 
L 140.032644 232.61514 
L 141.513154 128.826397 
L 142.147658 93.142136 
L 142.782162 68.406156 
L 143.205164 58.140803 
L 143.416666 55.45263 
L 143.628167 55.411329 
L 143.839668 58.061672 
L 144.05117 64.434455 
L 144.474172 87.50236 
L 145.320178 156.228672 
L 146.377684 243.806386 
L 147.012188 276.459369 
L 147.435191 288.983016 
L 147.646692 291.023431 
L 147.858194 291.632418 
L 148.069695 289.993235 
L 148.281196 284.613022 
L 148.704199 265.714528 
L 149.338703 222.694601 
L 150.607711 133.45728 
L 151.453716 87.017554 
L 152.08822 63.422055 
L 152.511223 55.177186 
L 152.722724 53.568 
L 152.934226 54.754543 
L 153.145727 59.100228 
L 153.56873 78.791751 
L 154.203234 127.896088 
L 155.683743 249.074178 
L 156.318247 279.566732 
L 156.74125 289.822485 
L 156.952751 291.357853 
L 157.164252 291.130013 
L 157.375754 287.906649 
L 157.798756 270.835935 
L 158.43326 230.018606 
L 159.702268 139.327481 
L 160.548274 90.958498 
L 161.182778 66.60084 
L 161.60578 57.012657 
L 161.817282 54.515451 
L 162.028783 54.537 
L 162.240284 57.268064 
L 162.451786 63.621535 
L 162.874788 86.485417 
L 163.720794 154.990324 
L 164.7783 241.828039 
L 165.412804 275.06201 
L 165.835807 288.340394 
L 166.047308 290.671458 
L 166.25881 291.510789 
L 166.470311 290.117766 
L 166.681812 284.975105 
L 167.104815 266.415897 
L 167.739319 223.877137 
L 169.008327 134.001081 
L 169.854332 87.027749 
L 170.488836 63.954851 
L 170.911839 56.435527 
L 171.12334 55.100648 
L 171.334842 56.572596 
L 171.546343 61.157726 
L 171.969346 81.121042 
L 172.60385 130.494513 
L 174.084359 250.547361 
L 174.718863 281.12397 
L 175.141866 291.391986 
L 175.353367 292.925554 
L 175.564868 292.76971 
L 175.77637 289.674922 
L 176.199372 272.891283 
L 176.833876 232.48942 
L 178.102884 141.95704 
L 178.94889 93.517067 
L 179.583394 69.050731 
L 180.006396 59.473535 
L 180.217898 56.951863 
L 180.429399 56.908491 
L 180.6409 59.580283 
L 180.852402 65.859749 
L 181.275404 88.688768 
L 182.12141 157.224846 
L 183.178916 243.652277 
L 183.81342 276.817701 
L 184.236423 290.038918 
L 184.447924 292.297183 
L 184.659426 293.057248 
L 184.870927 291.634796 
L 185.082428 286.52346 
L 185.505431 267.960418 
L 186.139935 225.368425 
L 187.408943 135.936492 
L 188.254948 89.026878 
L 188.889452 65.800672 
L 189.312455 58.031665 
L 189.523956 56.570039 
L 189.735458 57.908031 
L 189.946959 62.284942 
L 190.369962 81.624603 
L 191.004466 130.34755 
L 192.484975 250.187137 
L 193.119479 281.049692 
L 193.542481 291.441074 
L 193.753983 292.989722 
L 193.965484 292.929989 
L 194.176985 289.99158 
L 194.599988 273.395834 
L 195.234492 233.112586 
L 196.715001 128.517224 
L 197.561007 84.061796 
L 198.195511 62.544742 
L 198.618513 56.175804 
L 198.830015 56.066741 
L 199.041516 58.691393 
L 199.253017 64.91944 
L 199.67602 87.605571 
L 200.522025 155.955282 
L 201.579532 242.52065 
L 202.214036 275.744513 
L 202.637039 289.087551 
L 202.84854 291.363343 
L 203.060041 292.085913 
L 203.271543 290.614444 
L 203.483044 285.480796 
L 203.906047 266.811999 
L 204.540551 224.152458 
L 205.809559 134.394552 
L 206.655564 87.58505 
L 207.290068 64.382436 
L 207.713071 56.63923 
L 207.924572 55.133356 
L 208.136073 56.436992 
L 208.347575 60.781202 
L 208.770577 80.037207 
L 209.405081 128.627 
L 210.885591 248.267295 
L 211.520095 279.080989 
L 211.943097 289.649969 
L 212.154599 291.198347 
L 212.3661 291.121559 
L 212.577601 288.184988 
L 213.000604 271.613456 
L 213.635108 231.640453 
L 215.115617 127.413842 
L 215.961623 83.011923 
L 216.596127 61.452612 
L 217.019129 55.258146 
L 217.230631 55.201433 
L 217.442132 57.82596 
L 217.653633 63.969501 
L 218.076636 86.415989 
L 218.922641 154.710111 
L 220.191649 254.343185 
L 220.826153 282.863944 
L 221.037655 288.074068 
L 221.249156 290.430298 
L 221.460657 291.289806 
L 221.672159 290.035371 
L 221.88366 285.168386 
L 222.306663 266.728176 
L 222.941167 224.250741 
L 224.210175 134.638272 
L 225.05618 88.006926 
L 225.690684 65.021355 
L 226.113687 57.191658 
L 226.325188 55.661139 
L 226.536689 56.932966 
L 226.748191 61.177689 
L 227.171193 80.186669 
L 227.805697 128.629325 
L 229.286207 248.782798 
L 229.920711 279.610752 
L 230.343713 290.284879 
L 230.555215 291.962147 
L 230.766716 292.068703 
L 230.978217 289.370132 
L 231.40122 273.136676 
L 232.035724 233.501115 
L 233.516233 129.490907 
L 234.362239 85.108062 
L 234.996743 63.583904 
L 235.419745 57.340672 
L 235.631247 57.224023 
L 235.842748 59.80955 
L 236.054249 65.899979 
L 236.477252 88.174385 
L 237.323257 156.296291 
L 238.592265 256.114911 
L 239.226769 284.909603 
L 239.438271 290.266358 
L 239.649772 292.708758 
L 239.861273 293.61817 
L 240.072775 292.476341 
L 240.284276 287.828241 
L 240.707279 269.702166 
L 241.341783 227.431631 
L 242.610791 137.861595 
L 243.456796 91.171804 
L 244.0913 68.252491 
L 244.514303 60.432799 
L 244.725804 58.807329 
L 244.937305 59.933078 
L 245.148807 63.958276 
L 245.571809 82.617802 
L 245.994812 112.863179 
L 247.686823 251.218666 
L 248.321327 282.259475 
L 248.744329 293.065006 
L 248.955831 294.732318 
L 249.167332 294.879866 
L 249.378833 292.336177 
L 249.801836 276.410912 
L 250.43634 237.038522 
L 251.916849 132.503607 
L 252.762855 88.071058 
L 253.397359 66.449806 
L 253.820361 60.022762 
L 254.031863 59.766152 
L 254.243364 62.200103 
L 254.454865 68.082526 
L 254.877868 89.984772 
L 255.723873 157.748784 
L 256.992881 257.672512 
L 257.627385 286.506956 
L 257.838887 291.989121 
L 258.050388 294.523262 
L 258.261889 295.488 
L 258.473391 294.457532 
L 258.684892 290.012101 
L 259.107895 272.048054 
L 259.742399 229.711424 
L 261.011407 139.829469 
L 261.857412 92.680136 
L 262.491916 69.550379 
L 262.914919 61.450653 
L 263.12642 59.652473 
L 263.337921 60.612939 
L 263.549423 64.446065 
L 263.972425 82.764303 
L 264.395428 112.652826 
L 266.087439 250.66165 
L 266.721943 282.045829 
L 267.144945 293.247965 
L 267.356447 294.843813 
L 267.567948 294.90922 
L 267.779449 292.36751 
L 268.202452 276.514591 
L 268.836956 237.507643 
L 270.317465 132.566268 
L 271.163471 87.617416 
L 271.797975 65.762561 
L 272.220977 59.114378 
L 272.432479 58.590499 
L 272.64398 60.778951 
L 272.855481 66.413666 
L 273.278484 88.002011 
L 273.912988 138.033643 
L 275.393497 255.297516 
L 276.028001 284.383182 
L 276.239503 289.967279 
L 276.451004 292.53517 
L 276.662505 293.483417 
L 276.874007 292.488601 
L 277.085508 288.171703 
L 277.508511 270.348803 
L 278.143015 228.296424 
L 279.412023 138.18751 
L 280.258028 90.80862 
L 280.892532 67.491987 
L 281.315534 59.110743 
L 281.527036 57.187655 
L 281.738537 57.998571 
L 281.950038 61.605854 
L 282.373041 79.450997 
L 282.796044 109.043345 
L 284.488054 247.087313 
L 285.122558 278.67544 
L 285.545561 290.084923 
L 285.757062 291.759957 
L 285.968564 291.923625 
L 286.180065 289.557101 
L 286.603068 273.979828 
L 287.237572 235.284497 
L 288.718081 130.364588 
L 289.564086 85.199418 
L 290.19859 63.270714 
L 290.621593 56.350652 
L 290.833094 55.708933 
L 291.044596 57.83878 
L 291.256097 63.333028 
L 291.6791 84.617224 
L 292.313604 134.414039 
L 293.794113 252.056289 
L 294.428617 281.390433 
L 294.640118 287.130521 
L 294.85162 289.834003 
L 295.063121 290.887437 
L 295.274622 290.076892 
L 295.486124 286.043299 
L 295.909126 268.477747 
L 296.54363 226.75767 
L 297.812638 136.667749 
L 298.658644 89.302253 
L 299.293148 65.829783 
L 299.71615 57.257632 
L 299.927652 55.218538 
L 300.139153 55.895377 
L 300.350654 59.380704 
L 300.773657 76.985 
L 301.19666 106.34362 
L 302.88867 244.708546 
L 303.523174 276.643866 
L 303.946177 288.381446 
L 304.157678 290.098831 
L 304.36918 290.358569 
L 304.580681 288.195603 
L 305.003684 273.079021 
L 305.426686 249.459522 
L 307.753201 93.680186 
L 308.387705 68.912881 
L 308.810708 58.312743 
L 309.022209 55.464954 
L 309.23371 54.666242 
L 309.445212 56.673939 
L 309.656713 61.993568 
L 310.079716 83.067111 
L 310.71422 132.57258 
L 312.194729 250.630472 
L 312.829233 280.186894 
L 313.252236 289.138842 
L 313.463737 290.260723 
L 313.675238 289.540193 
L 313.88674 285.693882 
L 314.309742 268.231181 
L 314.944246 226.963466 
L 316.213254 136.85849 
L 317.05926 89.289249 
L 317.693764 65.89898 
L 318.116766 56.993559 
L 318.328268 54.757074 
L 318.539769 55.229584 
L 318.75127 58.548373 
L 319.174273 75.966928 
L 319.597276 105.168463 
L 321.289286 243.663962 
L 321.92379 275.88118 
L 322.346793 288.002998 
L 322.558294 289.849574 
L 322.769796 290.206322 
L 322.981297 288.176946 
L 323.4043 273.43264 
L 323.827302 249.992042 
L 326.153817 94.028063 
L 326.788321 69.281212 
L 327.211324 58.493447 
L 327.422825 55.567484 
L 327.634326 54.590387 
L 327.845828 56.455543 
L 328.057329 61.559431 
L 328.480332 82.245486 
L 329.114836 131.540558 
L 330.595345 249.987095 
L 331.229849 279.755041 
L 331.652852 288.965933 
L 331.864353 290.2191 
L 332.075854 289.701456 
L 332.287356 286.136322 
L 332.710358 268.904623 
L 333.344862 227.933582 
L 334.61387 137.698697 
L 335.459876 89.978865 
L 336.09438 66.388284 
L 336.517382 57.292772 
L 336.728884 54.928758 
L 336.940385 55.2387 
L 337.151886 58.383532 
L 337.574889 75.485987 
L 337.997892 104.37784 
L 339.901404 255.520784 
L 340.535908 283.150262 
L 340.747409 287.87441 
L 340.95891 289.87001 
L 341.170412 290.381363 
L 341.381913 288.549909 
L 341.804916 274.2401 
L 342.227918 250.998306 
L 344.554433 94.763013 
L 345.188937 69.839178 
L 345.61194 58.966386 
L 345.823441 56.049096 
L 346.034942 54.932793 
L 346.246444 56.634107 
L 346.457945 61.480156 
L 346.880948 81.647592 
L 347.515452 130.671372 
L 348.995961 249.488483 
L 349.630465 279.501494 
L 350.053468 289.059193 
L 350.264969 290.425797 
L 350.47647 290.088037 
L 350.687972 286.780344 
L 351.110974 269.798619 
L 351.745478 229.132694 
L 353.014486 138.754807 
L 353.860492 90.912584 
L 354.494996 66.935805 
L 354.917998 57.671857 
L 355.1295 55.278488 
L 355.341001 55.450429 
L 355.552502 58.377438 
L 355.764004 64.910063 
L 356.187006 87.985794 
L 357.033012 156.480069 
L 358.090518 242.515058 
L 358.725022 275.162795 
L 359.148025 287.934222 
L 359.359526 290.002237 
L 359.571028 290.572169 
L 359.782529 288.868377 
L 359.99403 283.423508 
L 360.417033 264.567349 
L 361.051537 221.960442 
L 362.320545 132.569252 
L 363.16655 86.507964 
L 363.801054 63.952743 
L 364.224057 56.477007 
L 364.435558 55.127452 
L 364.64706 56.600244 
L 364.858561 61.19862 
L 365.281564 81.01317 
L 365.916068 129.82325 
L 367.608078 260.243007 
L 368.242582 285.603676 
L 368.454084 289.054648 
L 368.665585 290.518127 
L 368.877086 290.346658 
L 369.088588 287.29805 
L 369.51159 270.66118 
L 370.146094 230.240903 
L 371.415102 139.803916 
L 372.261107 91.625219 
L 372.895611 67.348845 
L 373.318614 57.889138 
L 373.530115 55.412102 
L 373.741617 55.422218 
L 373.953118 58.164441 
L 374.164619 64.502252 
L 374.587622 87.25503 
L 375.433627 155.437558 
L 376.491134 241.595498 
L 377.125638 274.6843 
L 377.548641 287.796208 
L 377.760142 289.942994 
L 377.971643 290.604421 
L 378.183145 289.131762 
L 378.394646 284.044655 
L 378.817649 265.462559 
L 379.452153 222.902103 
L 380.721161 133.569111 
L 381.567166 87.093847 
L 382.20167 64.2689 
L 382.624673 56.646574 
L 382.836174 55.188296 
L 383.047675 56.509135 
L 383.259177 60.835537 
L 383.682179 80.057416 
L 384.316683 128.52065 
L 385.797193 247.851756 
L 386.431697 278.507809 
L 386.854699 288.78238 
L 387.066201 290.321562 
L 387.277702 290.314356 
L 387.489203 287.51575 
L 387.912206 271.206957 
L 388.54671 231.299737 
L 390.027219 127.253689 
L 390.873225 83.084005 
L 391.507729 61.625649 
L 391.930731 55.31003 
L 392.142233 55.165238 
L 392.353734 57.725962 
L 392.565235 63.836275 
L 392.988238 86.176882 
L 393.834243 153.987114 
L 394.89175 240.373541 
L 395.526254 273.736502 
L 395.949257 287.107572 
L 396.160758 289.458642 
L 396.372259 290.281578 
L 396.583761 289.02509 
L 396.795262 284.273616 
L 397.218265 266.075999 
L 397.852769 223.809298 
L 398.275771 197.882913 
L 398.487273 130.939983 
L 398.487273 130.939983 
" clip-path="url(#p682a913ece)" style="fill: none; stroke: #1f77b4; stroke-width: 1.5; stroke-linecap: square"/>
   </g>
   <g id="patch_3">
    <path d="M 57.6 307.584 
L 57.6 41.472 
" style="fill: none; stroke: #000000; stroke-width: 0.8; stroke-linejoin: miter; stroke-linecap: square"/>
   </g>
   <g id="patch_4">
    <path d="M 414.72 307.584 
L 414.72 41.472 
" style="fill: none; stroke: #000000; stroke-width: 0.8; stroke-linejoin: miter; stroke-linecap: square"/>
   </g>
   <g id="patch_5">
    <path d="M 57.6 307.584 
L 414.72 307.584 
" style="fill: none; stroke: #000000; stroke-width: 0.8; stroke-linejoin: miter; stroke-linecap: square"/>
   </g>
   <g id="patch_6">
    <path d="M 57.6 41.472 
L 414.72 41.472 
" style="fill: none; stroke: #000000; stroke-width: 0.8; stroke-linejoin: miter; stroke-linecap: square"/>
   </g>
   <g id="text_19">
    <!-- Obs1 p(t) -->
    <g transform="translate(207.934687 35.472) scale(0.12 -0.12)">
     <defs>
      <path id="DejaVuSans-4f" d="M 2522 4238 
Q 1834 4238 1429 3725 
Q 1025 3213 1025 2328 
Q 1025 1447 1429 934 
Q 1834 422 2522 422 
Q 3209 422 3611 934 
Q 4013 1447 4013 2328 
Q 4013 3213 3611 3725 
Q 3209 4238 2522 4238 
z
M 2522 4750 
Q 3503 4750 4090 4092 
Q 4678 3434 4678 2328 
Q 4678 1225 4090 567 
Q 3503 -91 2522 -91 
Q 1538 -91 948 565 
Q 359 1222 359 2328 
Q 359 3434 948 4092 
Q 1538 4750 2522 4750 
z
" transform="scale(0.015625)"/>
      <path id="DejaVuSans-62" d="M 3116 1747 
Q 3116 2381 2855 2742 
Q 2594 3103 2138 3103 
Q 1681 3103 1420 2742 
Q 1159 2381 1159 1747 
Q 1159 1113 1420 752 
Q 1681 391 2138 391 
Q 2594 391 2855 752 
Q 3116 1113 3116 1747 
z
M 1159 2969 
Q 1341 3281 1617 3432 
Q 1894 3584 2278 3584 
Q 2916 3584 3314 3078 
Q 3713 2572 3713 1747 
Q 3713 922 3314 415 
Q 2916 -91 2278 -91 
Q 1894 -91 1617 61 
Q 1341 213 1159 525 
L 1159 0 
L 581 0 
L 581 4863 
L 1159 4863 
L 1159 2969 
z
" transform="scale(0.015625)"/>
     </defs>
     <use xlink:href="#DejaVuSans-4f"/>
     <use xlink:href="#DejaVuSans-62" x="78.710938"/>
     <use xlink:href="#DejaVuSans-73" x="142.1875"/>
     <use xlink:href="#DejaVuSans-31" x="194.287109"/>
     <use xlink:href="#DejaVuSans-20" x="257.910156"/>
     <use xlink:href="#DejaVuSans-70" x="289.697266"/>
     <use xlink:href="#DejaVuSans-28" x="353.173828"/>
     <use xlink:href="#DejaVuSans-74" x="392.1875"/>
     <use xlink:href="#DejaVuSans-29" x="431.396484"/>
    </g>
   </g>
  </g>
 </g>
 <defs>
  <clipPath id="p682a913ece">
   <rect x="57.6" y="41.472" width="357.12" height="266.112"/>
  </clipPath>
 </defs>
</svg>
