<?xml version="1.0" encoding="utf-8" standalone="no"?>
<!DOCTYPE svg PUBLIC "-//W3C//DTD SVG 1.1//EN"
  "http://www.w3.org/Graphics/SVG/1.1/DTD/svg11.dtd">
<svg xmlns:xlink="http://www.w3.org/1999/xlink" width="460.8pt" height="345.6pt" viewBox="0 0 460.8 345.6" xmlns="http://www.w3.org/2000/svg" version="1.1">
 <metadata>
  <rdf:RDF xmlns:dc="http://purl.org/dc/elements/1.1/" xmlns:cc="http://creativecommons.org/ns#" xmlns:rdf="http://www.w3.org/1999/02/22-rdf-syntax-ns#">
   <cc:Work>
    <dc:type rdf:resource="http://purl.org/dc/dcmitype/StillImage"/>
    <dc:date>2023-10-30T15:11:03.421071</dc:date>
    <dc:format>image/svg+xml</dc:format>
    <dc:creator>
     <cc:Agent>
      <dc:title>Matplotlib v3.7.0, https://matplotlib.org/</dc:title>
     </cc:Agent>
    </dc:creator>
   </cc:Work>
  </rdf:RDF>
 </metadata>
 <defs>
  <style type="text/css">*{stroke-linejoin: round; stroke-linecap: butt}</style>
 </defs>
 <g id="figure_1">
  <g id="patch_1">
   <path d="M 0 345.6 
L 460.8 345.6 
L 460.8 0 
L 0 0 
z
" style="fill: #ffffff"/>
  </g>
  <g id="axes_1">
   <g id="patch_2">
    <path d="M 57.6 307.584 
L 414.72 307.584 
L 414.72 41.472 
L 57.6 41.472 
z
" style="fill: #ffffff"/>
   </g>
   <g id="matplotlib.axis_1">
    <g id="xtick_1">
     <g id="line2d_1">
      <defs>
       <path id="m28b7b4d3e3" d="M 0 0 
L 0 3.5 
" style="stroke: #000000; stroke-width: 0.8"/>
      </defs>
      <g>
       <use xlink:href="#m28b7b4d3e3" x="110.043117" y="307.584" style="stroke: #000000; stroke-width: 0.8"/>
      </g>
     </g>
     <g id="text_1">
      <!-- $\mathdefault{10^{0}}$ -->
      <g transform="translate(101.243117 322.182437) scale(0.1 -0.1)">
       <defs>
        <path id="DejaVuSans-31" d="M 794 531 
L 1825 531 
L 1825 4091 
L 703 3866 
L 703 4441 
L 1819 4666 
L 2450 4666 
L 2450 531 
L 3481 531 
L 3481 0 
L 794 0 
L 794 531 
z
" transform="scale(0.015625)"/>
        <path id="DejaVuSans-30" d="M 2034 4250 
Q 1547 4250 1301 3770 
Q 1056 3291 1056 2328 
Q 1056 1369 1301 889 
Q 1547 409 2034 409 
Q 2525 409 2770 889 
Q 3016 1369 3016 2328 
Q 3016 3291 2770 3770 
Q 2525 4250 2034 4250 
z
M 2034 4750 
Q 2819 4750 3233 4129 
Q 3647 3509 3647 2328 
Q 3647 1150 3233 529 
Q 2819 -91 2034 -91 
Q 1250 -91 836 529 
Q 422 1150 422 2328 
Q 422 3509 836 4129 
Q 1250 4750 2034 4750 
z
" transform="scale(0.015625)"/>
       </defs>
       <use xlink:href="#DejaVuSans-31" transform="translate(0 0.765625)"/>
       <use xlink:href="#DejaVuSans-30" transform="translate(63.623047 0.765625)"/>
       <use xlink:href="#DejaVuSans-30" transform="translate(128.203125 39.046875) scale(0.7)"/>
      </g>
     </g>
    </g>
    <g id="xtick_2">
     <g id="line2d_2">
      <g>
       <use xlink:href="#m28b7b4d3e3" x="230.331429" y="307.584" style="stroke: #000000; stroke-width: 0.8"/>
      </g>
     </g>
     <g id="text_2">
      <!-- $\mathdefault{10^{1}}$ -->
      <g transform="translate(221.531429 322.182437) scale(0.1 -0.1)">
       <use xlink:href="#DejaVuSans-31" transform="translate(0 0.684375)"/>
       <use xlink:href="#DejaVuSans-30" transform="translate(63.623047 0.684375)"/>
       <use xlink:href="#DejaVuSans-31" transform="translate(128.203125 38.965625) scale(0.7)"/>
      </g>
     </g>
    </g>
    <g id="xtick_3">
     <g id="line2d_3">
      <g>
       <use xlink:href="#m28b7b4d3e3" x="350.619741" y="307.584" style="stroke: #000000; stroke-width: 0.8"/>
      </g>
     </g>
     <g id="text_3">
      <!-- $\mathdefault{10^{2}}$ -->
      <g transform="translate(341.819741 322.182437) scale(0.1 -0.1)">
       <defs>
        <path id="DejaVuSans-32" d="M 1228 531 
L 3431 531 
L 3431 0 
L 469 0 
L 469 531 
Q 828 903 1448 1529 
Q 2069 2156 2228 2338 
Q 2531 2678 2651 2914 
Q 2772 3150 2772 3378 
Q 2772 3750 2511 3984 
Q 2250 4219 1831 4219 
Q 1534 4219 1204 4116 
Q 875 4013 500 3803 
L 500 4441 
Q 881 4594 1212 4672 
Q 1544 4750 1819 4750 
Q 2544 4750 2975 4387 
Q 3406 4025 3406 3419 
Q 3406 3131 3298 2873 
Q 3191 2616 2906 2266 
Q 2828 2175 2409 1742 
Q 1991 1309 1228 531 
z
" transform="scale(0.015625)"/>
       </defs>
       <use xlink:href="#DejaVuSans-31" transform="translate(0 0.765625)"/>
       <use xlink:href="#DejaVuSans-30" transform="translate(63.623047 0.765625)"/>
       <use xlink:href="#DejaVuSans-32" transform="translate(128.203125 39.046875) scale(0.7)"/>
      </g>
     </g>
    </g>
    <g id="xtick_4">
     <g id="line2d_4">
      <defs>
       <path id="m0136cb72e4" d="M 0 0 
L 0 2 
" style="stroke: #000000; stroke-width: 0.6"/>
      </defs>
      <g>
       <use xlink:href="#m0136cb72e4" x="62.175585" y="307.584" style="stroke: #000000; stroke-width: 0.6"/>
      </g>
     </g>
    </g>
    <g id="xtick_5">
     <g id="line2d_5">
      <g>
       <use xlink:href="#m0136cb72e4" x="73.832727" y="307.584" style="stroke: #000000; stroke-width: 0.6"/>
      </g>
     </g>
    </g>
    <g id="xtick_6">
     <g id="line2d_6">
      <g>
       <use xlink:href="#m0136cb72e4" x="83.357306" y="307.584" style="stroke: #000000; stroke-width: 0.6"/>
      </g>
     </g>
    </g>
    <g id="xtick_7">
     <g id="line2d_7">
      <g>
       <use xlink:href="#m0136cb72e4" x="91.410222" y="307.584" style="stroke: #000000; stroke-width: 0.6"/>
      </g>
     </g>
    </g>
    <g id="xtick_8">
     <g id="line2d_8">
      <g>
       <use xlink:href="#m0136cb72e4" x="98.385975" y="307.584" style="stroke: #000000; stroke-width: 0.6"/>
      </g>
     </g>
    </g>
    <g id="xtick_9">
     <g id="line2d_9">
      <g>
       <use xlink:href="#m0136cb72e4" x="104.539026" y="307.584" style="stroke: #000000; stroke-width: 0.6"/>
      </g>
     </g>
    </g>
    <g id="xtick_10">
     <g id="line2d_10">
      <g>
       <use xlink:href="#m0136cb72e4" x="146.253507" y="307.584" style="stroke: #000000; stroke-width: 0.6"/>
      </g>
     </g>
    </g>
    <g id="xtick_11">
     <g id="line2d_11">
      <g>
       <use xlink:href="#m0136cb72e4" x="167.435228" y="307.584" style="stroke: #000000; stroke-width: 0.6"/>
      </g>
     </g>
    </g>
    <g id="xtick_12">
     <g id="line2d_12">
      <g>
       <use xlink:href="#m0136cb72e4" x="182.463897" y="307.584" style="stroke: #000000; stroke-width: 0.6"/>
      </g>
     </g>
    </g>
    <g id="xtick_13">
     <g id="line2d_13">
      <g>
       <use xlink:href="#m0136cb72e4" x="194.121039" y="307.584" style="stroke: #000000; stroke-width: 0.6"/>
      </g>
     </g>
    </g>
    <g id="xtick_14">
     <g id="line2d_14">
      <g>
       <use xlink:href="#m0136cb72e4" x="203.645617" y="307.584" style="stroke: #000000; stroke-width: 0.6"/>
      </g>
     </g>
    </g>
    <g id="xtick_15">
     <g id="line2d_15">
      <g>
       <use xlink:href="#m0136cb72e4" x="211.698534" y="307.584" style="stroke: #000000; stroke-width: 0.6"/>
      </g>
     </g>
    </g>
    <g id="xtick_16">
     <g id="line2d_16">
      <g>
       <use xlink:href="#m0136cb72e4" x="218.674287" y="307.584" style="stroke: #000000; stroke-width: 0.6"/>
      </g>
     </g>
    </g>
    <g id="xtick_17">
     <g id="line2d_17">
      <g>
       <use xlink:href="#m0136cb72e4" x="224.827338" y="307.584" style="stroke: #000000; stroke-width: 0.6"/>
      </g>
     </g>
    </g>
    <g id="xtick_18">
     <g id="line2d_18">
      <g>
       <use xlink:href="#m0136cb72e4" x="266.541819" y="307.584" style="stroke: #000000; stroke-width: 0.6"/>
      </g>
     </g>
    </g>
    <g id="xtick_19">
     <g id="line2d_19">
      <g>
       <use xlink:href="#m0136cb72e4" x="287.723539" y="307.584" style="stroke: #000000; stroke-width: 0.6"/>
      </g>
     </g>
    </g>
    <g id="xtick_20">
     <g id="line2d_20">
      <g>
       <use xlink:href="#m0136cb72e4" x="302.752209" y="307.584" style="stroke: #000000; stroke-width: 0.6"/>
      </g>
     </g>
    </g>
    <g id="xtick_21">
     <g id="line2d_21">
      <g>
       <use xlink:href="#m0136cb72e4" x="314.409351" y="307.584" style="stroke: #000000; stroke-width: 0.6"/>
      </g>
     </g>
    </g>
    <g id="xtick_22">
     <g id="line2d_22">
      <g>
       <use xlink:href="#m0136cb72e4" x="323.933929" y="307.584" style="stroke: #000000; stroke-width: 0.6"/>
      </g>
     </g>
    </g>
    <g id="xtick_23">
     <g id="line2d_23">
      <g>
       <use xlink:href="#m0136cb72e4" x="331.986846" y="307.584" style="stroke: #000000; stroke-width: 0.6"/>
      </g>
     </g>
    </g>
    <g id="xtick_24">
     <g id="line2d_24">
      <g>
       <use xlink:href="#m0136cb72e4" x="338.962599" y="307.584" style="stroke: #000000; stroke-width: 0.6"/>
      </g>
     </g>
    </g>
    <g id="xtick_25">
     <g id="line2d_25">
      <g>
       <use xlink:href="#m0136cb72e4" x="345.11565" y="307.584" style="stroke: #000000; stroke-width: 0.6"/>
      </g>
     </g>
    </g>
    <g id="xtick_26">
     <g id="line2d_26">
      <g>
       <use xlink:href="#m0136cb72e4" x="386.830131" y="307.584" style="stroke: #000000; stroke-width: 0.6"/>
      </g>
     </g>
    </g>
    <g id="xtick_27">
     <g id="line2d_27">
      <g>
       <use xlink:href="#m0136cb72e4" x="408.011851" y="307.584" style="stroke: #000000; stroke-width: 0.6"/>
      </g>
     </g>
    </g>
    <g id="text_4">
     <!-- f (Hz) -->
     <g transform="translate(222.524844 335.860562) scale(0.1 -0.1)">
      <defs>
       <path id="DejaVuSans-66" d="M 2375 4863 
L 2375 4384 
L 1825 4384 
Q 1516 4384 1395 4259 
Q 1275 4134 1275 3809 
L 1275 3500 
L 2222 3500 
L 2222 3053 
L 1275 3053 
L 1275 0 
L 697 0 
L 697 3053 
L 147 3053 
L 147 3500 
L 697 3500 
L 697 3744 
Q 697 4328 969 4595 
Q 1241 4863 1831 4863 
L 2375 4863 
z
" transform="scale(0.015625)"/>
       <path id="DejaVuSans-20" transform="scale(0.015625)"/>
       <path id="DejaVuSans-28" d="M 1984 4856 
Q 1566 4138 1362 3434 
Q 1159 2731 1159 2009 
Q 1159 1288 1364 580 
Q 1569 -128 1984 -844 
L 1484 -844 
Q 1016 -109 783 600 
Q 550 1309 550 2009 
Q 550 2706 781 3412 
Q 1013 4119 1484 4856 
L 1984 4856 
z
" transform="scale(0.015625)"/>
       <path id="DejaVuSans-48" d="M 628 4666 
L 1259 4666 
L 1259 2753 
L 3553 2753 
L 3553 4666 
L 4184 4666 
L 4184 0 
L 3553 0 
L 3553 2222 
L 1259 2222 
L 1259 0 
L 628 0 
L 628 4666 
z
" transform="scale(0.015625)"/>
       <path id="DejaVuSans-7a" d="M 353 3500 
L 3084 3500 
L 3084 2975 
L 922 459 
L 3084 459 
L 3084 0 
L 275 0 
L 275 525 
L 2438 3041 
L 353 3041 
L 353 3500 
z
" transform="scale(0.015625)"/>
       <path id="DejaVuSans-29" d="M 513 4856 
L 1013 4856 
Q 1481 4119 1714 3412 
Q 1947 2706 1947 2009 
Q 1947 1309 1714 600 
Q 1481 -109 1013 -844 
L 513 -844 
Q 928 -128 1133 580 
Q 1338 1288 1338 2009 
Q 1338 2731 1133 3434 
Q 928 4138 513 4856 
z
" transform="scale(0.015625)"/>
      </defs>
      <use xlink:href="#DejaVuSans-66"/>
      <use xlink:href="#DejaVuSans-20" x="35.205078"/>
      <use xlink:href="#DejaVuSans-28" x="66.992188"/>
      <use xlink:href="#DejaVuSans-48" x="106.005859"/>
      <use xlink:href="#DejaVuSans-7a" x="181.201172"/>
      <use xlink:href="#DejaVuSans-29" x="233.691406"/>
     </g>
    </g>
   </g>
   <g id="matplotlib.axis_2">
    <g id="ytick_1">
     <g id="line2d_28">
      <defs>
       <path id="mb4df6f235e" d="M 0 0 
L -3.5 0 
" style="stroke: #000000; stroke-width: 0.8"/>
      </defs>
      <g>
       <use xlink:href="#mb4df6f235e" x="57.6" y="287.995377" style="stroke: #000000; stroke-width: 0.8"/>
      </g>
     </g>
     <g id="text_5">
      <!-- −20 -->
      <g transform="translate(29.495313 291.794596) scale(0.1 -0.1)">
       <defs>
        <path id="DejaVuSans-2212" d="M 678 2272 
L 4684 2272 
L 4684 1741 
L 678 1741 
L 678 2272 
z
" transform="scale(0.015625)"/>
       </defs>
       <use xlink:href="#DejaVuSans-2212"/>
       <use xlink:href="#DejaVuSans-32" x="83.789062"/>
       <use xlink:href="#DejaVuSans-30" x="147.412109"/>
      </g>
     </g>
    </g>
    <g id="ytick_2">
     <g id="line2d_29">
      <g>
       <use xlink:href="#mb4df6f235e" x="57.6" y="245.554846" style="stroke: #000000; stroke-width: 0.8"/>
      </g>
     </g>
     <g id="text_6">
      <!-- 0 -->
      <g transform="translate(44.2375 249.354064) scale(0.1 -0.1)">
       <use xlink:href="#DejaVuSans-30"/>
      </g>
     </g>
    </g>
    <g id="ytick_3">
     <g id="line2d_30">
      <g>
       <use xlink:href="#mb4df6f235e" x="57.6" y="203.114314" style="stroke: #000000; stroke-width: 0.8"/>
      </g>
     </g>
     <g id="text_7">
      <!-- 20 -->
      <g transform="translate(37.875 206.913533) scale(0.1 -0.1)">
       <use xlink:href="#DejaVuSans-32"/>
       <use xlink:href="#DejaVuSans-30" x="63.623047"/>
      </g>
     </g>
    </g>
    <g id="ytick_4">
     <g id="line2d_31">
      <g>
       <use xlink:href="#mb4df6f235e" x="57.6" y="160.673782" style="stroke: #000000; stroke-width: 0.8"/>
      </g>
     </g>
     <g id="text_8">
      <!-- 40 -->
      <g transform="translate(37.875 164.473001) scale(0.1 -0.1)">
       <defs>
        <path id="DejaVuSans-34" d="M 2419 4116 
L 825 1625 
L 2419 1625 
L 2419 4116 
z
M 2253 4666 
L 3047 4666 
L 3047 1625 
L 3713 1625 
L 3713 1100 
L 3047 1100 
L 3047 0 
L 2419 0 
L 2419 1100 
L 313 1100 
L 313 1709 
L 2253 4666 
z
" transform="scale(0.015625)"/>
       </defs>
       <use xlink:href="#DejaVuSans-34"/>
       <use xlink:href="#DejaVuSans-30" x="63.623047"/>
      </g>
     </g>
    </g>
    <g id="ytick_5">
     <g id="line2d_32">
      <g>
       <use xlink:href="#mb4df6f235e" x="57.6" y="118.23325" style="stroke: #000000; stroke-width: 0.8"/>
      </g>
     </g>
     <g id="text_9">
      <!-- 60 -->
      <g transform="translate(37.875 122.032469) scale(0.1 -0.1)">
       <defs>
        <path id="DejaVuSans-36" d="M 2113 2584 
Q 1688 2584 1439 2293 
Q 1191 2003 1191 1497 
Q 1191 994 1439 701 
Q 1688 409 2113 409 
Q 2538 409 2786 701 
Q 3034 994 3034 1497 
Q 3034 2003 2786 2293 
Q 2538 2584 2113 2584 
z
M 3366 4563 
L 3366 3988 
Q 3128 4100 2886 4159 
Q 2644 4219 2406 4219 
Q 1781 4219 1451 3797 
Q 1122 3375 1075 2522 
Q 1259 2794 1537 2939 
Q 1816 3084 2150 3084 
Q 2853 3084 3261 2657 
Q 3669 2231 3669 1497 
Q 3669 778 3244 343 
Q 2819 -91 2113 -91 
Q 1303 -91 875 529 
Q 447 1150 447 2328 
Q 447 3434 972 4092 
Q 1497 4750 2381 4750 
Q 2619 4750 2861 4703 
Q 3103 4656 3366 4563 
z
" transform="scale(0.015625)"/>
       </defs>
       <use xlink:href="#DejaVuSans-36"/>
       <use xlink:href="#DejaVuSans-30" x="63.623047"/>
      </g>
     </g>
    </g>
    <g id="ytick_6">
     <g id="line2d_33">
      <g>
       <use xlink:href="#mb4df6f235e" x="57.6" y="75.792718" style="stroke: #000000; stroke-width: 0.8"/>
      </g>
     </g>
     <g id="text_10">
      <!-- 80 -->
      <g transform="translate(37.875 79.591937) scale(0.1 -0.1)">
       <defs>
        <path id="DejaVuSans-38" d="M 2034 2216 
Q 1584 2216 1326 1975 
Q 1069 1734 1069 1313 
Q 1069 891 1326 650 
Q 1584 409 2034 409 
Q 2484 409 2743 651 
Q 3003 894 3003 1313 
Q 3003 1734 2745 1975 
Q 2488 2216 2034 2216 
z
M 1403 2484 
Q 997 2584 770 2862 
Q 544 3141 544 3541 
Q 544 4100 942 4425 
Q 1341 4750 2034 4750 
Q 2731 4750 3128 4425 
Q 3525 4100 3525 3541 
Q 3525 3141 3298 2862 
Q 3072 2584 2669 2484 
Q 3125 2378 3379 2068 
Q 3634 1759 3634 1313 
Q 3634 634 3220 271 
Q 2806 -91 2034 -91 
Q 1263 -91 848 271 
Q 434 634 434 1313 
Q 434 1759 690 2068 
Q 947 2378 1403 2484 
z
M 1172 3481 
Q 1172 3119 1398 2916 
Q 1625 2713 2034 2713 
Q 2441 2713 2670 2916 
Q 2900 3119 2900 3481 
Q 2900 3844 2670 4047 
Q 2441 4250 2034 4250 
Q 1625 4250 1398 4047 
Q 1172 3844 1172 3481 
z
" transform="scale(0.015625)"/>
       </defs>
       <use xlink:href="#DejaVuSans-38"/>
       <use xlink:href="#DejaVuSans-30" x="63.623047"/>
      </g>
     </g>
    </g>
    <g id="text_11">
     <!-- dB -->
     <g transform="translate(23.415625 181.132688) rotate(-90) scale(0.1 -0.1)">
      <defs>
       <path id="DejaVuSans-64" d="M 2906 2969 
L 2906 4863 
L 3481 4863 
L 3481 0 
L 2906 0 
L 2906 525 
Q 2725 213 2448 61 
Q 2172 -91 1784 -91 
Q 1150 -91 751 415 
Q 353 922 353 1747 
Q 353 2572 751 3078 
Q 1150 3584 1784 3584 
Q 2172 3584 2448 3432 
Q 2725 3281 2906 2969 
z
M 947 1747 
Q 947 1113 1208 752 
Q 1469 391 1925 391 
Q 2381 391 2643 752 
Q 2906 1113 2906 1747 
Q 2906 2381 2643 2742 
Q 2381 3103 1925 3103 
Q 1469 3103 1208 2742 
Q 947 2381 947 1747 
z
" transform="scale(0.015625)"/>
       <path id="DejaVuSans-42" d="M 1259 2228 
L 1259 519 
L 2272 519 
Q 2781 519 3026 730 
Q 3272 941 3272 1375 
Q 3272 1813 3026 2020 
Q 2781 2228 2272 2228 
L 1259 2228 
z
M 1259 4147 
L 1259 2741 
L 2194 2741 
Q 2656 2741 2882 2914 
Q 3109 3088 3109 3444 
Q 3109 3797 2882 3972 
Q 2656 4147 2194 4147 
L 1259 4147 
z
M 628 4666 
L 2241 4666 
Q 2963 4666 3353 4366 
Q 3744 4066 3744 3513 
Q 3744 3084 3544 2831 
Q 3344 2578 2956 2516 
Q 3422 2416 3680 2098 
Q 3938 1781 3938 1306 
Q 3938 681 3513 340 
Q 3088 0 2303 0 
L 628 0 
L 628 4666 
z
" transform="scale(0.015625)"/>
      </defs>
      <use xlink:href="#DejaVuSans-64"/>
      <use xlink:href="#DejaVuSans-42" x="63.476562"/>
     </g>
    </g>
   </g>
   <g id="line2d_34">
    <path d="M -1 128.137908 
L 73.832727 128.128347 
L 110.043117 135.244993 
L 131.224838 139.599675 
L 146.253507 148.068204 
L 157.910649 151.659759 
L 167.435228 161.901474 
L 175.488144 164.884717 
L 182.463897 163.355761 
L 188.616948 179.767305 
L 194.121039 178.037344 
L 199.100095 204.328147 
L 203.645617 192.659045 
L 207.827093 202.455235 
L 211.698534 221.303901 
L 215.302759 213.200599 
L 218.674287 203.676851 
L 221.841351 201.086888 
L 224.827338 198.379159 
L 227.651839 183.583403 
L 230.331429 176.42892 
L 232.880254 164.33428 
L 235.310485 141.533643 
L 237.63267 65.058135 
L 239.856007 53.568 
L 241.988571 67.532162 
L 244.037483 144.619797 
L 246.009058 172.29369 
L 247.908924 191.849753 
L 249.742114 197.056752 
L 251.513149 201.684194 
L 253.226108 203.088969 
L 254.884677 222.985393 
L 256.492206 230.607684 
L 258.051741 224.755783 
L 259.566066 234.615289 
L 261.037728 217.783614 
L 262.469065 215.711035 
L 263.862229 235.25307 
L 265.219203 222.485071 
L 266.541819 207.577373 
L 267.831775 216.449743 
L 269.090644 215.095642 
L 270.31989 212.459579 
L 271.520875 203.450085 
L 272.69487 200.915659 
L 273.84306 179.507579 
L 274.966556 113.900537 
L 276.066397 103.64407 
L 277.14356 118.961788 
L 278.198961 181.827872 
L 279.233461 201.698447 
L 280.247873 206.347397 
L 281.242961 199.876535 
L 282.219448 189.474616 
L 283.178017 217.064126 
L 284.119314 210.690886 
L 285.043949 216.739648 
L 285.952504 223.841366 
L 286.845526 207.029716 
L 287.723539 208.978677 
L 288.587039 221.143799 
L 289.436498 231.252152 
L 290.272364 224.230241 
L 291.095067 214.44277 
L 291.905014 179.579914 
L 292.702596 174.807912 
L 293.488183 187.753434 
L 294.262131 205.114905 
L 295.02478 202.243796 
L 295.776456 184.133482 
L 296.517469 130.268011 
L 297.248118 121.216446 
L 297.968688 137.535351 
L 298.679455 195.441826 
L 299.380681 215.759189 
L 300.072619 232.151662 
L 300.755512 203.88291 
L 301.429593 201.005016 
L 302.095087 207.267117 
L 302.752209 227.521219 
L 303.401168 226.21833 
L 304.042165 239.052687 
L 304.675391 208.484904 
L 305.301034 207.869554 
L 305.919273 207.985708 
L 306.53028 214.731497 
L 307.134224 229.63909 
L 307.731265 222.117715 
L 308.32156 202.670995 
L 308.90526 200.574274 
L 309.482509 210.823032 
L 310.05345 211.79208 
L 310.618218 205.823244 
L 311.176946 201.379898 
L 311.729761 151.738129 
L 312.276787 144.674008 
L 312.818145 161.56985 
L 313.35395 202.167372 
L 313.884316 206.793323 
L 314.409351 214.897672 
L 314.929162 209.112108 
L 315.443851 205.692098 
L 315.953519 211.756456 
L 316.458263 234.233526 
L 316.958176 223.389105 
L 317.453351 209.071539 
L 317.943876 214.324356 
L 318.429838 205.316989 
L 318.911321 207.960876 
L 319.388407 208.221189 
L 319.861176 210.424783 
L 320.329704 203.757932 
L 320.794067 167.541305 
L 321.254339 165.699165 
L 322.162894 194.246688 
L 322.611313 197.978212 
L 323.055916 185.650611 
L 323.496767 138.399692 
L 323.933929 131.695192 
L 324.367463 149.366605 
L 324.797429 192.499312 
L 325.223885 204.846246 
L 325.646888 208.731839 
L 326.066493 184.465313 
L 326.482754 176.739747 
L 326.895725 191.605905 
L 327.305457 226.610759 
L 327.712 224.829948 
L 328.115404 205.620747 
L 328.515717 202.844076 
L 328.912986 206.535435 
L 329.307256 207.411257 
L 329.698573 203.824194 
L 330.08698 201.758569 
L 330.472521 192.300181 
L 330.855237 175.011462 
L 331.23517 168.024129 
L 331.61236 189.622477 
L 331.986846 195.811605 
L 332.358666 195.310211 
L 332.727859 182.167381 
L 333.094461 138.411283 
L 333.458508 133.265737 
L 333.820035 153.370058 
L 334.179078 202.274643 
L 334.535671 220.936858 
L 334.889845 219.200842 
L 335.241635 198.226983 
L 335.591071 192.132699 
L 336.283009 223.823217 
L 336.625571 214.521335 
L 336.965902 229.6077 
L 337.30403 201.099178 
L 337.639983 210.927462 
L 337.973789 207.129467 
L 338.305477 215.766105 
L 338.962599 196.343533 
L 339.288086 166.369156 
L 339.611558 169.437302 
L 339.93304 181.972141 
L 340.252555 184.423481 
L 340.570127 180.216311 
L 340.885781 157.62941 
L 341.199539 118.230902 
L 341.511424 113.961633 
L 341.821458 135.362164 
L 342.43606 207.935373 
L 342.74067 216.067095 
L 343.043515 197.198603 
L 343.344614 190.213994 
L 343.643987 208.480716 
L 343.941655 238.344803 
L 344.237636 237.05796 
L 344.53195 241.922878 
L 344.824615 213.634288 
L 345.11565 210.976716 
L 345.405072 237.147935 
L 345.692899 224.270285 
L 345.979149 245.535443 
L 346.546987 174.5943 
L 346.828608 174.776269 
L 347.387336 220.038189 
L 347.664475 216.653134 
L 347.940151 191.058308 
L 348.21438 153.538968 
L 348.487177 150.305756 
L 348.758558 173.46914 
L 349.028535 214.717832 
L 349.297125 235.554517 
L 349.56434 229.316098 
L 349.830196 219.523324 
L 350.094706 216.831876 
L 350.880293 234.566389 
L 351.39753 207.866278 
L 351.654241 209.055704 
L 351.909697 234.312947 
L 352.163909 241.569099 
L 352.41689 234.867107 
L 352.919207 199.44882 
L 353.168566 197.137934 
L 353.663741 233.491298 
L 353.909579 238.283322 
L 354.397812 172.208058 
L 354.640228 170.159366 
L 354.881524 194.476068 
L 355.121711 233.425095 
L 355.360799 233.662392 
L 355.835716 226.010107 
L 356.071565 256.526407 
L 356.306355 229.275436 
L 356.540094 247.053263 
L 356.772791 233.471265 
L 357.004457 226.619579 
L 357.2351 212.643157 
L 357.464729 221.797247 
L 357.693354 242.809044 
L 357.920982 245.730631 
L 358.147622 238.45392 
L 358.597974 234.062443 
L 358.821703 215.152637 
L 359.266306 218.831985 
L 359.487197 215.793384 
L 359.926196 153.678844 
L 360.144319 152.527781 
L 361.007819 244.180612 
L 361.221482 236.802622 
L 361.434275 238.267355 
L 361.857278 262.049029 
L 362.067502 253.200258 
L 362.276883 258.980048 
L 362.693144 237.795934 
L 362.900038 249.626206 
L 363.106115 254.113009 
L 363.311383 251.882335 
L 363.515847 236.788362 
L 363.719514 203.787486 
L 363.92239 209.255172 
L 364.124482 230.348413 
L 364.526334 214.82911 
L 364.925119 155.706382 
L 365.123376 155.528075 
L 365.71367 239.579287 
L 365.908962 244.216852 
L 366.103527 237.324888 
L 366.29737 224.361858 
L 366.490496 259.788952 
L 366.682911 245.384276 
L 366.874619 246.258346 
L 367.065627 251.362613 
L 367.255939 238.926613 
L 367.44556 241.485612 
L 367.634495 241.509734 
L 368.010328 260.359301 
L 368.383477 208.955293 
L 368.569056 214.583704 
L 368.753979 246.378206 
L 368.938249 239.698405 
L 369.121871 238.350187 
L 369.487191 172.203478 
L 369.668898 173.434482 
L 370.210255 253.859672 
L 370.568069 238.741181 
L 370.746061 230.920104 
L 370.923448 247.672501 
L 371.276426 260.660449 
L 371.452025 240.47073 
L 371.627035 241.163647 
L 371.801461 238.044247 
L 372.148576 251.438379 
L 372.321272 245.617651 
L 372.664961 202.848698 
L 372.835961 209.59734 
L 373.006404 244.279141 
L 373.176292 244.441194 
L 373.345629 241.697213 
L 373.682666 186.076811 
L 373.850373 188.368733 
L 374.350286 264.658694 
L 374.515867 269.701563 
L 374.680924 245.016631 
L 374.845461 241.523245 
L 375.009482 268.096268 
L 375.172989 265.522525 
L 375.335986 265.808178 
L 375.660463 233.040233 
L 375.821948 235.625657 
L 375.982936 248.500601 
L 376.14343 251.713868 
L 376.303431 250.238639 
L 376.462945 239.842106 
L 376.621972 214.737529 
L 376.938583 240.458933 
L 377.253286 231.004809 
L 377.566104 172.579637 
L 377.721814 175.838738 
L 378.186178 266.141645 
L 378.493476 239.235671 
L 378.64645 239.53687 
L 378.95106 269.076861 
L 379.253905 250.393932 
L 379.404671 231.031726 
L 379.555004 241.218768 
L 379.704905 269.869196 
L 379.854377 261.567363 
L 380.003423 264.501453 
L 380.300245 210.577018 
L 380.448026 217.10069 
L 380.74234 265.658488 
L 380.888878 253.588259 
L 381.180725 192.43978 
L 381.32604 197.521496 
L 381.615462 261.919609 
L 381.759574 275.780459 
L 381.903289 255.165369 
L 382.04661 254.606212 
L 382.189539 295.488 
L 382.332079 274.26108 
L 382.47423 275.795427 
L 382.898377 246.487088 
L 383.038998 242.080363 
L 383.179241 256.279525 
L 383.458603 256.902785 
L 383.736479 219.894661 
L 383.874865 227.8275 
L 384.012885 263.8894 
L 384.287836 242.772753 
L 384.561347 181.387243 
L 384.697567 186.116571 
L 384.968948 242.17033 
L 385.104111 266.96328 
L 385.373392 250.750998 
L 385.507515 250.753998 
L 385.641293 268.281815 
L 385.77473 265.084779 
L 385.907827 277.753039 
L 386.040586 267.55352 
L 386.173008 277.577312 
L 386.305096 270.480804 
L 386.43685 287.357613 
L 386.699366 259.802859 
L 386.960569 198.778185 
L 387.090683 208.911607 
L 387.220473 267.40774 
L 387.349942 273.261284 
L 387.47909 260.692916 
L 387.736433 203.522834 
L 387.864631 208.701389 
L 388.120087 257.162027 
L 388.374299 276.888009 
L 388.500943 245.742218 
L 388.62728 249.316084 
L 388.879042 276.013196 
L 389.129597 266.83775 
L 389.254425 272.396339 
L 389.378956 269.020287 
L 389.50319 260.400708 
L 389.62713 262.728984 
L 389.750776 260.186408 
L 389.997194 208.580292 
L 390.119969 218.530317 
L 390.242456 253.498356 
L 390.364656 252.93833 
L 390.486571 247.033878 
L 390.729551 195.864601 
L 390.850618 202.856729 
L 391.091914 263.9975 
L 391.212146 282.566665 
L 391.451782 247.865741 
L 391.571189 246.862829 
L 391.809187 290.39452 
L 392.164164 244.364359 
L 392.281955 254.042343 
L 392.399482 279.682814 
L 392.516745 277.234099 
L 392.633745 269.738908 
L 392.866962 211.860239 
L 392.983181 225.448311 
L 393.099143 270.75674 
L 393.214847 261.926413 
L 393.330296 267.171608 
L 393.560431 229.416662 
L 393.675119 236.718983 
L 393.789557 274.604825 
L 393.903744 275.278557 
L 394.017682 289.713779 
L 394.244815 260.9793 
L 394.583674 279.883036 
L 394.69614 295.282241 
L 394.920349 256.090876 
L 395.143599 286.338823 
L 395.3659 265.07218 
L 395.587258 201.289989 
L 395.697587 213.796665 
L 395.917547 262.298855 
L 396.027181 251.912862 
L 396.245761 193.540753 
L 396.354709 202.39021 
L 396.571926 257.564358 
L 396.680197 281.429261 
L 396.896067 259.800191 
L 397.003669 277.63558 
L 397.111049 272.175111 
L 397.218209 277.268758 
L 397.32515 288.86591 
L 397.538377 242.326149 
L 397.750737 279.752284 
L 397.962238 255.423715 
L 398.172885 192.056219 
L 398.277891 206.045538 
L 398.487273 257.622215 
L 398.487273 257.622215 
" clip-path="url(#p753f75e65c)" style="fill: none; stroke: #1f77b4; stroke-width: 1.5; stroke-linecap: square"/>
   </g>
   <g id="patch_3">
    <path d="M 57.6 307.584 
L 57.6 41.472 
" style="fill: none; stroke: #000000; stroke-width: 0.8; stroke-linejoin: miter; stroke-linecap: square"/>
   </g>
   <g id="patch_4">
    <path d="M 414.72 307.584 
L 414.72 41.472 
" style="fill: none; stroke: #000000; stroke-width: 0.8; stroke-linejoin: miter; stroke-linecap: square"/>
   </g>
   <g id="patch_5">
    <path d="M 57.6 307.584 
L 414.72 307.584 
" style="fill: none; stroke: #000000; stroke-width: 0.8; stroke-linejoin: miter; stroke-linecap: square"/>
   </g>
   <g id="patch_6">
    <path d="M 57.6 41.472 
L 414.72 41.472 
" style="fill: none; stroke: #000000; stroke-width: 0.8; stroke-linejoin: miter; stroke-linecap: square"/>
   </g>
   <g id="text_12">
    <!-- Obs1 PSD -->
    <g transform="translate(206.730937 35.472) scale(0.12 -0.12)">
     <defs>
      <path id="DejaVuSans-4f" d="M 2522 4238 
Q 1834 4238 1429 3725 
Q 1025 3213 1025 2328 
Q 1025 1447 1429 934 
Q 1834 422 2522 422 
Q 3209 422 3611 934 
Q 4013 1447 4013 2328 
Q 4013 3213 3611 3725 
Q 3209 4238 2522 4238 
z
M 2522 4750 
Q 3503 4750 4090 4092 
Q 4678 3434 4678 2328 
Q 4678 1225 4090 567 
Q 3503 -91 2522 -91 
Q 1538 -91 948 565 
Q 359 1222 359 2328 
Q 359 3434 948 4092 
Q 1538 4750 2522 4750 
z
" transform="scale(0.015625)"/>
      <path id="DejaVuSans-62" d="M 3116 1747 
Q 3116 2381 2855 2742 
Q 2594 3103 2138 3103 
Q 1681 3103 1420 2742 
Q 1159 2381 1159 1747 
Q 1159 1113 1420 752 
Q 1681 391 2138 391 
Q 2594 391 2855 752 
Q 3116 1113 3116 1747 
z
M 1159 2969 
Q 1341 3281 1617 3432 
Q 1894 3584 2278 3584 
Q 2916 3584 3314 3078 
Q 3713 2572 3713 1747 
Q 3713 922 3314 415 
Q 2916 -91 2278 -91 
Q 1894 -91 1617 61 
Q 1341 213 1159 525 
L 1159 0 
L 581 0 
L 581 4863 
L 1159 4863 
L 1159 2969 
z
" transform="scale(0.015625)"/>
      <path id="DejaVuSans-73" d="M 2834 3397 
L 2834 2853 
Q 2591 2978 2328 3040 
Q 2066 3103 1784 3103 
Q 1356 3103 1142 2972 
Q 928 2841 928 2578 
Q 928 2378 1081 2264 
Q 1234 2150 1697 2047 
L 1894 2003 
Q 2506 1872 2764 1633 
Q 3022 1394 3022 966 
Q 3022 478 2636 193 
Q 2250 -91 1575 -91 
Q 1294 -91 989 -36 
Q 684 19 347 128 
L 347 722 
Q 666 556 975 473 
Q 1284 391 1588 391 
Q 1994 391 2212 530 
Q 2431 669 2431 922 
Q 2431 1156 2273 1281 
Q 2116 1406 1581 1522 
L 1381 1569 
Q 847 1681 609 1914 
Q 372 2147 372 2553 
Q 372 3047 722 3315 
Q 1072 3584 1716 3584 
Q 2034 3584 2315 3537 
Q 2597 3491 2834 3397 
z
" transform="scale(0.015625)"/>
      <path id="DejaVuSans-50" d="M 1259 4147 
L 1259 2394 
L 2053 2394 
Q 2494 2394 2734 2622 
Q 2975 2850 2975 3272 
Q 2975 3691 2734 3919 
Q 2494 4147 2053 4147 
L 1259 4147 
z
M 628 4666 
L 2053 4666 
Q 2838 4666 3239 4311 
Q 3641 3956 3641 3272 
Q 3641 2581 3239 2228 
Q 2838 1875 2053 1875 
L 1259 1875 
L 1259 0 
L 628 0 
L 628 4666 
z
" transform="scale(0.015625)"/>
      <path id="DejaVuSans-53" d="M 3425 4513 
L 3425 3897 
Q 3066 4069 2747 4153 
Q 2428 4238 2131 4238 
Q 1616 4238 1336 4038 
Q 1056 3838 1056 3469 
Q 1056 3159 1242 3001 
Q 1428 2844 1947 2747 
L 2328 2669 
Q 3034 2534 3370 2195 
Q 3706 1856 3706 1288 
Q 3706 609 3251 259 
Q 2797 -91 1919 -91 
Q 1588 -91 1214 -16 
Q 841 59 441 206 
L 441 856 
Q 825 641 1194 531 
Q 1563 422 1919 422 
Q 2459 422 2753 634 
Q 3047 847 3047 1241 
Q 3047 1584 2836 1778 
Q 2625 1972 2144 2069 
L 1759 2144 
Q 1053 2284 737 2584 
Q 422 2884 422 3419 
Q 422 4038 858 4394 
Q 1294 4750 2059 4750 
Q 2388 4750 2728 4690 
Q 3069 4631 3425 4513 
z
" transform="scale(0.015625)"/>
      <path id="DejaVuSans-44" d="M 1259 4147 
L 1259 519 
L 2022 519 
Q 2988 519 3436 956 
Q 3884 1394 3884 2338 
Q 3884 3275 3436 3711 
Q 2988 4147 2022 4147 
L 1259 4147 
z
M 628 4666 
L 1925 4666 
Q 3281 4666 3915 4102 
Q 4550 3538 4550 2338 
Q 4550 1131 3912 565 
Q 3275 0 1925 0 
L 628 0 
L 628 4666 
z
" transform="scale(0.015625)"/>
     </defs>
     <use xlink:href="#DejaVuSans-4f"/>
     <use xlink:href="#DejaVuSans-62" x="78.710938"/>
     <use xlink:href="#DejaVuSans-73" x="142.1875"/>
     <use xlink:href="#DejaVuSans-31" x="194.287109"/>
     <use xlink:href="#DejaVuSans-20" x="257.910156"/>
     <use xlink:href="#DejaVuSans-50" x="289.697266"/>
     <use xlink:href="#DejaVuSans-53" x="350"/>
     <use xlink:href="#DejaVuSans-44" x="413.476562"/>
    </g>
   </g>
  </g>
 </g>
 <defs>
  <clipPath id="p753f75e65c">
   <rect x="57.6" y="41.472" width="357.12" height="266.112"/>
  </clipPath>
 </defs>
</svg>
