<?xml version="1.0" encoding="utf-8" standalone="no"?>
<!DOCTYPE svg PUBLIC "-//W3C//DTD SVG 1.1//EN"
  "http://www.w3.org/Graphics/SVG/1.1/DTD/svg11.dtd">
<svg xmlns:xlink="http://www.w3.org/1999/xlink" width="460.8pt" height="345.6pt" viewBox="0 0 460.8 345.6" xmlns="http://www.w3.org/2000/svg" version="1.1">
 <metadata>
  <rdf:RDF xmlns:dc="http://purl.org/dc/elements/1.1/" xmlns:cc="http://creativecommons.org/ns#" xmlns:rdf="http://www.w3.org/1999/02/22-rdf-syntax-ns#">
   <cc:Work>
    <dc:type rdf:resource="http://purl.org/dc/dcmitype/StillImage"/>
    <dc:date>2025-01-10T16:39:48.836134</dc:date>
    <dc:format>image/svg+xml</dc:format>
    <dc:creator>
     <cc:Agent>
      <dc:title>Matplotlib v3.7.0, https://matplotlib.org/</dc:title>
     </cc:Agent>
    </dc:creator>
   </cc:Work>
  </rdf:RDF>
 </metadata>
 <defs>
  <style type="text/css">*{stroke-linejoin: round; stroke-linecap: butt}</style>
 </defs>
 <g id="figure_1">
  <g id="patch_1">
   <path d="M 0 345.6 
L 460.8 345.6 
L 460.8 0 
L 0 0 
z
" style="fill: #ffffff"/>
  </g>
  <g id="axes_1">
   <g id="patch_2">
    <path d="M 57.6 307.584 
L 414.72 307.584 
L 414.72 41.472 
L 57.6 41.472 
z
" style="fill: #ffffff"/>
   </g>
   <g id="matplotlib.axis_1">
    <g id="xtick_1">
     <g id="line2d_1">
      <defs>
       <path id="ma3894af289" d="M 0 0 
L 0 3.5 
" style="stroke: #000000; stroke-width: 0.8"/>
      </defs>
      <g>
       <use xlink:href="#ma3894af289" x="110.043117" y="307.584" style="stroke: #000000; stroke-width: 0.8"/>
      </g>
     </g>
     <g id="text_1">
      <!-- $\mathdefault{10^{0}}$ -->
      <g transform="translate(101.243117 322.182437) scale(0.1 -0.1)">
       <defs>
        <path id="DejaVuSans-31" d="M 794 531 
L 1825 531 
L 1825 4091 
L 703 3866 
L 703 4441 
L 1819 4666 
L 2450 4666 
L 2450 531 
L 3481 531 
L 3481 0 
L 794 0 
L 794 531 
z
" transform="scale(0.015625)"/>
        <path id="DejaVuSans-30" d="M 2034 4250 
Q 1547 4250 1301 3770 
Q 1056 3291 1056 2328 
Q 1056 1369 1301 889 
Q 1547 409 2034 409 
Q 2525 409 2770 889 
Q 3016 1369 3016 2328 
Q 3016 3291 2770 3770 
Q 2525 4250 2034 4250 
z
M 2034 4750 
Q 2819 4750 3233 4129 
Q 3647 3509 3647 2328 
Q 3647 1150 3233 529 
Q 2819 -91 2034 -91 
Q 1250 -91 836 529 
Q 422 1150 422 2328 
Q 422 3509 836 4129 
Q 1250 4750 2034 4750 
z
" transform="scale(0.015625)"/>
       </defs>
       <use xlink:href="#DejaVuSans-31" transform="translate(0 0.765625)"/>
       <use xlink:href="#DejaVuSans-30" transform="translate(63.623047 0.765625)"/>
       <use xlink:href="#DejaVuSans-30" transform="translate(128.203125 39.046875) scale(0.7)"/>
      </g>
     </g>
    </g>
    <g id="xtick_2">
     <g id="line2d_2">
      <g>
       <use xlink:href="#ma3894af289" x="230.331429" y="307.584" style="stroke: #000000; stroke-width: 0.8"/>
      </g>
     </g>
     <g id="text_2">
      <!-- $\mathdefault{10^{1}}$ -->
      <g transform="translate(221.531429 322.182437) scale(0.1 -0.1)">
       <use xlink:href="#DejaVuSans-31" transform="translate(0 0.684375)"/>
       <use xlink:href="#DejaVuSans-30" transform="translate(63.623047 0.684375)"/>
       <use xlink:href="#DejaVuSans-31" transform="translate(128.203125 38.965625) scale(0.7)"/>
      </g>
     </g>
    </g>
    <g id="xtick_3">
     <g id="line2d_3">
      <g>
       <use xlink:href="#ma3894af289" x="350.619741" y="307.584" style="stroke: #000000; stroke-width: 0.8"/>
      </g>
     </g>
     <g id="text_3">
      <!-- $\mathdefault{10^{2}}$ -->
      <g transform="translate(341.819741 322.182437) scale(0.1 -0.1)">
       <defs>
        <path id="DejaVuSans-32" d="M 1228 531 
L 3431 531 
L 3431 0 
L 469 0 
L 469 531 
Q 828 903 1448 1529 
Q 2069 2156 2228 2338 
Q 2531 2678 2651 2914 
Q 2772 3150 2772 3378 
Q 2772 3750 2511 3984 
Q 2250 4219 1831 4219 
Q 1534 4219 1204 4116 
Q 875 4013 500 3803 
L 500 4441 
Q 881 4594 1212 4672 
Q 1544 4750 1819 4750 
Q 2544 4750 2975 4387 
Q 3406 4025 3406 3419 
Q 3406 3131 3298 2873 
Q 3191 2616 2906 2266 
Q 2828 2175 2409 1742 
Q 1991 1309 1228 531 
z
" transform="scale(0.015625)"/>
       </defs>
       <use xlink:href="#DejaVuSans-31" transform="translate(0 0.765625)"/>
       <use xlink:href="#DejaVuSans-30" transform="translate(63.623047 0.765625)"/>
       <use xlink:href="#DejaVuSans-32" transform="translate(128.203125 39.046875) scale(0.7)"/>
      </g>
     </g>
    </g>
    <g id="xtick_4">
     <g id="line2d_4">
      <defs>
       <path id="mf15a66a916" d="M 0 0 
L 0 2 
" style="stroke: #000000; stroke-width: 0.6"/>
      </defs>
      <g>
       <use xlink:href="#mf15a66a916" x="62.175585" y="307.584" style="stroke: #000000; stroke-width: 0.6"/>
      </g>
     </g>
    </g>
    <g id="xtick_5">
     <g id="line2d_5">
      <g>
       <use xlink:href="#mf15a66a916" x="73.832727" y="307.584" style="stroke: #000000; stroke-width: 0.6"/>
      </g>
     </g>
    </g>
    <g id="xtick_6">
     <g id="line2d_6">
      <g>
       <use xlink:href="#mf15a66a916" x="83.357306" y="307.584" style="stroke: #000000; stroke-width: 0.6"/>
      </g>
     </g>
    </g>
    <g id="xtick_7">
     <g id="line2d_7">
      <g>
       <use xlink:href="#mf15a66a916" x="91.410222" y="307.584" style="stroke: #000000; stroke-width: 0.6"/>
      </g>
     </g>
    </g>
    <g id="xtick_8">
     <g id="line2d_8">
      <g>
       <use xlink:href="#mf15a66a916" x="98.385975" y="307.584" style="stroke: #000000; stroke-width: 0.6"/>
      </g>
     </g>
    </g>
    <g id="xtick_9">
     <g id="line2d_9">
      <g>
       <use xlink:href="#mf15a66a916" x="104.539026" y="307.584" style="stroke: #000000; stroke-width: 0.6"/>
      </g>
     </g>
    </g>
    <g id="xtick_10">
     <g id="line2d_10">
      <g>
       <use xlink:href="#mf15a66a916" x="146.253507" y="307.584" style="stroke: #000000; stroke-width: 0.6"/>
      </g>
     </g>
    </g>
    <g id="xtick_11">
     <g id="line2d_11">
      <g>
       <use xlink:href="#mf15a66a916" x="167.435228" y="307.584" style="stroke: #000000; stroke-width: 0.6"/>
      </g>
     </g>
    </g>
    <g id="xtick_12">
     <g id="line2d_12">
      <g>
       <use xlink:href="#mf15a66a916" x="182.463897" y="307.584" style="stroke: #000000; stroke-width: 0.6"/>
      </g>
     </g>
    </g>
    <g id="xtick_13">
     <g id="line2d_13">
      <g>
       <use xlink:href="#mf15a66a916" x="194.121039" y="307.584" style="stroke: #000000; stroke-width: 0.6"/>
      </g>
     </g>
    </g>
    <g id="xtick_14">
     <g id="line2d_14">
      <g>
       <use xlink:href="#mf15a66a916" x="203.645617" y="307.584" style="stroke: #000000; stroke-width: 0.6"/>
      </g>
     </g>
    </g>
    <g id="xtick_15">
     <g id="line2d_15">
      <g>
       <use xlink:href="#mf15a66a916" x="211.698534" y="307.584" style="stroke: #000000; stroke-width: 0.6"/>
      </g>
     </g>
    </g>
    <g id="xtick_16">
     <g id="line2d_16">
      <g>
       <use xlink:href="#mf15a66a916" x="218.674287" y="307.584" style="stroke: #000000; stroke-width: 0.6"/>
      </g>
     </g>
    </g>
    <g id="xtick_17">
     <g id="line2d_17">
      <g>
       <use xlink:href="#mf15a66a916" x="224.827338" y="307.584" style="stroke: #000000; stroke-width: 0.6"/>
      </g>
     </g>
    </g>
    <g id="xtick_18">
     <g id="line2d_18">
      <g>
       <use xlink:href="#mf15a66a916" x="266.541819" y="307.584" style="stroke: #000000; stroke-width: 0.6"/>
      </g>
     </g>
    </g>
    <g id="xtick_19">
     <g id="line2d_19">
      <g>
       <use xlink:href="#mf15a66a916" x="287.723539" y="307.584" style="stroke: #000000; stroke-width: 0.6"/>
      </g>
     </g>
    </g>
    <g id="xtick_20">
     <g id="line2d_20">
      <g>
       <use xlink:href="#mf15a66a916" x="302.752209" y="307.584" style="stroke: #000000; stroke-width: 0.6"/>
      </g>
     </g>
    </g>
    <g id="xtick_21">
     <g id="line2d_21">
      <g>
       <use xlink:href="#mf15a66a916" x="314.409351" y="307.584" style="stroke: #000000; stroke-width: 0.6"/>
      </g>
     </g>
    </g>
    <g id="xtick_22">
     <g id="line2d_22">
      <g>
       <use xlink:href="#mf15a66a916" x="323.933929" y="307.584" style="stroke: #000000; stroke-width: 0.6"/>
      </g>
     </g>
    </g>
    <g id="xtick_23">
     <g id="line2d_23">
      <g>
       <use xlink:href="#mf15a66a916" x="331.986846" y="307.584" style="stroke: #000000; stroke-width: 0.6"/>
      </g>
     </g>
    </g>
    <g id="xtick_24">
     <g id="line2d_24">
      <g>
       <use xlink:href="#mf15a66a916" x="338.962599" y="307.584" style="stroke: #000000; stroke-width: 0.6"/>
      </g>
     </g>
    </g>
    <g id="xtick_25">
     <g id="line2d_25">
      <g>
       <use xlink:href="#mf15a66a916" x="345.11565" y="307.584" style="stroke: #000000; stroke-width: 0.6"/>
      </g>
     </g>
    </g>
    <g id="xtick_26">
     <g id="line2d_26">
      <g>
       <use xlink:href="#mf15a66a916" x="386.830131" y="307.584" style="stroke: #000000; stroke-width: 0.6"/>
      </g>
     </g>
    </g>
    <g id="xtick_27">
     <g id="line2d_27">
      <g>
       <use xlink:href="#mf15a66a916" x="408.011851" y="307.584" style="stroke: #000000; stroke-width: 0.6"/>
      </g>
     </g>
    </g>
    <g id="text_4">
     <!-- f (Hz) -->
     <g transform="translate(222.524844 335.860562) scale(0.1 -0.1)">
      <defs>
       <path id="DejaVuSans-66" d="M 2375 4863 
L 2375 4384 
L 1825 4384 
Q 1516 4384 1395 4259 
Q 1275 4134 1275 3809 
L 1275 3500 
L 2222 3500 
L 2222 3053 
L 1275 3053 
L 1275 0 
L 697 0 
L 697 3053 
L 147 3053 
L 147 3500 
L 697 3500 
L 697 3744 
Q 697 4328 969 4595 
Q 1241 4863 1831 4863 
L 2375 4863 
z
" transform="scale(0.015625)"/>
       <path id="DejaVuSans-20" transform="scale(0.015625)"/>
       <path id="DejaVuSans-28" d="M 1984 4856 
Q 1566 4138 1362 3434 
Q 1159 2731 1159 2009 
Q 1159 1288 1364 580 
Q 1569 -128 1984 -844 
L 1484 -844 
Q 1016 -109 783 600 
Q 550 1309 550 2009 
Q 550 2706 781 3412 
Q 1013 4119 1484 4856 
L 1984 4856 
z
" transform="scale(0.015625)"/>
       <path id="DejaVuSans-48" d="M 628 4666 
L 1259 4666 
L 1259 2753 
L 3553 2753 
L 3553 4666 
L 4184 4666 
L 4184 0 
L 3553 0 
L 3553 2222 
L 1259 2222 
L 1259 0 
L 628 0 
L 628 4666 
z
" transform="scale(0.015625)"/>
       <path id="DejaVuSans-7a" d="M 353 3500 
L 3084 3500 
L 3084 2975 
L 922 459 
L 3084 459 
L 3084 0 
L 275 0 
L 275 525 
L 2438 3041 
L 353 3041 
L 353 3500 
z
" transform="scale(0.015625)"/>
       <path id="DejaVuSans-29" d="M 513 4856 
L 1013 4856 
Q 1481 4119 1714 3412 
Q 1947 2706 1947 2009 
Q 1947 1309 1714 600 
Q 1481 -109 1013 -844 
L 513 -844 
Q 928 -128 1133 580 
Q 1338 1288 1338 2009 
Q 1338 2731 1133 3434 
Q 928 4138 513 4856 
z
" transform="scale(0.015625)"/>
      </defs>
      <use xlink:href="#DejaVuSans-66"/>
      <use xlink:href="#DejaVuSans-20" x="35.205078"/>
      <use xlink:href="#DejaVuSans-28" x="66.992188"/>
      <use xlink:href="#DejaVuSans-48" x="106.005859"/>
      <use xlink:href="#DejaVuSans-7a" x="181.201172"/>
      <use xlink:href="#DejaVuSans-29" x="233.691406"/>
     </g>
    </g>
   </g>
   <g id="matplotlib.axis_2">
    <g id="ytick_1">
     <g id="line2d_28">
      <defs>
       <path id="maa69edaaa3" d="M 0 0 
L -3.5 0 
" style="stroke: #000000; stroke-width: 0.8"/>
      </defs>
      <g>
       <use xlink:href="#maa69edaaa3" x="57.6" y="267.313334" style="stroke: #000000; stroke-width: 0.8"/>
      </g>
     </g>
     <g id="text_5">
      <!-- 0 -->
      <g transform="translate(44.2375 271.112553) scale(0.1 -0.1)">
       <use xlink:href="#DejaVuSans-30"/>
      </g>
     </g>
    </g>
    <g id="ytick_2">
     <g id="line2d_29">
      <g>
       <use xlink:href="#maa69edaaa3" x="57.6" y="214.658734" style="stroke: #000000; stroke-width: 0.8"/>
      </g>
     </g>
     <g id="text_6">
      <!-- 20 -->
      <g transform="translate(37.875 218.457953) scale(0.1 -0.1)">
       <use xlink:href="#DejaVuSans-32"/>
       <use xlink:href="#DejaVuSans-30" x="63.623047"/>
      </g>
     </g>
    </g>
    <g id="ytick_3">
     <g id="line2d_30">
      <g>
       <use xlink:href="#maa69edaaa3" x="57.6" y="162.004134" style="stroke: #000000; stroke-width: 0.8"/>
      </g>
     </g>
     <g id="text_7">
      <!-- 40 -->
      <g transform="translate(37.875 165.803353) scale(0.1 -0.1)">
       <defs>
        <path id="DejaVuSans-34" d="M 2419 4116 
L 825 1625 
L 2419 1625 
L 2419 4116 
z
M 2253 4666 
L 3047 4666 
L 3047 1625 
L 3713 1625 
L 3713 1100 
L 3047 1100 
L 3047 0 
L 2419 0 
L 2419 1100 
L 313 1100 
L 313 1709 
L 2253 4666 
z
" transform="scale(0.015625)"/>
       </defs>
       <use xlink:href="#DejaVuSans-34"/>
       <use xlink:href="#DejaVuSans-30" x="63.623047"/>
      </g>
     </g>
    </g>
    <g id="ytick_4">
     <g id="line2d_31">
      <g>
       <use xlink:href="#maa69edaaa3" x="57.6" y="109.349534" style="stroke: #000000; stroke-width: 0.8"/>
      </g>
     </g>
     <g id="text_8">
      <!-- 60 -->
      <g transform="translate(37.875 113.148753) scale(0.1 -0.1)">
       <defs>
        <path id="DejaVuSans-36" d="M 2113 2584 
Q 1688 2584 1439 2293 
Q 1191 2003 1191 1497 
Q 1191 994 1439 701 
Q 1688 409 2113 409 
Q 2538 409 2786 701 
Q 3034 994 3034 1497 
Q 3034 2003 2786 2293 
Q 2538 2584 2113 2584 
z
M 3366 4563 
L 3366 3988 
Q 3128 4100 2886 4159 
Q 2644 4219 2406 4219 
Q 1781 4219 1451 3797 
Q 1122 3375 1075 2522 
Q 1259 2794 1537 2939 
Q 1816 3084 2150 3084 
Q 2853 3084 3261 2657 
Q 3669 2231 3669 1497 
Q 3669 778 3244 343 
Q 2819 -91 2113 -91 
Q 1303 -91 875 529 
Q 447 1150 447 2328 
Q 447 3434 972 4092 
Q 1497 4750 2381 4750 
Q 2619 4750 2861 4703 
Q 3103 4656 3366 4563 
z
" transform="scale(0.015625)"/>
       </defs>
       <use xlink:href="#DejaVuSans-36"/>
       <use xlink:href="#DejaVuSans-30" x="63.623047"/>
      </g>
     </g>
    </g>
    <g id="ytick_5">
     <g id="line2d_32">
      <g>
       <use xlink:href="#maa69edaaa3" x="57.6" y="56.694934" style="stroke: #000000; stroke-width: 0.8"/>
      </g>
     </g>
     <g id="text_9">
      <!-- 80 -->
      <g transform="translate(37.875 60.494153) scale(0.1 -0.1)">
       <defs>
        <path id="DejaVuSans-38" d="M 2034 2216 
Q 1584 2216 1326 1975 
Q 1069 1734 1069 1313 
Q 1069 891 1326 650 
Q 1584 409 2034 409 
Q 2484 409 2743 651 
Q 3003 894 3003 1313 
Q 3003 1734 2745 1975 
Q 2488 2216 2034 2216 
z
M 1403 2484 
Q 997 2584 770 2862 
Q 544 3141 544 3541 
Q 544 4100 942 4425 
Q 1341 4750 2034 4750 
Q 2731 4750 3128 4425 
Q 3525 4100 3525 3541 
Q 3525 3141 3298 2862 
Q 3072 2584 2669 2484 
Q 3125 2378 3379 2068 
Q 3634 1759 3634 1313 
Q 3634 634 3220 271 
Q 2806 -91 2034 -91 
Q 1263 -91 848 271 
Q 434 634 434 1313 
Q 434 1759 690 2068 
Q 947 2378 1403 2484 
z
M 1172 3481 
Q 1172 3119 1398 2916 
Q 1625 2713 2034 2713 
Q 2441 2713 2670 2916 
Q 2900 3119 2900 3481 
Q 2900 3844 2670 4047 
Q 2441 4250 2034 4250 
Q 1625 4250 1398 4047 
Q 1172 3844 1172 3481 
z
" transform="scale(0.015625)"/>
       </defs>
       <use xlink:href="#DejaVuSans-38"/>
       <use xlink:href="#DejaVuSans-30" x="63.623047"/>
      </g>
     </g>
    </g>
    <g id="text_10">
     <!-- dB -->
     <g transform="translate(31.795313 181.132688) rotate(-90) scale(0.1 -0.1)">
      <defs>
       <path id="DejaVuSans-64" d="M 2906 2969 
L 2906 4863 
L 3481 4863 
L 3481 0 
L 2906 0 
L 2906 525 
Q 2725 213 2448 61 
Q 2172 -91 1784 -91 
Q 1150 -91 751 415 
Q 353 922 353 1747 
Q 353 2572 751 3078 
Q 1150 3584 1784 3584 
Q 2172 3584 2448 3432 
Q 2725 3281 2906 2969 
z
M 947 1747 
Q 947 1113 1208 752 
Q 1469 391 1925 391 
Q 2381 391 2643 752 
Q 2906 1113 2906 1747 
Q 2906 2381 2643 2742 
Q 2381 3103 1925 3103 
Q 1469 3103 1208 2742 
Q 947 2381 947 1747 
z
" transform="scale(0.015625)"/>
       <path id="DejaVuSans-42" d="M 1259 2228 
L 1259 519 
L 2272 519 
Q 2781 519 3026 730 
Q 3272 941 3272 1375 
Q 3272 1813 3026 2020 
Q 2781 2228 2272 2228 
L 1259 2228 
z
M 1259 4147 
L 1259 2741 
L 2194 2741 
Q 2656 2741 2882 2914 
Q 3109 3088 3109 3444 
Q 3109 3797 2882 3972 
Q 2656 4147 2194 4147 
L 1259 4147 
z
M 628 4666 
L 2241 4666 
Q 2963 4666 3353 4366 
Q 3744 4066 3744 3513 
Q 3744 3084 3544 2831 
Q 3344 2578 2956 2516 
Q 3422 2416 3680 2098 
Q 3938 1781 3938 1306 
Q 3938 681 3513 340 
Q 3088 0 2303 0 
L 628 0 
L 628 4666 
z
" transform="scale(0.015625)"/>
      </defs>
      <use xlink:href="#DejaVuSans-64"/>
      <use xlink:href="#DejaVuSans-42" x="63.476562"/>
     </g>
    </g>
   </g>
   <g id="line2d_33">
    <path d="M -1 63.455859 
L 73.832727 63.421126 
L 110.043117 68.854866 
L 131.224838 89.530289 
L 146.253507 111.088498 
L 157.910649 128.766839 
L 167.435228 136.816056 
L 175.488144 147.063364 
L 182.463897 169.217254 
L 188.616948 179.189845 
L 194.121039 198.420813 
L 199.100095 200.415567 
L 203.645617 210.979514 
L 207.827093 208.119742 
L 211.698534 194.402261 
L 215.302759 172.482512 
L 221.841351 134.067414 
L 224.827338 103.636909 
L 227.651839 81.604865 
L 230.331429 67.54515 
L 232.880254 59.488831 
L 235.310485 55.688537 
L 237.63267 54.154462 
L 239.856007 53.568 
L 241.988571 53.953388 
L 244.037483 55.229448 
L 246.009058 58.866821 
L 247.908924 67.690433 
L 249.742114 84.400488 
L 251.513149 112.633195 
L 253.226108 153.346745 
L 254.884677 169.58691 
L 256.492206 195.182578 
L 258.051741 203.945531 
L 259.566066 217.017576 
L 261.037728 179.188209 
L 263.862229 133.166686 
L 265.219203 120.377422 
L 266.541819 112.89245 
L 267.831775 109.523411 
L 269.090644 110.300511 
L 271.520875 114.746996 
L 272.69487 117.903666 
L 273.84306 121.431835 
L 274.966556 125.389847 
L 276.066397 131.048321 
L 277.14356 138.869273 
L 279.233461 160.083808 
L 280.247873 141.230775 
L 281.242961 126.32466 
L 282.219448 115.877511 
L 283.178017 108.612661 
L 284.119314 107.427132 
L 285.043949 114.052782 
L 285.952504 130.883521 
L 286.845526 156.41625 
L 287.723539 171.139498 
L 288.587039 157.317446 
L 290.272364 147.425543 
L 291.905014 143.763575 
L 292.702596 144.853853 
L 293.488183 145.575388 
L 294.262131 149.145909 
L 295.02478 148.80299 
L 295.776456 146.798656 
L 296.517469 143.654156 
L 297.248118 141.807795 
L 297.968688 142.001463 
L 298.679455 142.419964 
L 299.380681 145.74078 
L 300.072619 151.684704 
L 300.755512 160.138318 
L 301.429593 165.503863 
L 302.095087 163.911661 
L 302.752209 159.223831 
L 303.401168 162.235358 
L 304.042165 178.799796 
L 304.675391 183.021877 
L 305.301034 165.441816 
L 305.919273 165.806822 
L 306.53028 188.971577 
L 307.134224 191.561646 
L 307.731265 204.361287 
L 308.32156 198.690411 
L 308.90526 195.249272 
L 309.482509 192.961758 
L 310.05345 204.460256 
L 310.618218 209.388864 
L 311.729761 226.526525 
L 312.276787 246.078253 
L 312.818145 222.297293 
L 313.35395 221.405491 
L 313.884316 203.221477 
L 314.929162 186.441276 
L 315.443851 192.427389 
L 315.953519 195.346682 
L 316.458263 219.784209 
L 317.453351 181.987524 
L 317.943876 185.740934 
L 318.429838 187.505183 
L 318.911321 181.393285 
L 319.388407 190.236895 
L 319.861176 185.570811 
L 320.329704 173.828406 
L 320.794067 175.205154 
L 321.254339 164.812445 
L 321.710592 178.19838 
L 322.611313 175.042512 
L 323.055916 178.475472 
L 323.933929 190.328604 
L 324.367463 197.65468 
L 325.223885 181.381117 
L 325.646888 176.891412 
L 326.066493 176.492067 
L 326.482754 173.614609 
L 327.305457 176.508193 
L 328.115404 187.741681 
L 328.515717 203.263115 
L 328.912986 231.434394 
L 329.307256 201.269574 
L 330.855237 168.848999 
L 331.61236 157.563567 
L 331.986846 151.338138 
L 332.358666 149.925213 
L 332.727859 156.818769 
L 333.820035 214.853524 
L 334.179078 201.695182 
L 334.535671 196.149864 
L 334.889845 192.738583 
L 335.241635 197.223825 
L 335.591071 206.873345 
L 335.938186 220.615661 
L 336.283009 222.426589 
L 336.625571 228.354987 
L 336.965902 222.29098 
L 337.30403 224.202625 
L 337.639983 213.270546 
L 337.973789 210.201643 
L 338.305477 229.109724 
L 338.635071 236.370579 
L 338.962599 213.049704 
L 339.611558 201.37979 
L 340.252555 178.190631 
L 340.570127 173.075949 
L 341.199539 178.653601 
L 341.511424 171.398156 
L 341.821458 175.255967 
L 342.129663 199.918314 
L 342.74067 225.031335 
L 343.043515 252.267941 
L 343.344614 246.202331 
L 343.643987 229.648391 
L 343.941655 230.233019 
L 344.237636 225.266207 
L 344.53195 215.100158 
L 344.824615 212.089835 
L 345.11565 219.890493 
L 345.405072 236.287508 
L 345.692899 220.736241 
L 345.979149 223.446524 
L 346.26384 258.705835 
L 346.546987 224.056394 
L 346.828608 214.337174 
L 347.108719 209.466008 
L 347.387336 211.640455 
L 347.664475 217.296375 
L 348.21438 200.955624 
L 348.487177 193.795494 
L 348.758558 193.251727 
L 349.028535 197.300435 
L 349.297125 212.916406 
L 349.56434 214.554202 
L 349.830196 211.942298 
L 350.094706 220.145585 
L 350.357883 218.237741 
L 350.619741 229.445311 
L 350.880293 224.179279 
L 351.139552 221.687901 
L 351.39753 217.032931 
L 351.654241 216.016022 
L 351.909697 227.888792 
L 352.163909 225.677832 
L 352.41689 217.215261 
L 352.668653 223.122431 
L 352.919207 226.148316 
L 353.41674 238.629545 
L 353.663741 224.905581 
L 353.909579 230.123535 
L 354.154266 228.856427 
L 355.121711 193.487106 
L 355.360799 194.081638 
L 355.598797 203.605318 
L 355.835716 199.618317 
L 356.071565 199.279334 
L 356.306355 219.428787 
L 356.772791 185.027001 
L 357.004457 187.097367 
L 357.2351 207.502872 
L 357.464729 196.388158 
L 357.693354 204.167505 
L 357.920982 218.492069 
L 358.373284 206.412182 
L 358.597974 209.703163 
L 359.044478 248.813669 
L 359.266306 214.315564 
L 359.707157 192.1768 
L 359.926196 190.463088 
L 360.144319 192.40071 
L 360.361536 198.05199 
L 360.577853 216.647107 
L 360.793279 223.259984 
L 361.007819 201.665342 
L 361.221482 192.341094 
L 361.434275 189.196092 
L 361.646204 192.362656 
L 361.857278 202.356331 
L 362.067502 227.63923 
L 362.485428 207.695504 
L 362.693144 206.851356 
L 362.900038 217.646825 
L 363.106115 219.764977 
L 363.311383 207.183068 
L 363.515847 202.667249 
L 363.719514 210.589729 
L 363.92239 202.612353 
L 364.124482 203.811713 
L 364.526334 219.439656 
L 364.726107 209.17828 
L 364.925119 205.970081 
L 365.123376 214.401731 
L 365.320883 248.662039 
L 365.71367 217.195424 
L 365.908962 214.682378 
L 366.103527 215.940696 
L 366.29737 224.836466 
L 366.682911 210.737322 
L 367.065627 215.913606 
L 367.255939 216.108772 
L 367.44556 233.178597 
L 367.634495 233.73071 
L 367.82275 217.989832 
L 368.010328 218.567844 
L 368.197236 206.325852 
L 368.383477 203.819985 
L 368.569056 208.582825 
L 368.753979 249.091871 
L 368.938249 208.691521 
L 369.121871 209.123678 
L 369.487191 256.563951 
L 370.210255 218.985902 
L 370.389468 219.665385 
L 370.746061 239.817681 
L 370.923448 230.421084 
L 371.100235 227.56583 
L 371.276426 239.229303 
L 371.452025 237.588781 
L 371.627035 237.410116 
L 371.801461 252.613741 
L 371.975307 245.683298 
L 372.148576 249.581019 
L 372.321272 275.445626 
L 372.493399 242.599808 
L 372.664961 235.119954 
L 373.006404 263.984232 
L 373.345629 220.528507 
L 373.51442 225.896603 
L 373.682666 236.975308 
L 373.850373 219.04413 
L 374.184179 231.125159 
L 374.350286 234.894436 
L 374.515867 249.106748 
L 374.680924 247.902884 
L 375.009482 230.48848 
L 375.498476 246.063605 
L 375.660463 243.118933 
L 375.821948 229.42153 
L 375.982936 233.317348 
L 376.14343 246.161964 
L 376.303431 286.515651 
L 376.621972 229.377121 
L 376.780517 229.891657 
L 376.938583 256.135799 
L 377.253286 229.180181 
L 377.409929 223.056759 
L 377.566104 224.54296 
L 377.877061 216.418306 
L 378.031848 223.913751 
L 378.186178 225.038429 
L 378.340053 227.039781 
L 378.493476 231.051152 
L 378.64645 238.287428 
L 378.798977 229.459998 
L 378.95106 246.620098 
L 379.102702 240.722627 
L 379.253905 239.848395 
L 379.555004 230.723947 
L 379.704905 225.971211 
L 379.854377 225.334997 
L 380.152045 248.133223 
L 380.448026 227.483752 
L 380.595391 227.649483 
L 380.74234 229.793819 
L 381.035005 242.264942 
L 381.180725 249.766476 
L 381.615462 224.560447 
L 381.759574 230.134527 
L 381.903289 222.018549 
L 382.04661 223.141289 
L 382.189539 258.422711 
L 382.332079 223.988835 
L 382.47423 226.336517 
L 382.757377 255.894214 
L 382.898377 248.637238 
L 383.038998 251.143096 
L 383.179241 235.73608 
L 383.319109 243.61396 
L 383.597726 233.789272 
L 384.012885 243.529292 
L 384.287836 230.269849 
L 384.42477 240.058586 
L 384.561347 240.342751 
L 384.697567 248.806598 
L 385.104111 220.17278 
L 385.238925 220.187474 
L 385.373392 227.671764 
L 385.641293 255.915795 
L 385.77473 294.127295 
L 386.040586 244.651201 
L 386.173008 224.543221 
L 386.305096 226.177931 
L 386.43685 261.108794 
L 386.699366 231.299683 
L 386.830131 230.342826 
L 386.960569 223.692319 
L 387.090683 227.155781 
L 387.220473 240.216054 
L 387.349942 270.123381 
L 387.47909 235.695342 
L 387.60792 232.112319 
L 387.736433 243.366516 
L 387.864631 271.344349 
L 387.992515 238.704392 
L 388.120087 236.271628 
L 388.247347 248.137299 
L 388.374299 273.045899 
L 388.500943 268.809137 
L 388.62728 248.852657 
L 388.753313 255.93966 
L 389.00447 236.024282 
L 389.129597 243.156043 
L 389.254425 268.259989 
L 389.378956 257.027966 
L 389.62713 220.926235 
L 389.750776 227.965035 
L 390.119969 271.539492 
L 390.364656 240.687278 
L 390.608202 245.154975 
L 390.850618 252.373228 
L 390.971405 251.769137 
L 391.332101 238.240604 
L 391.809187 267.588233 
L 391.927781 271.551787 
L 392.164164 236.082361 
L 392.281955 237.26365 
L 392.399482 249.695128 
L 392.633745 245.021748 
L 392.750484 252.260656 
L 392.866962 247.044058 
L 393.099143 250.773102 
L 393.330296 240.496213 
L 393.560431 235.201767 
L 393.789557 254.423734 
L 394.017682 242.73831 
L 394.131372 249.427372 
L 394.244815 282.45212 
L 394.470965 252.32529 
L 394.69614 272.155494 
L 394.808364 295.488 
L 395.032093 246.038248 
L 395.143599 245.111471 
L 395.254868 251.856782 
L 395.3659 273.995178 
L 395.476696 268.471918 
L 395.697587 249.082037 
L 395.917547 235.457283 
L 396.027181 240.229884 
L 396.354709 281.12273 
L 396.463431 251.81211 
L 396.571926 253.054701 
L 396.680197 277.235895 
L 396.896067 260.380057 
L 397.003669 286.47878 
L 397.111049 265.31247 
L 397.218209 267.602783 
L 397.32515 284.359306 
L 397.431872 259.317797 
L 397.644665 287.800464 
L 397.962238 246.690229 
L 398.067668 240.491754 
L 398.172885 243.701564 
L 398.487273 275.908406 
L 398.487273 275.908406 
" clip-path="url(#p4fe922f3f0)" style="fill: none; stroke: #1f77b4; stroke-width: 1.5; stroke-linecap: square"/>
   </g>
   <g id="patch_3">
    <path d="M 57.6 307.584 
L 57.6 41.472 
" style="fill: none; stroke: #000000; stroke-width: 0.8; stroke-linejoin: miter; stroke-linecap: square"/>
   </g>
   <g id="patch_4">
    <path d="M 414.72 307.584 
L 414.72 41.472 
" style="fill: none; stroke: #000000; stroke-width: 0.8; stroke-linejoin: miter; stroke-linecap: square"/>
   </g>
   <g id="patch_5">
    <path d="M 57.6 307.584 
L 414.72 307.584 
" style="fill: none; stroke: #000000; stroke-width: 0.8; stroke-linejoin: miter; stroke-linecap: square"/>
   </g>
   <g id="patch_6">
    <path d="M 57.6 41.472 
L 414.72 41.472 
" style="fill: none; stroke: #000000; stroke-width: 0.8; stroke-linejoin: miter; stroke-linecap: square"/>
   </g>
   <g id="text_11">
    <!-- Obs2 PSD -->
    <g transform="translate(206.730937 35.472) scale(0.12 -0.12)">
     <defs>
      <path id="DejaVuSans-4f" d="M 2522 4238 
Q 1834 4238 1429 3725 
Q 1025 3213 1025 2328 
Q 1025 1447 1429 934 
Q 1834 422 2522 422 
Q 3209 422 3611 934 
Q 4013 1447 4013 2328 
Q 4013 3213 3611 3725 
Q 3209 4238 2522 4238 
z
M 2522 4750 
Q 3503 4750 4090 4092 
Q 4678 3434 4678 2328 
Q 4678 1225 4090 567 
Q 3503 -91 2522 -91 
Q 1538 -91 948 565 
Q 359 1222 359 2328 
Q 359 3434 948 4092 
Q 1538 4750 2522 4750 
z
" transform="scale(0.015625)"/>
      <path id="DejaVuSans-62" d="M 3116 1747 
Q 3116 2381 2855 2742 
Q 2594 3103 2138 3103 
Q 1681 3103 1420 2742 
Q 1159 2381 1159 1747 
Q 1159 1113 1420 752 
Q 1681 391 2138 391 
Q 2594 391 2855 752 
Q 3116 1113 3116 1747 
z
M 1159 2969 
Q 1341 3281 1617 3432 
Q 1894 3584 2278 3584 
Q 2916 3584 3314 3078 
Q 3713 2572 3713 1747 
Q 3713 922 3314 415 
Q 2916 -91 2278 -91 
Q 1894 -91 1617 61 
Q 1341 213 1159 525 
L 1159 0 
L 581 0 
L 581 4863 
L 1159 4863 
L 1159 2969 
z
" transform="scale(0.015625)"/>
      <path id="DejaVuSans-73" d="M 2834 3397 
L 2834 2853 
Q 2591 2978 2328 3040 
Q 2066 3103 1784 3103 
Q 1356 3103 1142 2972 
Q 928 2841 928 2578 
Q 928 2378 1081 2264 
Q 1234 2150 1697 2047 
L 1894 2003 
Q 2506 1872 2764 1633 
Q 3022 1394 3022 966 
Q 3022 478 2636 193 
Q 2250 -91 1575 -91 
Q 1294 -91 989 -36 
Q 684 19 347 128 
L 347 722 
Q 666 556 975 473 
Q 1284 391 1588 391 
Q 1994 391 2212 530 
Q 2431 669 2431 922 
Q 2431 1156 2273 1281 
Q 2116 1406 1581 1522 
L 1381 1569 
Q 847 1681 609 1914 
Q 372 2147 372 2553 
Q 372 3047 722 3315 
Q 1072 3584 1716 3584 
Q 2034 3584 2315 3537 
Q 2597 3491 2834 3397 
z
" transform="scale(0.015625)"/>
      <path id="DejaVuSans-50" d="M 1259 4147 
L 1259 2394 
L 2053 2394 
Q 2494 2394 2734 2622 
Q 2975 2850 2975 3272 
Q 2975 3691 2734 3919 
Q 2494 4147 2053 4147 
L 1259 4147 
z
M 628 4666 
L 2053 4666 
Q 2838 4666 3239 4311 
Q 3641 3956 3641 3272 
Q 3641 2581 3239 2228 
Q 2838 1875 2053 1875 
L 1259 1875 
L 1259 0 
L 628 0 
L 628 4666 
z
" transform="scale(0.015625)"/>
      <path id="DejaVuSans-53" d="M 3425 4513 
L 3425 3897 
Q 3066 4069 2747 4153 
Q 2428 4238 2131 4238 
Q 1616 4238 1336 4038 
Q 1056 3838 1056 3469 
Q 1056 3159 1242 3001 
Q 1428 2844 1947 2747 
L 2328 2669 
Q 3034 2534 3370 2195 
Q 3706 1856 3706 1288 
Q 3706 609 3251 259 
Q 2797 -91 1919 -91 
Q 1588 -91 1214 -16 
Q 841 59 441 206 
L 441 856 
Q 825 641 1194 531 
Q 1563 422 1919 422 
Q 2459 422 2753 634 
Q 3047 847 3047 1241 
Q 3047 1584 2836 1778 
Q 2625 1972 2144 2069 
L 1759 2144 
Q 1053 2284 737 2584 
Q 422 2884 422 3419 
Q 422 4038 858 4394 
Q 1294 4750 2059 4750 
Q 2388 4750 2728 4690 
Q 3069 4631 3425 4513 
z
" transform="scale(0.015625)"/>
      <path id="DejaVuSans-44" d="M 1259 4147 
L 1259 519 
L 2022 519 
Q 2988 519 3436 956 
Q 3884 1394 3884 2338 
Q 3884 3275 3436 3711 
Q 2988 4147 2022 4147 
L 1259 4147 
z
M 628 4666 
L 1925 4666 
Q 3281 4666 3915 4102 
Q 4550 3538 4550 2338 
Q 4550 1131 3912 565 
Q 3275 0 1925 0 
L 628 0 
L 628 4666 
z
" transform="scale(0.015625)"/>
     </defs>
     <use xlink:href="#DejaVuSans-4f"/>
     <use xlink:href="#DejaVuSans-62" x="78.710938"/>
     <use xlink:href="#DejaVuSans-73" x="142.1875"/>
     <use xlink:href="#DejaVuSans-32" x="194.287109"/>
     <use xlink:href="#DejaVuSans-20" x="257.910156"/>
     <use xlink:href="#DejaVuSans-50" x="289.697266"/>
     <use xlink:href="#DejaVuSans-53" x="350"/>
     <use xlink:href="#DejaVuSans-44" x="413.476562"/>
    </g>
   </g>
  </g>
 </g>
 <defs>
  <clipPath id="p4fe922f3f0">
   <rect x="57.6" y="41.472" width="357.12" height="266.112"/>
  </clipPath>
 </defs>
</svg>
