<?xml version="1.0" encoding="utf-8" standalone="no"?>
<!DOCTYPE svg PUBLIC "-//W3C//DTD SVG 1.1//EN"
  "http://www.w3.org/Graphics/SVG/1.1/DTD/svg11.dtd">
<svg xmlns:xlink="http://www.w3.org/1999/xlink" width="460.8pt" height="345.6pt" viewBox="0 0 460.8 345.6" xmlns="http://www.w3.org/2000/svg" version="1.1">
 <metadata>
  <rdf:RDF xmlns:dc="http://purl.org/dc/elements/1.1/" xmlns:cc="http://creativecommons.org/ns#" xmlns:rdf="http://www.w3.org/1999/02/22-rdf-syntax-ns#">
   <cc:Work>
    <dc:type rdf:resource="http://purl.org/dc/dcmitype/StillImage"/>
    <dc:date>2023-10-30T15:11:03.803838</dc:date>
    <dc:format>image/svg+xml</dc:format>
    <dc:creator>
     <cc:Agent>
      <dc:title>Matplotlib v3.7.0, https://matplotlib.org/</dc:title>
     </cc:Agent>
    </dc:creator>
   </cc:Work>
  </rdf:RDF>
 </metadata>
 <defs>
  <style type="text/css">*{stroke-linejoin: round; stroke-linecap: butt}</style>
 </defs>
 <g id="figure_1">
  <g id="patch_1">
   <path d="M 0 345.6 
L 460.8 345.6 
L 460.8 0 
L 0 0 
z
" style="fill: #ffffff"/>
  </g>
  <g id="axes_1">
   <g id="patch_2">
    <path d="M 57.6 307.584 
L 414.72 307.584 
L 414.72 41.472 
L 57.6 41.472 
z
" style="fill: #ffffff"/>
   </g>
   <g id="matplotlib.axis_1">
    <g id="xtick_1">
     <g id="line2d_1">
      <defs>
       <path id="m233ea149db" d="M 0 0 
L 0 3.5 
" style="stroke: #000000; stroke-width: 0.8"/>
      </defs>
      <g>
       <use xlink:href="#m233ea149db" x="110.043117" y="307.584" style="stroke: #000000; stroke-width: 0.8"/>
      </g>
     </g>
     <g id="text_1">
      <!-- $\mathdefault{10^{0}}$ -->
      <g transform="translate(101.243117 322.182437) scale(0.1 -0.1)">
       <defs>
        <path id="DejaVuSans-31" d="M 794 531 
L 1825 531 
L 1825 4091 
L 703 3866 
L 703 4441 
L 1819 4666 
L 2450 4666 
L 2450 531 
L 3481 531 
L 3481 0 
L 794 0 
L 794 531 
z
" transform="scale(0.015625)"/>
        <path id="DejaVuSans-30" d="M 2034 4250 
Q 1547 4250 1301 3770 
Q 1056 3291 1056 2328 
Q 1056 1369 1301 889 
Q 1547 409 2034 409 
Q 2525 409 2770 889 
Q 3016 1369 3016 2328 
Q 3016 3291 2770 3770 
Q 2525 4250 2034 4250 
z
M 2034 4750 
Q 2819 4750 3233 4129 
Q 3647 3509 3647 2328 
Q 3647 1150 3233 529 
Q 2819 -91 2034 -91 
Q 1250 -91 836 529 
Q 422 1150 422 2328 
Q 422 3509 836 4129 
Q 1250 4750 2034 4750 
z
" transform="scale(0.015625)"/>
       </defs>
       <use xlink:href="#DejaVuSans-31" transform="translate(0 0.765625)"/>
       <use xlink:href="#DejaVuSans-30" transform="translate(63.623047 0.765625)"/>
       <use xlink:href="#DejaVuSans-30" transform="translate(128.203125 39.046875) scale(0.7)"/>
      </g>
     </g>
    </g>
    <g id="xtick_2">
     <g id="line2d_2">
      <g>
       <use xlink:href="#m233ea149db" x="230.331429" y="307.584" style="stroke: #000000; stroke-width: 0.8"/>
      </g>
     </g>
     <g id="text_2">
      <!-- $\mathdefault{10^{1}}$ -->
      <g transform="translate(221.531429 322.182437) scale(0.1 -0.1)">
       <use xlink:href="#DejaVuSans-31" transform="translate(0 0.684375)"/>
       <use xlink:href="#DejaVuSans-30" transform="translate(63.623047 0.684375)"/>
       <use xlink:href="#DejaVuSans-31" transform="translate(128.203125 38.965625) scale(0.7)"/>
      </g>
     </g>
    </g>
    <g id="xtick_3">
     <g id="line2d_3">
      <g>
       <use xlink:href="#m233ea149db" x="350.619741" y="307.584" style="stroke: #000000; stroke-width: 0.8"/>
      </g>
     </g>
     <g id="text_3">
      <!-- $\mathdefault{10^{2}}$ -->
      <g transform="translate(341.819741 322.182437) scale(0.1 -0.1)">
       <defs>
        <path id="DejaVuSans-32" d="M 1228 531 
L 3431 531 
L 3431 0 
L 469 0 
L 469 531 
Q 828 903 1448 1529 
Q 2069 2156 2228 2338 
Q 2531 2678 2651 2914 
Q 2772 3150 2772 3378 
Q 2772 3750 2511 3984 
Q 2250 4219 1831 4219 
Q 1534 4219 1204 4116 
Q 875 4013 500 3803 
L 500 4441 
Q 881 4594 1212 4672 
Q 1544 4750 1819 4750 
Q 2544 4750 2975 4387 
Q 3406 4025 3406 3419 
Q 3406 3131 3298 2873 
Q 3191 2616 2906 2266 
Q 2828 2175 2409 1742 
Q 1991 1309 1228 531 
z
" transform="scale(0.015625)"/>
       </defs>
       <use xlink:href="#DejaVuSans-31" transform="translate(0 0.765625)"/>
       <use xlink:href="#DejaVuSans-30" transform="translate(63.623047 0.765625)"/>
       <use xlink:href="#DejaVuSans-32" transform="translate(128.203125 39.046875) scale(0.7)"/>
      </g>
     </g>
    </g>
    <g id="xtick_4">
     <g id="line2d_4">
      <defs>
       <path id="m386ccd1b62" d="M 0 0 
L 0 2 
" style="stroke: #000000; stroke-width: 0.6"/>
      </defs>
      <g>
       <use xlink:href="#m386ccd1b62" x="62.175585" y="307.584" style="stroke: #000000; stroke-width: 0.6"/>
      </g>
     </g>
    </g>
    <g id="xtick_5">
     <g id="line2d_5">
      <g>
       <use xlink:href="#m386ccd1b62" x="73.832727" y="307.584" style="stroke: #000000; stroke-width: 0.6"/>
      </g>
     </g>
    </g>
    <g id="xtick_6">
     <g id="line2d_6">
      <g>
       <use xlink:href="#m386ccd1b62" x="83.357306" y="307.584" style="stroke: #000000; stroke-width: 0.6"/>
      </g>
     </g>
    </g>
    <g id="xtick_7">
     <g id="line2d_7">
      <g>
       <use xlink:href="#m386ccd1b62" x="91.410222" y="307.584" style="stroke: #000000; stroke-width: 0.6"/>
      </g>
     </g>
    </g>
    <g id="xtick_8">
     <g id="line2d_8">
      <g>
       <use xlink:href="#m386ccd1b62" x="98.385975" y="307.584" style="stroke: #000000; stroke-width: 0.6"/>
      </g>
     </g>
    </g>
    <g id="xtick_9">
     <g id="line2d_9">
      <g>
       <use xlink:href="#m386ccd1b62" x="104.539026" y="307.584" style="stroke: #000000; stroke-width: 0.6"/>
      </g>
     </g>
    </g>
    <g id="xtick_10">
     <g id="line2d_10">
      <g>
       <use xlink:href="#m386ccd1b62" x="146.253507" y="307.584" style="stroke: #000000; stroke-width: 0.6"/>
      </g>
     </g>
    </g>
    <g id="xtick_11">
     <g id="line2d_11">
      <g>
       <use xlink:href="#m386ccd1b62" x="167.435228" y="307.584" style="stroke: #000000; stroke-width: 0.6"/>
      </g>
     </g>
    </g>
    <g id="xtick_12">
     <g id="line2d_12">
      <g>
       <use xlink:href="#m386ccd1b62" x="182.463897" y="307.584" style="stroke: #000000; stroke-width: 0.6"/>
      </g>
     </g>
    </g>
    <g id="xtick_13">
     <g id="line2d_13">
      <g>
       <use xlink:href="#m386ccd1b62" x="194.121039" y="307.584" style="stroke: #000000; stroke-width: 0.6"/>
      </g>
     </g>
    </g>
    <g id="xtick_14">
     <g id="line2d_14">
      <g>
       <use xlink:href="#m386ccd1b62" x="203.645617" y="307.584" style="stroke: #000000; stroke-width: 0.6"/>
      </g>
     </g>
    </g>
    <g id="xtick_15">
     <g id="line2d_15">
      <g>
       <use xlink:href="#m386ccd1b62" x="211.698534" y="307.584" style="stroke: #000000; stroke-width: 0.6"/>
      </g>
     </g>
    </g>
    <g id="xtick_16">
     <g id="line2d_16">
      <g>
       <use xlink:href="#m386ccd1b62" x="218.674287" y="307.584" style="stroke: #000000; stroke-width: 0.6"/>
      </g>
     </g>
    </g>
    <g id="xtick_17">
     <g id="line2d_17">
      <g>
       <use xlink:href="#m386ccd1b62" x="224.827338" y="307.584" style="stroke: #000000; stroke-width: 0.6"/>
      </g>
     </g>
    </g>
    <g id="xtick_18">
     <g id="line2d_18">
      <g>
       <use xlink:href="#m386ccd1b62" x="266.541819" y="307.584" style="stroke: #000000; stroke-width: 0.6"/>
      </g>
     </g>
    </g>
    <g id="xtick_19">
     <g id="line2d_19">
      <g>
       <use xlink:href="#m386ccd1b62" x="287.723539" y="307.584" style="stroke: #000000; stroke-width: 0.6"/>
      </g>
     </g>
    </g>
    <g id="xtick_20">
     <g id="line2d_20">
      <g>
       <use xlink:href="#m386ccd1b62" x="302.752209" y="307.584" style="stroke: #000000; stroke-width: 0.6"/>
      </g>
     </g>
    </g>
    <g id="xtick_21">
     <g id="line2d_21">
      <g>
       <use xlink:href="#m386ccd1b62" x="314.409351" y="307.584" style="stroke: #000000; stroke-width: 0.6"/>
      </g>
     </g>
    </g>
    <g id="xtick_22">
     <g id="line2d_22">
      <g>
       <use xlink:href="#m386ccd1b62" x="323.933929" y="307.584" style="stroke: #000000; stroke-width: 0.6"/>
      </g>
     </g>
    </g>
    <g id="xtick_23">
     <g id="line2d_23">
      <g>
       <use xlink:href="#m386ccd1b62" x="331.986846" y="307.584" style="stroke: #000000; stroke-width: 0.6"/>
      </g>
     </g>
    </g>
    <g id="xtick_24">
     <g id="line2d_24">
      <g>
       <use xlink:href="#m386ccd1b62" x="338.962599" y="307.584" style="stroke: #000000; stroke-width: 0.6"/>
      </g>
     </g>
    </g>
    <g id="xtick_25">
     <g id="line2d_25">
      <g>
       <use xlink:href="#m386ccd1b62" x="345.11565" y="307.584" style="stroke: #000000; stroke-width: 0.6"/>
      </g>
     </g>
    </g>
    <g id="xtick_26">
     <g id="line2d_26">
      <g>
       <use xlink:href="#m386ccd1b62" x="386.830131" y="307.584" style="stroke: #000000; stroke-width: 0.6"/>
      </g>
     </g>
    </g>
    <g id="xtick_27">
     <g id="line2d_27">
      <g>
       <use xlink:href="#m386ccd1b62" x="408.011851" y="307.584" style="stroke: #000000; stroke-width: 0.6"/>
      </g>
     </g>
    </g>
    <g id="text_4">
     <!-- f (Hz) -->
     <g transform="translate(222.524844 335.860562) scale(0.1 -0.1)">
      <defs>
       <path id="DejaVuSans-66" d="M 2375 4863 
L 2375 4384 
L 1825 4384 
Q 1516 4384 1395 4259 
Q 1275 4134 1275 3809 
L 1275 3500 
L 2222 3500 
L 2222 3053 
L 1275 3053 
L 1275 0 
L 697 0 
L 697 3053 
L 147 3053 
L 147 3500 
L 697 3500 
L 697 3744 
Q 697 4328 969 4595 
Q 1241 4863 1831 4863 
L 2375 4863 
z
" transform="scale(0.015625)"/>
       <path id="DejaVuSans-20" transform="scale(0.015625)"/>
       <path id="DejaVuSans-28" d="M 1984 4856 
Q 1566 4138 1362 3434 
Q 1159 2731 1159 2009 
Q 1159 1288 1364 580 
Q 1569 -128 1984 -844 
L 1484 -844 
Q 1016 -109 783 600 
Q 550 1309 550 2009 
Q 550 2706 781 3412 
Q 1013 4119 1484 4856 
L 1984 4856 
z
" transform="scale(0.015625)"/>
       <path id="DejaVuSans-48" d="M 628 4666 
L 1259 4666 
L 1259 2753 
L 3553 2753 
L 3553 4666 
L 4184 4666 
L 4184 0 
L 3553 0 
L 3553 2222 
L 1259 2222 
L 1259 0 
L 628 0 
L 628 4666 
z
" transform="scale(0.015625)"/>
       <path id="DejaVuSans-7a" d="M 353 3500 
L 3084 3500 
L 3084 2975 
L 922 459 
L 3084 459 
L 3084 0 
L 275 0 
L 275 525 
L 2438 3041 
L 353 3041 
L 353 3500 
z
" transform="scale(0.015625)"/>
       <path id="DejaVuSans-29" d="M 513 4856 
L 1013 4856 
Q 1481 4119 1714 3412 
Q 1947 2706 1947 2009 
Q 1947 1309 1714 600 
Q 1481 -109 1013 -844 
L 513 -844 
Q 928 -128 1133 580 
Q 1338 1288 1338 2009 
Q 1338 2731 1133 3434 
Q 928 4138 513 4856 
z
" transform="scale(0.015625)"/>
      </defs>
      <use xlink:href="#DejaVuSans-66"/>
      <use xlink:href="#DejaVuSans-20" x="35.205078"/>
      <use xlink:href="#DejaVuSans-28" x="66.992188"/>
      <use xlink:href="#DejaVuSans-48" x="106.005859"/>
      <use xlink:href="#DejaVuSans-7a" x="181.201172"/>
      <use xlink:href="#DejaVuSans-29" x="233.691406"/>
     </g>
    </g>
   </g>
   <g id="matplotlib.axis_2">
    <g id="ytick_1">
     <g id="line2d_28">
      <defs>
       <path id="m156dadea0e" d="M 0 0 
L -3.5 0 
" style="stroke: #000000; stroke-width: 0.8"/>
      </defs>
      <g>
       <use xlink:href="#m156dadea0e" x="57.6" y="279.288168" style="stroke: #000000; stroke-width: 0.8"/>
      </g>
     </g>
     <g id="text_5">
      <!-- 0 -->
      <g transform="translate(44.2375 283.087387) scale(0.1 -0.1)">
       <use xlink:href="#DejaVuSans-30"/>
      </g>
     </g>
    </g>
    <g id="ytick_2">
     <g id="line2d_29">
      <g>
       <use xlink:href="#m156dadea0e" x="57.6" y="223.576876" style="stroke: #000000; stroke-width: 0.8"/>
      </g>
     </g>
     <g id="text_6">
      <!-- 20 -->
      <g transform="translate(37.875 227.376095) scale(0.1 -0.1)">
       <use xlink:href="#DejaVuSans-32"/>
       <use xlink:href="#DejaVuSans-30" x="63.623047"/>
      </g>
     </g>
    </g>
    <g id="ytick_3">
     <g id="line2d_30">
      <g>
       <use xlink:href="#m156dadea0e" x="57.6" y="167.865584" style="stroke: #000000; stroke-width: 0.8"/>
      </g>
     </g>
     <g id="text_7">
      <!-- 40 -->
      <g transform="translate(37.875 171.664803) scale(0.1 -0.1)">
       <defs>
        <path id="DejaVuSans-34" d="M 2419 4116 
L 825 1625 
L 2419 1625 
L 2419 4116 
z
M 2253 4666 
L 3047 4666 
L 3047 1625 
L 3713 1625 
L 3713 1100 
L 3047 1100 
L 3047 0 
L 2419 0 
L 2419 1100 
L 313 1100 
L 313 1709 
L 2253 4666 
z
" transform="scale(0.015625)"/>
       </defs>
       <use xlink:href="#DejaVuSans-34"/>
       <use xlink:href="#DejaVuSans-30" x="63.623047"/>
      </g>
     </g>
    </g>
    <g id="ytick_4">
     <g id="line2d_31">
      <g>
       <use xlink:href="#m156dadea0e" x="57.6" y="112.154292" style="stroke: #000000; stroke-width: 0.8"/>
      </g>
     </g>
     <g id="text_8">
      <!-- 60 -->
      <g transform="translate(37.875 115.953511) scale(0.1 -0.1)">
       <defs>
        <path id="DejaVuSans-36" d="M 2113 2584 
Q 1688 2584 1439 2293 
Q 1191 2003 1191 1497 
Q 1191 994 1439 701 
Q 1688 409 2113 409 
Q 2538 409 2786 701 
Q 3034 994 3034 1497 
Q 3034 2003 2786 2293 
Q 2538 2584 2113 2584 
z
M 3366 4563 
L 3366 3988 
Q 3128 4100 2886 4159 
Q 2644 4219 2406 4219 
Q 1781 4219 1451 3797 
Q 1122 3375 1075 2522 
Q 1259 2794 1537 2939 
Q 1816 3084 2150 3084 
Q 2853 3084 3261 2657 
Q 3669 2231 3669 1497 
Q 3669 778 3244 343 
Q 2819 -91 2113 -91 
Q 1303 -91 875 529 
Q 447 1150 447 2328 
Q 447 3434 972 4092 
Q 1497 4750 2381 4750 
Q 2619 4750 2861 4703 
Q 3103 4656 3366 4563 
z
" transform="scale(0.015625)"/>
       </defs>
       <use xlink:href="#DejaVuSans-36"/>
       <use xlink:href="#DejaVuSans-30" x="63.623047"/>
      </g>
     </g>
    </g>
    <g id="ytick_5">
     <g id="line2d_32">
      <g>
       <use xlink:href="#m156dadea0e" x="57.6" y="56.443" style="stroke: #000000; stroke-width: 0.8"/>
      </g>
     </g>
     <g id="text_9">
      <!-- 80 -->
      <g transform="translate(37.875 60.242219) scale(0.1 -0.1)">
       <defs>
        <path id="DejaVuSans-38" d="M 2034 2216 
Q 1584 2216 1326 1975 
Q 1069 1734 1069 1313 
Q 1069 891 1326 650 
Q 1584 409 2034 409 
Q 2484 409 2743 651 
Q 3003 894 3003 1313 
Q 3003 1734 2745 1975 
Q 2488 2216 2034 2216 
z
M 1403 2484 
Q 997 2584 770 2862 
Q 544 3141 544 3541 
Q 544 4100 942 4425 
Q 1341 4750 2034 4750 
Q 2731 4750 3128 4425 
Q 3525 4100 3525 3541 
Q 3525 3141 3298 2862 
Q 3072 2584 2669 2484 
Q 3125 2378 3379 2068 
Q 3634 1759 3634 1313 
Q 3634 634 3220 271 
Q 2806 -91 2034 -91 
Q 1263 -91 848 271 
Q 434 634 434 1313 
Q 434 1759 690 2068 
Q 947 2378 1403 2484 
z
M 1172 3481 
Q 1172 3119 1398 2916 
Q 1625 2713 2034 2713 
Q 2441 2713 2670 2916 
Q 2900 3119 2900 3481 
Q 2900 3844 2670 4047 
Q 2441 4250 2034 4250 
Q 1625 4250 1398 4047 
Q 1172 3844 1172 3481 
z
" transform="scale(0.015625)"/>
       </defs>
       <use xlink:href="#DejaVuSans-38"/>
       <use xlink:href="#DejaVuSans-30" x="63.623047"/>
      </g>
     </g>
    </g>
    <g id="text_10">
     <!-- dB -->
     <g transform="translate(31.795313 181.132688) rotate(-90) scale(0.1 -0.1)">
      <defs>
       <path id="DejaVuSans-64" d="M 2906 2969 
L 2906 4863 
L 3481 4863 
L 3481 0 
L 2906 0 
L 2906 525 
Q 2725 213 2448 61 
Q 2172 -91 1784 -91 
Q 1150 -91 751 415 
Q 353 922 353 1747 
Q 353 2572 751 3078 
Q 1150 3584 1784 3584 
Q 2172 3584 2448 3432 
Q 2725 3281 2906 2969 
z
M 947 1747 
Q 947 1113 1208 752 
Q 1469 391 1925 391 
Q 2381 391 2643 752 
Q 2906 1113 2906 1747 
Q 2906 2381 2643 2742 
Q 2381 3103 1925 3103 
Q 1469 3103 1208 2742 
Q 947 2381 947 1747 
z
" transform="scale(0.015625)"/>
       <path id="DejaVuSans-42" d="M 1259 2228 
L 1259 519 
L 2272 519 
Q 2781 519 3026 730 
Q 3272 941 3272 1375 
Q 3272 1813 3026 2020 
Q 2781 2228 2272 2228 
L 1259 2228 
z
M 1259 4147 
L 1259 2741 
L 2194 2741 
Q 2656 2741 2882 2914 
Q 3109 3088 3109 3444 
Q 3109 3797 2882 3972 
Q 2656 4147 2194 4147 
L 1259 4147 
z
M 628 4666 
L 2241 4666 
Q 2963 4666 3353 4366 
Q 3744 4066 3744 3513 
Q 3744 3084 3544 2831 
Q 3344 2578 2956 2516 
Q 3422 2416 3680 2098 
Q 3938 1781 3938 1306 
Q 3938 681 3513 340 
Q 3088 0 2303 0 
L 628 0 
L 628 4666 
z
" transform="scale(0.015625)"/>
      </defs>
      <use xlink:href="#DejaVuSans-64"/>
      <use xlink:href="#DejaVuSans-42" x="63.476562"/>
     </g>
    </g>
   </g>
   <g id="line2d_33">
    <path d="M -1 63.790949 
L 73.832727 63.756289 
L 110.043117 69.474389 
L 131.224838 91.557942 
L 146.253507 118.241139 
L 157.910649 141.209714 
L 167.435228 149.412562 
L 175.488144 163.817012 
L 182.463897 172.400865 
L 188.616948 175.183254 
L 194.121039 183.879209 
L 199.100095 197.256986 
L 203.645617 206.422813 
L 207.827093 218.995518 
L 211.698534 244.162469 
L 215.302759 220.263762 
L 218.674287 194.230317 
L 221.841351 177.032936 
L 224.827338 145.169498 
L 227.651839 109.319783 
L 230.331429 85.934759 
L 232.880254 70.795971 
L 235.310485 61.70107 
L 237.63267 56.922656 
L 239.856007 54.60004 
L 241.988571 53.568 
L 244.037483 53.683697 
L 246.009058 54.758142 
L 247.908924 57.73847 
L 249.742114 65.596429 
L 251.513149 81.508077 
L 253.226108 109.212081 
L 254.884677 153.778554 
L 256.492206 175.162374 
L 258.051741 216.595014 
L 261.037728 244.608821 
L 262.469065 238.857677 
L 263.862229 238.177217 
L 265.219203 206.12049 
L 266.541819 196.282226 
L 267.831775 192.124797 
L 269.090644 204.477194 
L 270.31989 218.907557 
L 271.520875 175.64871 
L 272.69487 158.200794 
L 273.84306 147.545785 
L 274.966556 139.908112 
L 276.066397 134.503602 
L 277.14356 130.522831 
L 280.247873 121.844239 
L 281.242961 118.638739 
L 283.178017 111.466368 
L 285.043949 105.754929 
L 285.952504 106.760459 
L 286.845526 113.817826 
L 287.723539 130.103054 
L 288.587039 148.839225 
L 289.436498 182.866124 
L 290.272364 163.548741 
L 291.095067 155.917452 
L 291.905014 152.623933 
L 292.702596 149.948112 
L 293.488183 150.287172 
L 294.262131 151.430549 
L 295.02478 153.793183 
L 295.776456 157.501503 
L 296.517469 160.137689 
L 297.248118 157.960573 
L 298.679455 148.096727 
L 299.380681 146.135517 
L 300.072619 147.423642 
L 300.755512 152.334329 
L 301.429593 161.875864 
L 302.095087 178.210743 
L 302.752209 172.957343 
L 303.401168 163.135057 
L 304.042165 160.742291 
L 304.675391 166.091369 
L 305.301034 173.012596 
L 305.919273 175.145772 
L 306.53028 157.50274 
L 307.134224 148.582172 
L 308.32156 160.276369 
L 308.90526 171.957362 
L 309.482509 210.033694 
L 310.05345 200.219369 
L 310.618218 200.648945 
L 311.176946 193.605066 
L 311.729761 190.832973 
L 312.276787 197.277002 
L 312.818145 192.848602 
L 313.35395 189.487409 
L 313.884316 193.775691 
L 314.409351 212.876894 
L 314.929162 218.385684 
L 315.443851 195.014627 
L 315.953519 190.147742 
L 316.958176 186.365404 
L 317.453351 185.882185 
L 317.943876 188.978493 
L 318.429838 195.319104 
L 318.911321 196.582844 
L 319.388407 206.459299 
L 319.861176 220.145927 
L 320.329704 204.437413 
L 320.794067 204.803249 
L 321.254339 190.270409 
L 322.162894 174.155201 
L 322.611313 173.350365 
L 323.055916 176.645826 
L 323.933929 189.90483 
L 324.367463 183.70104 
L 324.797429 189.420298 
L 325.223885 188.119221 
L 325.646888 183.454465 
L 326.066493 175.195439 
L 326.482754 170.051009 
L 326.895725 167.43972 
L 327.305457 163.870031 
L 327.712 162.104822 
L 328.115404 166.515253 
L 328.515717 176.115142 
L 328.912986 179.384411 
L 329.307256 170.206467 
L 329.698573 166.03814 
L 330.08698 167.900791 
L 330.472521 174.492141 
L 330.855237 184.414101 
L 331.23517 177.484083 
L 331.61236 161.337015 
L 331.986846 151.30344 
L 332.358666 149.104151 
L 332.727859 151.518124 
L 333.094461 147.794764 
L 333.458508 146.109861 
L 334.535671 183.87732 
L 335.241635 154.404842 
L 335.591071 166.933443 
L 335.938186 163.931103 
L 336.283009 169.836211 
L 336.625571 173.650558 
L 336.965902 173.832669 
L 337.639983 153.239726 
L 337.973789 147.599481 
L 338.305477 146.114033 
L 338.635071 148.65126 
L 338.962599 154.946963 
L 339.93304 184.097223 
L 340.252555 174.116974 
L 340.570127 158.404713 
L 340.885781 150.48118 
L 341.199539 150.980214 
L 341.821458 164.764009 
L 342.43606 171.703476 
L 342.74067 182.891956 
L 343.043515 161.0412 
L 343.344614 149.614624 
L 343.643987 152.345483 
L 343.941655 151.826209 
L 344.237636 146.047649 
L 344.824615 174.666898 
L 345.11565 200.370942 
L 345.405072 214.354492 
L 345.692899 220.24183 
L 346.26384 180.445653 
L 346.828608 167.098683 
L 347.108719 161.114686 
L 347.387336 159.398713 
L 347.664475 160.77168 
L 347.940151 157.914176 
L 348.487177 148.540786 
L 348.758558 148.029271 
L 349.297125 153.549961 
L 349.830196 145.775292 
L 350.094706 146.263432 
L 350.619741 157.814917 
L 350.880293 157.988364 
L 351.139552 157.917329 
L 351.39753 163.315751 
L 351.654241 166.185878 
L 351.909697 158.617909 
L 352.163909 158.922462 
L 352.41689 184.171357 
L 352.668653 183.270724 
L 352.919207 173.293065 
L 353.168566 176.792863 
L 353.41674 176.915148 
L 353.663741 183.100373 
L 353.909579 199.141956 
L 354.154266 195.940755 
L 354.397812 183.741919 
L 354.640228 181.597121 
L 354.881524 189.198917 
L 355.121711 201.233831 
L 355.360799 202.845554 
L 355.598797 201.518094 
L 355.835716 209.220928 
L 356.071565 205.884549 
L 356.540094 178.872373 
L 356.772791 177.907924 
L 357.004457 186.752101 
L 357.2351 204.533855 
L 357.693354 182.194149 
L 358.147622 192.197914 
L 358.373284 186.340827 
L 358.597974 207.288159 
L 359.044478 188.343628 
L 359.266306 207.300639 
L 359.487197 204.73504 
L 359.707157 193.309895 
L 359.926196 216.932156 
L 360.361536 229.745708 
L 360.577853 218.043757 
L 360.793279 217.879929 
L 361.007819 218.327407 
L 361.221482 237.09441 
L 361.646204 196.291752 
L 361.857278 189.495111 
L 362.067502 187.523255 
L 362.276883 190.823415 
L 362.485428 198.192609 
L 362.693144 194.673174 
L 362.900038 188.079812 
L 363.106115 188.52647 
L 363.515847 195.779061 
L 363.719514 195.964908 
L 363.92239 195.961103 
L 364.124482 199.596636 
L 364.325794 206.808088 
L 364.526334 209.163074 
L 364.726107 219.981188 
L 364.925119 208.950494 
L 365.123376 187.223725 
L 365.320883 196.386367 
L 365.517646 221.01637 
L 365.71367 194.033688 
L 365.908962 196.430322 
L 366.103527 205.073883 
L 366.29737 199.272269 
L 366.490496 199.300825 
L 366.874619 208.206468 
L 367.065627 208.151913 
L 367.255939 209.685148 
L 367.44556 215.143861 
L 367.82275 204.418578 
L 368.197236 202.568799 
L 368.383477 202.970526 
L 368.753979 212.275926 
L 368.938249 209.622549 
L 369.121871 202.896062 
L 369.304851 202.18706 
L 369.668898 228.350278 
L 370.210255 191.459343 
L 370.389468 184.645601 
L 370.568069 186.84786 
L 370.923448 214.482631 
L 371.100235 261.654905 
L 371.276426 221.404822 
L 371.452025 220.849436 
L 371.627035 248.142519 
L 371.801461 220.645618 
L 372.148576 204.569838 
L 372.493399 200.210556 
L 372.664961 200.982064 
L 373.006404 209.55073 
L 373.345629 222.101689 
L 373.682666 215.453525 
L 373.850373 225.826117 
L 374.017543 229.047131 
L 374.184179 213.326812 
L 374.350286 214.161436 
L 374.515867 225.159898 
L 374.845461 207.748286 
L 375.009482 204.175466 
L 375.172989 205.977584 
L 375.335986 213.375371 
L 375.498476 212.789728 
L 375.660463 233.526861 
L 375.821948 200.207281 
L 375.982936 199.652948 
L 376.14343 227.725597 
L 376.303431 231.337099 
L 376.462945 264.260687 
L 376.621972 228.891068 
L 376.780517 228.778573 
L 376.938583 230.127406 
L 377.096171 234.102568 
L 377.253286 248.059138 
L 377.409929 240.656113 
L 377.566104 239.013001 
L 377.721814 286.292273 
L 377.877061 227.000273 
L 378.186178 206.567581 
L 378.340053 206.596429 
L 378.493476 204.842118 
L 378.64645 204.498411 
L 378.95106 225.65677 
L 379.253905 209.287186 
L 379.555004 214.25256 
L 379.704905 222.874309 
L 379.854377 245.968773 
L 380.003423 246.019741 
L 380.152045 241.709477 
L 380.300245 210.417269 
L 380.448026 212.075678 
L 380.595391 249.048317 
L 380.74234 214.841768 
L 380.888878 229.043415 
L 381.035005 256.866958 
L 381.180725 243.625093 
L 381.32604 242.903555 
L 381.470951 243.862205 
L 382.04661 212.722933 
L 382.332079 221.699182 
L 382.47423 229.553 
L 382.615995 245.691083 
L 382.757377 289.691763 
L 383.038998 222.413801 
L 383.319109 207.972167 
L 383.458603 210.672459 
L 383.874865 234.021495 
L 384.012885 224.900191 
L 384.42477 234.098934 
L 384.561347 244.117941 
L 384.697567 235.921642 
L 384.833434 260.29774 
L 385.104111 216.07941 
L 385.373392 226.592329 
L 385.507515 236.53634 
L 385.641293 237.624556 
L 385.77473 239.631342 
L 385.907827 237.319953 
L 386.173008 218.073222 
L 386.305096 215.06263 
L 386.43685 216.739047 
L 387.349942 253.782889 
L 387.60792 239.151325 
L 387.736433 238.449077 
L 387.864631 231.974654 
L 388.120087 262.628323 
L 388.374299 226.675403 
L 388.500943 295.488 
L 388.62728 225.973844 
L 388.753313 231.823571 
L 388.879042 255.849255 
L 389.129597 241.810014 
L 389.254425 247.21251 
L 389.378956 246.189975 
L 389.50319 251.260881 
L 389.62713 261.659934 
L 389.874131 228.032424 
L 389.997194 233.071391 
L 390.119969 268.614037 
L 390.364656 237.442292 
L 390.486571 238.342039 
L 390.729551 243.254784 
L 390.971405 221.548044 
L 391.091914 219.96165 
L 391.212146 222.026676 
L 391.332101 233.506119 
L 391.451782 234.299277 
L 391.571189 248.113036 
L 391.809187 225.457709 
L 391.927781 230.654459 
L 392.046106 262.092062 
L 392.164164 242.414922 
L 392.281955 257.800709 
L 392.399482 253.887296 
L 392.516745 254.708706 
L 392.633745 256.491656 
L 392.866962 278.566983 
L 392.983181 264.197533 
L 393.099143 277.316163 
L 393.214847 272.19568 
L 393.44549 250.482262 
L 393.560431 250.299306 
L 393.789557 235.717059 
L 393.903744 247.594379 
L 394.017682 244.690341 
L 394.131372 254.27199 
L 394.244815 249.277397 
L 394.358012 239.053976 
L 394.470965 250.168159 
L 394.583674 243.72245 
L 394.69614 244.45928 
L 394.920349 263.965389 
L 395.143599 226.459488 
L 395.3659 221.908979 
L 395.476696 224.316776 
L 395.697587 245.380142 
L 395.807683 239.576156 
L 396.027181 266.705276 
L 396.136586 254.711845 
L 396.245761 255.112957 
L 396.354709 258.681085 
L 396.680197 242.692011 
L 396.788243 249.235194 
L 397.003669 264.255712 
L 397.218209 245.827937 
L 397.32515 254.124125 
L 397.644665 222.775479 
L 397.750737 231.888329 
L 397.856594 269.013622 
L 398.067668 230.770797 
L 398.172885 231.08078 
L 398.487273 245.781108 
L 398.487273 245.781108 
" clip-path="url(#pb389852534)" style="fill: none; stroke: #1f77b4; stroke-width: 1.5; stroke-linecap: square"/>
   </g>
   <g id="patch_3">
    <path d="M 57.6 307.584 
L 57.6 41.472 
" style="fill: none; stroke: #000000; stroke-width: 0.8; stroke-linejoin: miter; stroke-linecap: square"/>
   </g>
   <g id="patch_4">
    <path d="M 414.72 307.584 
L 414.72 41.472 
" style="fill: none; stroke: #000000; stroke-width: 0.8; stroke-linejoin: miter; stroke-linecap: square"/>
   </g>
   <g id="patch_5">
    <path d="M 57.6 307.584 
L 414.72 307.584 
" style="fill: none; stroke: #000000; stroke-width: 0.8; stroke-linejoin: miter; stroke-linecap: square"/>
   </g>
   <g id="patch_6">
    <path d="M 57.6 41.472 
L 414.72 41.472 
" style="fill: none; stroke: #000000; stroke-width: 0.8; stroke-linejoin: miter; stroke-linecap: square"/>
   </g>
   <g id="text_11">
    <!-- Obs2 PSD -->
    <g transform="translate(206.730937 35.472) scale(0.12 -0.12)">
     <defs>
      <path id="DejaVuSans-4f" d="M 2522 4238 
Q 1834 4238 1429 3725 
Q 1025 3213 1025 2328 
Q 1025 1447 1429 934 
Q 1834 422 2522 422 
Q 3209 422 3611 934 
Q 4013 1447 4013 2328 
Q 4013 3213 3611 3725 
Q 3209 4238 2522 4238 
z
M 2522 4750 
Q 3503 4750 4090 4092 
Q 4678 3434 4678 2328 
Q 4678 1225 4090 567 
Q 3503 -91 2522 -91 
Q 1538 -91 948 565 
Q 359 1222 359 2328 
Q 359 3434 948 4092 
Q 1538 4750 2522 4750 
z
" transform="scale(0.015625)"/>
      <path id="DejaVuSans-62" d="M 3116 1747 
Q 3116 2381 2855 2742 
Q 2594 3103 2138 3103 
Q 1681 3103 1420 2742 
Q 1159 2381 1159 1747 
Q 1159 1113 1420 752 
Q 1681 391 2138 391 
Q 2594 391 2855 752 
Q 3116 1113 3116 1747 
z
M 1159 2969 
Q 1341 3281 1617 3432 
Q 1894 3584 2278 3584 
Q 2916 3584 3314 3078 
Q 3713 2572 3713 1747 
Q 3713 922 3314 415 
Q 2916 -91 2278 -91 
Q 1894 -91 1617 61 
Q 1341 213 1159 525 
L 1159 0 
L 581 0 
L 581 4863 
L 1159 4863 
L 1159 2969 
z
" transform="scale(0.015625)"/>
      <path id="DejaVuSans-73" d="M 2834 3397 
L 2834 2853 
Q 2591 2978 2328 3040 
Q 2066 3103 1784 3103 
Q 1356 3103 1142 2972 
Q 928 2841 928 2578 
Q 928 2378 1081 2264 
Q 1234 2150 1697 2047 
L 1894 2003 
Q 2506 1872 2764 1633 
Q 3022 1394 3022 966 
Q 3022 478 2636 193 
Q 2250 -91 1575 -91 
Q 1294 -91 989 -36 
Q 684 19 347 128 
L 347 722 
Q 666 556 975 473 
Q 1284 391 1588 391 
Q 1994 391 2212 530 
Q 2431 669 2431 922 
Q 2431 1156 2273 1281 
Q 2116 1406 1581 1522 
L 1381 1569 
Q 847 1681 609 1914 
Q 372 2147 372 2553 
Q 372 3047 722 3315 
Q 1072 3584 1716 3584 
Q 2034 3584 2315 3537 
Q 2597 3491 2834 3397 
z
" transform="scale(0.015625)"/>
      <path id="DejaVuSans-50" d="M 1259 4147 
L 1259 2394 
L 2053 2394 
Q 2494 2394 2734 2622 
Q 2975 2850 2975 3272 
Q 2975 3691 2734 3919 
Q 2494 4147 2053 4147 
L 1259 4147 
z
M 628 4666 
L 2053 4666 
Q 2838 4666 3239 4311 
Q 3641 3956 3641 3272 
Q 3641 2581 3239 2228 
Q 2838 1875 2053 1875 
L 1259 1875 
L 1259 0 
L 628 0 
L 628 4666 
z
" transform="scale(0.015625)"/>
      <path id="DejaVuSans-53" d="M 3425 4513 
L 3425 3897 
Q 3066 4069 2747 4153 
Q 2428 4238 2131 4238 
Q 1616 4238 1336 4038 
Q 1056 3838 1056 3469 
Q 1056 3159 1242 3001 
Q 1428 2844 1947 2747 
L 2328 2669 
Q 3034 2534 3370 2195 
Q 3706 1856 3706 1288 
Q 3706 609 3251 259 
Q 2797 -91 1919 -91 
Q 1588 -91 1214 -16 
Q 841 59 441 206 
L 441 856 
Q 825 641 1194 531 
Q 1563 422 1919 422 
Q 2459 422 2753 634 
Q 3047 847 3047 1241 
Q 3047 1584 2836 1778 
Q 2625 1972 2144 2069 
L 1759 2144 
Q 1053 2284 737 2584 
Q 422 2884 422 3419 
Q 422 4038 858 4394 
Q 1294 4750 2059 4750 
Q 2388 4750 2728 4690 
Q 3069 4631 3425 4513 
z
" transform="scale(0.015625)"/>
      <path id="DejaVuSans-44" d="M 1259 4147 
L 1259 519 
L 2022 519 
Q 2988 519 3436 956 
Q 3884 1394 3884 2338 
Q 3884 3275 3436 3711 
Q 2988 4147 2022 4147 
L 1259 4147 
z
M 628 4666 
L 1925 4666 
Q 3281 4666 3915 4102 
Q 4550 3538 4550 2338 
Q 4550 1131 3912 565 
Q 3275 0 1925 0 
L 628 0 
L 628 4666 
z
" transform="scale(0.015625)"/>
     </defs>
     <use xlink:href="#DejaVuSans-4f"/>
     <use xlink:href="#DejaVuSans-62" x="78.710938"/>
     <use xlink:href="#DejaVuSans-73" x="142.1875"/>
     <use xlink:href="#DejaVuSans-32" x="194.287109"/>
     <use xlink:href="#DejaVuSans-20" x="257.910156"/>
     <use xlink:href="#DejaVuSans-50" x="289.697266"/>
     <use xlink:href="#DejaVuSans-53" x="350"/>
     <use xlink:href="#DejaVuSans-44" x="413.476562"/>
    </g>
   </g>
  </g>
 </g>
 <defs>
  <clipPath id="pb389852534">
   <rect x="57.6" y="41.472" width="357.12" height="266.112"/>
  </clipPath>
 </defs>
</svg>
