<?xml version="1.0" encoding="utf-8" standalone="no"?>
<!DOCTYPE svg PUBLIC "-//W3C//DTD SVG 1.1//EN"
  "http://www.w3.org/Graphics/SVG/1.1/DTD/svg11.dtd">
<svg xmlns:xlink="http://www.w3.org/1999/xlink" width="460.8pt" height="345.6pt" viewBox="0 0 460.8 345.6" xmlns="http://www.w3.org/2000/svg" version="1.1">
 <metadata>
  <rdf:RDF xmlns:dc="http://purl.org/dc/elements/1.1/" xmlns:cc="http://creativecommons.org/ns#" xmlns:rdf="http://www.w3.org/1999/02/22-rdf-syntax-ns#">
   <cc:Work>
    <dc:type rdf:resource="http://purl.org/dc/dcmitype/StillImage"/>
    <dc:date>2025-01-10T16:39:48.702450</dc:date>
    <dc:format>image/svg+xml</dc:format>
    <dc:creator>
     <cc:Agent>
      <dc:title>Matplotlib v3.7.0, https://matplotlib.org/</dc:title>
     </cc:Agent>
    </dc:creator>
   </cc:Work>
  </rdf:RDF>
 </metadata>
 <defs>
  <style type="text/css">*{stroke-linejoin: round; stroke-linecap: butt}</style>
 </defs>
 <g id="figure_1">
  <g id="patch_1">
   <path d="M 0 345.6 
L 460.8 345.6 
L 460.8 0 
L 0 0 
z
" style="fill: #ffffff"/>
  </g>
  <g id="axes_1">
   <g id="patch_2">
    <path d="M 57.6 307.584 
L 414.72 307.584 
L 414.72 41.472 
L 57.6 41.472 
z
" style="fill: #ffffff"/>
   </g>
   <g id="matplotlib.axis_1">
    <g id="xtick_1">
     <g id="line2d_1">
      <defs>
       <path id="m2411e6703e" d="M 0 0 
L 0 3.5 
" style="stroke: #000000; stroke-width: 0.8"/>
      </defs>
      <g>
       <use xlink:href="#m2411e6703e" x="85.433008" y="307.584" style="stroke: #000000; stroke-width: 0.8"/>
      </g>
     </g>
     <g id="text_1">
      <!-- 1.5 -->
      <g transform="translate(77.481446 322.182437) scale(0.1 -0.1)">
       <defs>
        <path id="DejaVuSans-31" d="M 794 531 
L 1825 531 
L 1825 4091 
L 703 3866 
L 703 4441 
L 1819 4666 
L 2450 4666 
L 2450 531 
L 3481 531 
L 3481 0 
L 794 0 
L 794 531 
z
" transform="scale(0.015625)"/>
        <path id="DejaVuSans-2e" d="M 684 794 
L 1344 794 
L 1344 0 
L 684 0 
L 684 794 
z
" transform="scale(0.015625)"/>
        <path id="DejaVuSans-35" d="M 691 4666 
L 3169 4666 
L 3169 4134 
L 1269 4134 
L 1269 2991 
Q 1406 3038 1543 3061 
Q 1681 3084 1819 3084 
Q 2600 3084 3056 2656 
Q 3513 2228 3513 1497 
Q 3513 744 3044 326 
Q 2575 -91 1722 -91 
Q 1428 -91 1123 -41 
Q 819 9 494 109 
L 494 744 
Q 775 591 1075 516 
Q 1375 441 1709 441 
Q 2250 441 2565 725 
Q 2881 1009 2881 1497 
Q 2881 1984 2565 2268 
Q 2250 2553 1709 2553 
Q 1456 2553 1204 2497 
Q 953 2441 691 2322 
L 691 4666 
z
" transform="scale(0.015625)"/>
       </defs>
       <use xlink:href="#DejaVuSans-31"/>
       <use xlink:href="#DejaVuSans-2e" x="63.623047"/>
       <use xlink:href="#DejaVuSans-35" x="95.410156"/>
      </g>
     </g>
    </g>
    <g id="xtick_2">
     <g id="line2d_2">
      <g>
       <use xlink:href="#m2411e6703e" x="146.688583" y="307.584" style="stroke: #000000; stroke-width: 0.8"/>
      </g>
     </g>
     <g id="text_2">
      <!-- 2.0 -->
      <g transform="translate(138.737021 322.182437) scale(0.1 -0.1)">
       <defs>
        <path id="DejaVuSans-32" d="M 1228 531 
L 3431 531 
L 3431 0 
L 469 0 
L 469 531 
Q 828 903 1448 1529 
Q 2069 2156 2228 2338 
Q 2531 2678 2651 2914 
Q 2772 3150 2772 3378 
Q 2772 3750 2511 3984 
Q 2250 4219 1831 4219 
Q 1534 4219 1204 4116 
Q 875 4013 500 3803 
L 500 4441 
Q 881 4594 1212 4672 
Q 1544 4750 1819 4750 
Q 2544 4750 2975 4387 
Q 3406 4025 3406 3419 
Q 3406 3131 3298 2873 
Q 3191 2616 2906 2266 
Q 2828 2175 2409 1742 
Q 1991 1309 1228 531 
z
" transform="scale(0.015625)"/>
        <path id="DejaVuSans-30" d="M 2034 4250 
Q 1547 4250 1301 3770 
Q 1056 3291 1056 2328 
Q 1056 1369 1301 889 
Q 1547 409 2034 409 
Q 2525 409 2770 889 
Q 3016 1369 3016 2328 
Q 3016 3291 2770 3770 
Q 2525 4250 2034 4250 
z
M 2034 4750 
Q 2819 4750 3233 4129 
Q 3647 3509 3647 2328 
Q 3647 1150 3233 529 
Q 2819 -91 2034 -91 
Q 1250 -91 836 529 
Q 422 1150 422 2328 
Q 422 3509 836 4129 
Q 1250 4750 2034 4750 
z
" transform="scale(0.015625)"/>
       </defs>
       <use xlink:href="#DejaVuSans-32"/>
       <use xlink:href="#DejaVuSans-2e" x="63.623047"/>
       <use xlink:href="#DejaVuSans-30" x="95.410156"/>
      </g>
     </g>
    </g>
    <g id="xtick_3">
     <g id="line2d_3">
      <g>
       <use xlink:href="#m2411e6703e" x="207.944158" y="307.584" style="stroke: #000000; stroke-width: 0.8"/>
      </g>
     </g>
     <g id="text_3">
      <!-- 2.5 -->
      <g transform="translate(199.992595 322.182437) scale(0.1 -0.1)">
       <use xlink:href="#DejaVuSans-32"/>
       <use xlink:href="#DejaVuSans-2e" x="63.623047"/>
       <use xlink:href="#DejaVuSans-35" x="95.410156"/>
      </g>
     </g>
    </g>
    <g id="xtick_4">
     <g id="line2d_4">
      <g>
       <use xlink:href="#m2411e6703e" x="269.199732" y="307.584" style="stroke: #000000; stroke-width: 0.8"/>
      </g>
     </g>
     <g id="text_4">
      <!-- 3.0 -->
      <g transform="translate(261.24817 322.182437) scale(0.1 -0.1)">
       <defs>
        <path id="DejaVuSans-33" d="M 2597 2516 
Q 3050 2419 3304 2112 
Q 3559 1806 3559 1356 
Q 3559 666 3084 287 
Q 2609 -91 1734 -91 
Q 1441 -91 1130 -33 
Q 819 25 488 141 
L 488 750 
Q 750 597 1062 519 
Q 1375 441 1716 441 
Q 2309 441 2620 675 
Q 2931 909 2931 1356 
Q 2931 1769 2642 2001 
Q 2353 2234 1838 2234 
L 1294 2234 
L 1294 2753 
L 1863 2753 
Q 2328 2753 2575 2939 
Q 2822 3125 2822 3475 
Q 2822 3834 2567 4026 
Q 2313 4219 1838 4219 
Q 1578 4219 1281 4162 
Q 984 4106 628 3988 
L 628 4550 
Q 988 4650 1302 4700 
Q 1616 4750 1894 4750 
Q 2613 4750 3031 4423 
Q 3450 4097 3450 3541 
Q 3450 3153 3228 2886 
Q 3006 2619 2597 2516 
z
" transform="scale(0.015625)"/>
       </defs>
       <use xlink:href="#DejaVuSans-33"/>
       <use xlink:href="#DejaVuSans-2e" x="63.623047"/>
       <use xlink:href="#DejaVuSans-30" x="95.410156"/>
      </g>
     </g>
    </g>
    <g id="xtick_5">
     <g id="line2d_5">
      <g>
       <use xlink:href="#m2411e6703e" x="330.455307" y="307.584" style="stroke: #000000; stroke-width: 0.8"/>
      </g>
     </g>
     <g id="text_5">
      <!-- 3.5 -->
      <g transform="translate(322.503744 322.182437) scale(0.1 -0.1)">
       <use xlink:href="#DejaVuSans-33"/>
       <use xlink:href="#DejaVuSans-2e" x="63.623047"/>
       <use xlink:href="#DejaVuSans-35" x="95.410156"/>
      </g>
     </g>
    </g>
    <g id="xtick_6">
     <g id="line2d_6">
      <g>
       <use xlink:href="#m2411e6703e" x="391.710882" y="307.584" style="stroke: #000000; stroke-width: 0.8"/>
      </g>
     </g>
     <g id="text_6">
      <!-- 4.0 -->
      <g transform="translate(383.759319 322.182437) scale(0.1 -0.1)">
       <defs>
        <path id="DejaVuSans-34" d="M 2419 4116 
L 825 1625 
L 2419 1625 
L 2419 4116 
z
M 2253 4666 
L 3047 4666 
L 3047 1625 
L 3713 1625 
L 3713 1100 
L 3047 1100 
L 3047 0 
L 2419 0 
L 2419 1100 
L 313 1100 
L 313 1709 
L 2253 4666 
z
" transform="scale(0.015625)"/>
       </defs>
       <use xlink:href="#DejaVuSans-34"/>
       <use xlink:href="#DejaVuSans-2e" x="63.623047"/>
       <use xlink:href="#DejaVuSans-30" x="95.410156"/>
      </g>
     </g>
    </g>
    <g id="text_7">
     <!-- t (s) -->
     <g transform="translate(226.104531 335.860562) scale(0.1 -0.1)">
      <defs>
       <path id="DejaVuSans-74" d="M 1172 4494 
L 1172 3500 
L 2356 3500 
L 2356 3053 
L 1172 3053 
L 1172 1153 
Q 1172 725 1289 603 
Q 1406 481 1766 481 
L 2356 481 
L 2356 0 
L 1766 0 
Q 1100 0 847 248 
Q 594 497 594 1153 
L 594 3053 
L 172 3053 
L 172 3500 
L 594 3500 
L 594 4494 
L 1172 4494 
z
" transform="scale(0.015625)"/>
       <path id="DejaVuSans-20" transform="scale(0.015625)"/>
       <path id="DejaVuSans-28" d="M 1984 4856 
Q 1566 4138 1362 3434 
Q 1159 2731 1159 2009 
Q 1159 1288 1364 580 
Q 1569 -128 1984 -844 
L 1484 -844 
Q 1016 -109 783 600 
Q 550 1309 550 2009 
Q 550 2706 781 3412 
Q 1013 4119 1484 4856 
L 1984 4856 
z
" transform="scale(0.015625)"/>
       <path id="DejaVuSans-73" d="M 2834 3397 
L 2834 2853 
Q 2591 2978 2328 3040 
Q 2066 3103 1784 3103 
Q 1356 3103 1142 2972 
Q 928 2841 928 2578 
Q 928 2378 1081 2264 
Q 1234 2150 1697 2047 
L 1894 2003 
Q 2506 1872 2764 1633 
Q 3022 1394 3022 966 
Q 3022 478 2636 193 
Q 2250 -91 1575 -91 
Q 1294 -91 989 -36 
Q 684 19 347 128 
L 347 722 
Q 666 556 975 473 
Q 1284 391 1588 391 
Q 1994 391 2212 530 
Q 2431 669 2431 922 
Q 2431 1156 2273 1281 
Q 2116 1406 1581 1522 
L 1381 1569 
Q 847 1681 609 1914 
Q 372 2147 372 2553 
Q 372 3047 722 3315 
Q 1072 3584 1716 3584 
Q 2034 3584 2315 3537 
Q 2597 3491 2834 3397 
z
" transform="scale(0.015625)"/>
       <path id="DejaVuSans-29" d="M 513 4856 
L 1013 4856 
Q 1481 4119 1714 3412 
Q 1947 2706 1947 2009 
Q 1947 1309 1714 600 
Q 1481 -109 1013 -844 
L 513 -844 
Q 928 -128 1133 580 
Q 1338 1288 1338 2009 
Q 1338 2731 1133 3434 
Q 928 4138 513 4856 
z
" transform="scale(0.015625)"/>
      </defs>
      <use xlink:href="#DejaVuSans-74"/>
      <use xlink:href="#DejaVuSans-20" x="39.208984"/>
      <use xlink:href="#DejaVuSans-28" x="70.996094"/>
      <use xlink:href="#DejaVuSans-73" x="110.009766"/>
      <use xlink:href="#DejaVuSans-29" x="162.109375"/>
     </g>
    </g>
   </g>
   <g id="matplotlib.axis_2">
    <g id="ytick_1">
     <g id="line2d_7">
      <defs>
       <path id="m4b6cbc9c39" d="M 0 0 
L -3.5 0 
" style="stroke: #000000; stroke-width: 0.8"/>
      </defs>
      <g>
       <use xlink:href="#m4b6cbc9c39" x="57.6" y="281.116018" style="stroke: #000000; stroke-width: 0.8"/>
      </g>
     </g>
     <g id="text_8">
      <!-- 4.25 -->
      <g transform="translate(28.334375 284.915236) scale(0.1 -0.1)">
       <use xlink:href="#DejaVuSans-34"/>
       <use xlink:href="#DejaVuSans-2e" x="63.623047"/>
       <use xlink:href="#DejaVuSans-32" x="95.410156"/>
       <use xlink:href="#DejaVuSans-35" x="159.033203"/>
      </g>
     </g>
    </g>
    <g id="ytick_2">
     <g id="line2d_8">
      <g>
       <use xlink:href="#m4b6cbc9c39" x="57.6" y="247.506432" style="stroke: #000000; stroke-width: 0.8"/>
      </g>
     </g>
     <g id="text_9">
      <!-- 4.50 -->
      <g transform="translate(28.334375 251.305651) scale(0.1 -0.1)">
       <use xlink:href="#DejaVuSans-34"/>
       <use xlink:href="#DejaVuSans-2e" x="63.623047"/>
       <use xlink:href="#DejaVuSans-35" x="95.410156"/>
       <use xlink:href="#DejaVuSans-30" x="159.033203"/>
      </g>
     </g>
    </g>
    <g id="ytick_3">
     <g id="line2d_9">
      <g>
       <use xlink:href="#m4b6cbc9c39" x="57.6" y="213.896846" style="stroke: #000000; stroke-width: 0.8"/>
      </g>
     </g>
     <g id="text_10">
      <!-- 4.75 -->
      <g transform="translate(28.334375 217.696065) scale(0.1 -0.1)">
       <defs>
        <path id="DejaVuSans-37" d="M 525 4666 
L 3525 4666 
L 3525 4397 
L 1831 0 
L 1172 0 
L 2766 4134 
L 525 4134 
L 525 4666 
z
" transform="scale(0.015625)"/>
       </defs>
       <use xlink:href="#DejaVuSans-34"/>
       <use xlink:href="#DejaVuSans-2e" x="63.623047"/>
       <use xlink:href="#DejaVuSans-37" x="95.410156"/>
       <use xlink:href="#DejaVuSans-35" x="159.033203"/>
      </g>
     </g>
    </g>
    <g id="ytick_4">
     <g id="line2d_10">
      <g>
       <use xlink:href="#m4b6cbc9c39" x="57.6" y="180.28726" style="stroke: #000000; stroke-width: 0.8"/>
      </g>
     </g>
     <g id="text_11">
      <!-- 5.00 -->
      <g transform="translate(28.334375 184.086479) scale(0.1 -0.1)">
       <use xlink:href="#DejaVuSans-35"/>
       <use xlink:href="#DejaVuSans-2e" x="63.623047"/>
       <use xlink:href="#DejaVuSans-30" x="95.410156"/>
       <use xlink:href="#DejaVuSans-30" x="159.033203"/>
      </g>
     </g>
    </g>
    <g id="ytick_5">
     <g id="line2d_11">
      <g>
       <use xlink:href="#m4b6cbc9c39" x="57.6" y="146.677675" style="stroke: #000000; stroke-width: 0.8"/>
      </g>
     </g>
     <g id="text_12">
      <!-- 5.25 -->
      <g transform="translate(28.334375 150.476893) scale(0.1 -0.1)">
       <use xlink:href="#DejaVuSans-35"/>
       <use xlink:href="#DejaVuSans-2e" x="63.623047"/>
       <use xlink:href="#DejaVuSans-32" x="95.410156"/>
       <use xlink:href="#DejaVuSans-35" x="159.033203"/>
      </g>
     </g>
    </g>
    <g id="ytick_6">
     <g id="line2d_12">
      <g>
       <use xlink:href="#m4b6cbc9c39" x="57.6" y="113.068089" style="stroke: #000000; stroke-width: 0.8"/>
      </g>
     </g>
     <g id="text_13">
      <!-- 5.50 -->
      <g transform="translate(28.334375 116.867308) scale(0.1 -0.1)">
       <use xlink:href="#DejaVuSans-35"/>
       <use xlink:href="#DejaVuSans-2e" x="63.623047"/>
       <use xlink:href="#DejaVuSans-35" x="95.410156"/>
       <use xlink:href="#DejaVuSans-30" x="159.033203"/>
      </g>
     </g>
    </g>
    <g id="ytick_7">
     <g id="line2d_13">
      <g>
       <use xlink:href="#m4b6cbc9c39" x="57.6" y="79.458503" style="stroke: #000000; stroke-width: 0.8"/>
      </g>
     </g>
     <g id="text_14">
      <!-- 5.75 -->
      <g transform="translate(28.334375 83.257722) scale(0.1 -0.1)">
       <use xlink:href="#DejaVuSans-35"/>
       <use xlink:href="#DejaVuSans-2e" x="63.623047"/>
       <use xlink:href="#DejaVuSans-37" x="95.410156"/>
       <use xlink:href="#DejaVuSans-35" x="159.033203"/>
      </g>
     </g>
    </g>
    <g id="ytick_8">
     <g id="line2d_14">
      <g>
       <use xlink:href="#m4b6cbc9c39" x="57.6" y="45.848917" style="stroke: #000000; stroke-width: 0.8"/>
      </g>
     </g>
     <g id="text_15">
      <!-- 6.00 -->
      <g transform="translate(28.334375 49.648136) scale(0.1 -0.1)">
       <defs>
        <path id="DejaVuSans-36" d="M 2113 2584 
Q 1688 2584 1439 2293 
Q 1191 2003 1191 1497 
Q 1191 994 1439 701 
Q 1688 409 2113 409 
Q 2538 409 2786 701 
Q 3034 994 3034 1497 
Q 3034 2003 2786 2293 
Q 2538 2584 2113 2584 
z
M 3366 4563 
L 3366 3988 
Q 3128 4100 2886 4159 
Q 2644 4219 2406 4219 
Q 1781 4219 1451 3797 
Q 1122 3375 1075 2522 
Q 1259 2794 1537 2939 
Q 1816 3084 2150 3084 
Q 2853 3084 3261 2657 
Q 3669 2231 3669 1497 
Q 3669 778 3244 343 
Q 2819 -91 2113 -91 
Q 1303 -91 875 529 
Q 447 1150 447 2328 
Q 447 3434 972 4092 
Q 1497 4750 2381 4750 
Q 2619 4750 2861 4703 
Q 3103 4656 3366 4563 
z
" transform="scale(0.015625)"/>
       </defs>
       <use xlink:href="#DejaVuSans-36"/>
       <use xlink:href="#DejaVuSans-2e" x="63.623047"/>
       <use xlink:href="#DejaVuSans-30" x="95.410156"/>
       <use xlink:href="#DejaVuSans-30" x="159.033203"/>
      </g>
     </g>
    </g>
    <g id="text_16">
     <!-- p (Pa) -->
     <g transform="translate(22.254687 189.04675) rotate(-90) scale(0.1 -0.1)">
      <defs>
       <path id="DejaVuSans-70" d="M 1159 525 
L 1159 -1331 
L 581 -1331 
L 581 3500 
L 1159 3500 
L 1159 2969 
Q 1341 3281 1617 3432 
Q 1894 3584 2278 3584 
Q 2916 3584 3314 3078 
Q 3713 2572 3713 1747 
Q 3713 922 3314 415 
Q 2916 -91 2278 -91 
Q 1894 -91 1617 61 
Q 1341 213 1159 525 
z
M 3116 1747 
Q 3116 2381 2855 2742 
Q 2594 3103 2138 3103 
Q 1681 3103 1420 2742 
Q 1159 2381 1159 1747 
Q 1159 1113 1420 752 
Q 1681 391 2138 391 
Q 2594 391 2855 752 
Q 3116 1113 3116 1747 
z
" transform="scale(0.015625)"/>
       <path id="DejaVuSans-50" d="M 1259 4147 
L 1259 2394 
L 2053 2394 
Q 2494 2394 2734 2622 
Q 2975 2850 2975 3272 
Q 2975 3691 2734 3919 
Q 2494 4147 2053 4147 
L 1259 4147 
z
M 628 4666 
L 2053 4666 
Q 2838 4666 3239 4311 
Q 3641 3956 3641 3272 
Q 3641 2581 3239 2228 
Q 2838 1875 2053 1875 
L 1259 1875 
L 1259 0 
L 628 0 
L 628 4666 
z
" transform="scale(0.015625)"/>
       <path id="DejaVuSans-61" d="M 2194 1759 
Q 1497 1759 1228 1600 
Q 959 1441 959 1056 
Q 959 750 1161 570 
Q 1363 391 1709 391 
Q 2188 391 2477 730 
Q 2766 1069 2766 1631 
L 2766 1759 
L 2194 1759 
z
M 3341 1997 
L 3341 0 
L 2766 0 
L 2766 531 
Q 2569 213 2275 61 
Q 1981 -91 1556 -91 
Q 1019 -91 701 211 
Q 384 513 384 1019 
Q 384 1609 779 1909 
Q 1175 2209 1959 2209 
L 2766 2209 
L 2766 2266 
Q 2766 2663 2505 2880 
Q 2244 3097 1772 3097 
Q 1472 3097 1187 3025 
Q 903 2953 641 2809 
L 641 3341 
Q 956 3463 1253 3523 
Q 1550 3584 1831 3584 
Q 2591 3584 2966 3190 
Q 3341 2797 3341 1997 
z
" transform="scale(0.015625)"/>
      </defs>
      <use xlink:href="#DejaVuSans-70"/>
      <use xlink:href="#DejaVuSans-20" x="63.476562"/>
      <use xlink:href="#DejaVuSans-28" x="95.263672"/>
      <use xlink:href="#DejaVuSans-50" x="134.277344"/>
      <use xlink:href="#DejaVuSans-61" x="190.080078"/>
      <use xlink:href="#DejaVuSans-29" x="251.359375"/>
     </g>
    </g>
    <g id="text_17">
     <!-- +1.0132e5 -->
     <g transform="translate(57.6 38.472) scale(0.1 -0.1)">
      <defs>
       <path id="DejaVuSans-2b" d="M 2944 4013 
L 2944 2272 
L 4684 2272 
L 4684 1741 
L 2944 1741 
L 2944 0 
L 2419 0 
L 2419 1741 
L 678 1741 
L 678 2272 
L 2419 2272 
L 2419 4013 
L 2944 4013 
z
" transform="scale(0.015625)"/>
       <path id="DejaVuSans-65" d="M 3597 1894 
L 3597 1613 
L 953 1613 
Q 991 1019 1311 708 
Q 1631 397 2203 397 
Q 2534 397 2845 478 
Q 3156 559 3463 722 
L 3463 178 
Q 3153 47 2828 -22 
Q 2503 -91 2169 -91 
Q 1331 -91 842 396 
Q 353 884 353 1716 
Q 353 2575 817 3079 
Q 1281 3584 2069 3584 
Q 2775 3584 3186 3129 
Q 3597 2675 3597 1894 
z
M 3022 2063 
Q 3016 2534 2758 2815 
Q 2500 3097 2075 3097 
Q 1594 3097 1305 2825 
Q 1016 2553 972 2059 
L 3022 2063 
z
" transform="scale(0.015625)"/>
      </defs>
      <use xlink:href="#DejaVuSans-2b"/>
      <use xlink:href="#DejaVuSans-31" x="83.789062"/>
      <use xlink:href="#DejaVuSans-2e" x="147.412109"/>
      <use xlink:href="#DejaVuSans-30" x="179.199219"/>
      <use xlink:href="#DejaVuSans-31" x="242.822266"/>
      <use xlink:href="#DejaVuSans-33" x="306.445312"/>
      <use xlink:href="#DejaVuSans-32" x="370.068359"/>
      <use xlink:href="#DejaVuSans-65" x="433.691406"/>
      <use xlink:href="#DejaVuSans-35" x="495.214844"/>
     </g>
    </g>
   </g>
   <g id="line2d_15">
    <path d="M 73.832727 181.901782 
L 74.567794 174.640261 
L 74.812816 174.484712 
L 75.302861 176.372548 
L 75.547883 177.631975 
L 76.037928 182.663872 
L 76.772995 190.601103 
L 77.018017 192.554627 
L 77.263039 193.286358 
L 77.508062 192.88086 
L 78.488151 187.425997 
L 78.733173 188.231 
L 78.978196 189.833712 
L 79.223218 190.570373 
L 79.46824 189.838195 
L 79.958285 186.380859 
L 80.203307 187.123944 
L 80.448329 188.848213 
L 80.693352 189.270575 
L 80.938374 189.348724 
L 81.183396 188.779259 
L 81.673441 185.638644 
L 82.65353 177.679953 
L 83.388597 173.576379 
L 83.633619 171.39738 
L 83.878642 170.733063 
L 84.123664 172.144294 
L 84.613708 179.65081 
L 85.348775 191.678155 
L 85.593798 193.845815 
L 85.83882 194.656735 
L 86.083842 194.728526 
L 86.328864 194.287985 
L 87.308954 190.713598 
L 87.798998 188.128315 
L 88.044021 187.731671 
L 88.779087 190.437967 
L 89.02411 191.134457 
L 89.269132 190.82791 
L 90.004199 188.419243 
L 90.494244 184.160221 
L 91.22931 176.126935 
L 91.719355 169.563253 
L 91.964377 168.456558 
L 92.2094 168.427728 
L 92.454422 169.680043 
L 92.944467 174.821911 
L 94.659623 194.879945 
L 94.904645 195.852418 
L 95.149667 194.586067 
L 95.639712 190.290088 
L 95.884734 189.509434 
L 96.129756 189.474173 
L 96.864823 190.720966 
L 97.109846 190.747899 
L 97.354868 190.626204 
L 97.59989 191.046916 
L 98.334957 191.581256 
L 98.579979 190.542487 
L 99.070024 183.792892 
L 99.560069 177.344868 
L 100.295136 169.993813 
L 100.78518 167.127369 
L 101.030202 166.935124 
L 101.275225 169.043247 
L 101.765269 177.304034 
L 102.255314 186.436952 
L 102.745358 191.868208 
L 102.990381 192.609435 
L 103.725448 196.267667 
L 103.97047 195.612424 
L 104.460515 194.017368 
L 104.705537 193.529608 
L 104.950559 193.352105 
L 105.440604 194.276296 
L 105.685626 194.608091 
L 105.930648 194.748167 
L 106.175671 195.454446 
L 106.420693 195.685227 
L 106.665715 194.964453 
L 106.910738 194.651477 
L 107.15576 193.547407 
L 107.400782 191.042085 
L 108.625894 173.095519 
L 109.115938 169.464202 
L 109.360961 168.517099 
L 109.605983 168.091433 
L 109.851005 169.322925 
L 110.34105 175.744578 
L 111.321139 194.169062 
L 112.301228 200.88032 
L 112.54625 200.458304 
L 113.036295 198.466973 
L 113.52634 196.996189 
L 113.771362 197.310569 
L 114.261407 198.326787 
L 114.506429 198.560814 
L 114.996473 199.253029 
L 115.73154 196.808455 
L 116.221585 190.083691 
L 117.201674 172.527737 
L 117.691719 167.417958 
L 118.181763 165.316319 
L 118.426786 166.307657 
L 118.671808 169.096033 
L 119.161852 178.792958 
L 119.896919 194.928764 
L 120.386964 198.898965 
L 120.877009 202.202441 
L 121.122031 202.294789 
L 121.612075 200.625473 
L 122.10212 199.723803 
L 122.347142 200.122591 
L 122.837187 201.47208 
L 123.327232 202.021069 
L 123.572254 201.873961 
L 124.307321 198.77618 
L 124.797365 191.17443 
L 125.777455 170.945826 
L 126.267499 164.704611 
L 126.757544 162.168442 
L 127.002566 162.81805 
L 127.247588 165.539515 
L 127.737633 175.258616 
L 128.4727 193.390003 
L 128.962744 199.193699 
L 129.452789 203.914018 
L 129.697811 204.995891 
L 130.677901 203.30436 
L 130.922923 203.767477 
L 131.65799 205.937636 
L 131.903012 206.103786 
L 132.148034 205.631704 
L 132.393057 204.524401 
L 132.883101 201.593878 
L 133.128123 198.419538 
L 133.86319 181.049083 
L 134.353235 169.996941 
L 134.84328 162.533674 
L 135.333324 158.895945 
L 135.578346 158.659874 
L 135.823369 160.962444 
L 136.313413 171.134486 
L 137.293503 196.666079 
L 138.273592 208.337031 
L 138.518614 208.877258 
L 138.763636 208.369299 
L 139.008659 208.635024 
L 139.253681 208.583674 
L 139.498703 209.090744 
L 139.988748 211.653631 
L 140.23377 212.201369 
L 140.478792 212.426191 
L 140.723815 211.83305 
L 140.968837 210.71411 
L 141.458882 207.012728 
L 141.703904 204.026405 
L 142.438971 184.418207 
L 142.929015 170.794801 
L 143.664082 157.727552 
L 143.909105 155.39045 
L 144.154127 154.40974 
L 144.399149 155.646081 
L 144.889194 165.679188 
L 145.869283 195.526533 
L 146.849372 212.412794 
L 147.094395 214.887094 
L 147.339417 214.921848 
L 147.584439 215.333019 
L 148.074484 216.568486 
L 148.809551 220.756342 
L 149.054573 221.098844 
L 149.299595 220.734884 
L 149.78964 217.788489 
L 150.279684 212.60558 
L 150.769729 198.717016 
L 151.99484 162.2518 
L 152.484885 153.227447 
L 152.729907 150.934493 
L 152.97493 150.193648 
L 153.219952 152.696992 
L 153.709997 165.168801 
L 154.935108 202.897604 
L 155.915197 222.170315 
L 156.405242 224.44053 
L 156.650264 225.772546 
L 157.385331 232.499112 
L 157.630353 232.79033 
L 157.875376 232.446595 
L 158.120398 231.123173 
L 158.610443 226.944805 
L 158.855465 223.604783 
L 159.100487 218.444373 
L 161.060666 151.104836 
L 161.55071 142.861856 
L 161.795732 142.717865 
L 162.040755 146.352925 
L 162.530799 160.780679 
L 164.245955 218.137884 
L 164.736 229.283618 
L 165.226045 234.076133 
L 166.206134 245.971842 
L 166.451156 246.054909 
L 166.696178 245.794584 
L 167.186223 241.798646 
L 167.431245 239.432604 
L 167.676268 234.680328 
L 168.166312 215.937281 
L 169.146401 171.143351 
L 169.881468 144.494902 
L 170.371513 133.345041 
L 170.616535 133.058543 
L 170.861557 135.927979 
L 171.10658 141.328645 
L 172.086669 175.491278 
L 173.556803 232.028316 
L 175.026937 261.328508 
L 175.271959 261.987457 
L 175.516981 261.956789 
L 175.762003 261.029498 
L 176.252048 256.512219 
L 176.49707 251.249384 
L 176.987115 229.372191 
L 178.702271 139.410173 
L 179.192316 122.663614 
L 179.437338 119.024162 
L 179.68236 119.711407 
L 179.927383 122.140386 
L 180.417427 133.70274 
L 181.152494 160.039164 
L 182.86765 240.199951 
L 183.847739 272.678653 
L 184.337784 277.252795 
L 184.582806 279.669784 
L 184.827828 280.888297 
L 185.072851 279.169336 
L 185.317873 274.497551 
L 185.562895 266.439026 
L 186.542985 211.572886 
L 188.013118 121.324522 
L 188.503163 105.966541 
L 188.748185 102.949743 
L 188.993208 102.076676 
L 189.23823 102.655747 
L 189.483252 105.181183 
L 189.973297 117.450277 
L 190.463341 136.422246 
L 191.688453 207.663162 
L 192.668542 261.580712 
L 193.158587 277.24232 
L 193.893654 294.870862 
L 194.138676 295.488 
L 194.383698 292.047818 
L 194.873743 277.977397 
L 195.60881 239.783426 
L 197.568988 110.417649 
L 198.304055 85.275913 
L 198.794099 77.529229 
L 199.039122 78.011599 
L 199.529166 83.976934 
L 199.774189 89.456166 
L 200.264233 109.534535 
L 200.9993 156.846363 
L 201.734367 209.830442 
L 203.204501 283.18607 
L 203.449523 288.552759 
L 203.694545 290.793398 
L 203.939568 290.835962 
L 204.18459 289.352147 
L 204.429612 285.714884 
L 204.919657 266.958737 
L 205.654724 221.349221 
L 206.879835 143.640258 
L 207.859925 95.243084 
L 208.594991 70.46529 
L 209.085036 60.252065 
L 209.330058 57.61377 
L 209.575081 57.282118 
L 209.820103 59.671486 
L 210.065125 65.489034 
L 210.55517 87.190392 
L 211.290237 134.089857 
L 212.515348 216.721572 
L 213.250415 252.297707 
L 213.74046 265.521878 
L 214.475527 272.774864 
L 214.720549 269.992955 
L 215.210593 256.483729 
L 215.700638 234.96156 
L 216.680727 185.305631 
L 217.660816 140.675 
L 218.640906 104.033218 
L 219.866017 60.325245 
L 220.111039 55.056687 
L 220.356062 53.568 
L 220.601084 56.468574 
L 221.091129 69.65812 
L 221.581173 90.454644 
L 222.31624 130.810829 
L 223.296329 186.498091 
L 224.276419 228.29661 
L 224.766463 241.463501 
L 225.011485 245.233276 
L 225.256508 246.602333 
L 225.50153 245.744679 
L 225.746552 242.606217 
L 226.236597 231.064441 
L 228.196775 168.688962 
L 228.931842 148.868979 
L 231.137043 80.423611 
L 231.382065 76.005652 
L 231.627087 74.21448 
L 231.87211 74.344377 
L 232.362154 78.788476 
L 232.607177 83.812424 
L 233.342244 109.174912 
L 235.547444 200.82293 
L 236.037489 213.261077 
L 236.282511 216.18791 
L 236.527533 217.318763 
L 236.772556 216.781883 
L 237.017578 215.854686 
L 237.2626 214.067928 
L 237.752645 207.468315 
L 238.732734 183.373174 
L 239.222779 171.955886 
L 240.202868 157.896628 
L 240.44789 155.228927 
L 241.427979 137.265608 
L 243.143136 95.71146 
L 243.388158 92.487467 
L 243.63318 91.286613 
L 243.878202 92.248401 
L 244.123225 94.690919 
L 244.613269 104.265624 
L 245.593358 128.586039 
L 247.063492 176.093122 
L 247.798559 192.927739 
L 248.288604 198.433061 
L 248.533626 199.939244 
L 248.778648 199.685105 
L 249.268693 195.206595 
L 251.228871 164.531313 
L 251.718916 160.399729 
L 252.208961 159.497781 
L 252.453983 158.422196 
L 252.699005 156.671955 
L 253.18905 150.343795 
L 253.679094 141.94362 
L 254.904206 118.9206 
L 255.39425 113.540598 
L 255.884295 110.548245 
L 256.129317 111.067868 
L 256.619362 114.77968 
L 257.109407 121.273876 
L 257.844473 136.635999 
L 258.824563 162.118103 
L 259.55963 179.717893 
L 260.049674 186.083573 
L 260.539719 189.155068 
L 260.784741 190.171841 
L 261.029763 190.055536 
L 261.274786 188.168943 
L 262.009852 179.409561 
L 262.499897 172.24203 
L 262.989942 167.780823 
L 263.479986 165.566071 
L 263.970031 163.982831 
L 264.705098 161.738977 
L 265.195142 158.603001 
L 265.685187 154.482319 
L 266.175232 148.337023 
L 267.400343 131.628541 
L 267.890388 127.871881 
L 268.13541 126.725282 
L 268.380432 126.173611 
L 268.625455 125.929885 
L 268.870477 126.216137 
L 269.115499 127.562849 
L 269.605544 133.040818 
L 270.340611 146.898241 
L 271.810744 176.334929 
L 272.545811 186.016661 
L 272.790834 187.085016 
L 273.035856 187.392672 
L 273.280878 186.973705 
L 273.525901 185.78836 
L 274.260967 179.757549 
L 275.486079 168.970234 
L 275.976123 166.398557 
L 276.221146 166.191698 
L 276.466168 166.154137 
L 276.956213 166.498609 
L 277.201235 166.184301 
L 277.446257 165.187308 
L 278.671369 156.418037 
L 280.631547 137.56465 
L 280.876569 136.69198 
L 281.121592 136.314573 
L 281.366614 136.544683 
L 281.611636 137.872676 
L 282.101681 143.13456 
L 282.836748 153.047548 
L 284.551904 181.714388 
L 285.041949 185.565824 
L 285.286971 186.54832 
L 285.531993 186.757471 
L 286.022038 185.250396 
L 286.512082 181.901229 
L 287.982216 170.37384 
L 288.227238 169.559742 
L 288.717283 169.077925 
L 289.207328 169.197062 
L 289.45235 169.102001 
L 289.942395 168.547452 
L 290.432439 166.87452 
L 290.922484 164.795145 
L 291.657551 158.838041 
L 292.882662 147.919103 
L 293.372707 145.740571 
L 293.617729 145.215302 
L 293.862751 145.080543 
L 294.107774 145.915088 
L 294.597818 149.191006 
L 295.087863 153.742379 
L 295.82293 165.283318 
L 296.557997 176.299857 
L 297.293063 184.078382 
L 297.783108 186.394339 
L 298.02813 186.534139 
L 298.273153 186.337165 
L 298.518175 185.53267 
L 299.00822 182.682324 
L 300.478353 172.153519 
L 300.968398 171.05278 
L 301.458443 170.637348 
L 301.948487 170.889369 
L 302.438532 171.50826 
L 302.683554 171.300637 
L 303.418621 169.379143 
L 303.908666 166.79849 
L 304.643732 160.897828 
L 305.133777 156.614063 
L 305.623822 153.714851 
L 306.113866 151.798707 
L 306.358889 151.344329 
L 306.603911 151.532905 
L 306.848933 152.354943 
L 307.338978 155.411832 
L 307.829022 160.302952 
L 309.544178 181.945469 
L 310.034223 185.399882 
L 310.279245 186.336681 
L 310.524268 186.696001 
L 310.76929 186.451745 
L 311.014312 185.918028 
L 311.504357 183.67371 
L 312.729468 175.194496 
L 313.464535 172.69562 
L 313.709557 172.28334 
L 313.95458 172.128812 
L 314.199602 172.251458 
L 315.179691 173.979408 
L 316.15978 172.246857 
L 316.649825 169.874577 
L 317.384892 164.441525 
L 317.874937 161.171891 
L 318.610003 157.522899 
L 318.855026 156.673254 
L 319.100048 156.350868 
L 319.34507 156.556629 
L 319.590093 157.494077 
L 320.080137 160.616814 
L 320.570182 165.278966 
L 322.040316 181.956497 
L 322.53036 185.32229 
L 322.775383 186.466452 
L 323.020405 187.026589 
L 323.265427 186.944511 
L 323.510449 186.596997 
L 323.755472 186.000179 
L 324.000494 184.996056 
L 325.470628 176.055386 
L 326.205695 173.84039 
L 326.450717 173.724435 
L 326.695739 173.776511 
L 326.940762 174.162787 
L 327.675828 175.881797 
L 327.920851 176.011256 
L 328.410895 175.551271 
L 328.655918 175.451882 
L 328.90094 175.000788 
L 329.390985 172.684116 
L 331.106141 162.578543 
L 331.596185 160.83492 
L 331.841208 160.54628 
L 332.08623 160.953099 
L 332.576274 163.342204 
L 333.066319 166.820232 
L 333.801386 174.437281 
L 334.536453 181.832047 
L 335.026497 185.17203 
L 335.516542 187.250952 
L 335.761564 187.503712 
L 336.006587 187.314081 
L 336.251609 186.941619 
L 336.496631 186.288951 
L 336.986676 183.619775 
L 337.721743 179.264193 
L 338.45681 176.175034 
L 338.701832 175.39339 
L 338.946854 175.14248 
L 339.191877 175.13853 
L 339.436899 175.375419 
L 340.416988 177.67446 
L 340.66201 177.844351 
L 341.152055 177.704409 
L 341.397077 177.710919 
L 341.642099 177.153161 
L 342.132144 174.93916 
L 344.092322 164.868694 
L 344.337345 164.222561 
L 344.582367 164.060947 
L 344.827389 164.596849 
L 345.317434 166.774524 
L 345.807479 169.960224 
L 346.542545 176.931378 
L 347.277612 183.438083 
L 348.012679 187.266813 
L 348.257702 187.809933 
L 348.502724 187.901029 
L 348.747746 187.687025 
L 348.992768 187.247473 
L 349.237791 186.463225 
L 349.727835 183.821397 
L 350.21788 181.015238 
L 351.197969 177.099722 
L 351.442991 176.570697 
L 351.688014 176.443283 
L 351.933036 176.552606 
L 352.178058 176.939711 
L 352.913125 178.72351 
L 353.40317 179.391956 
L 353.648192 179.372162 
L 353.893214 179.572113 
L 354.138237 179.519193 
L 354.383259 178.973991 
L 355.118326 175.872519 
L 356.098415 170.899735 
L 356.833482 167.64908 
L 357.078504 167.068625 
L 357.323527 167.031383 
L 357.813571 168.460281 
L 358.303616 170.839042 
L 358.79366 174.291603 
L 360.018772 184.491883 
L 360.508816 186.961226 
L 360.753839 187.788545 
L 360.998861 188.2094 
L 361.243883 188.229345 
L 361.488906 188.005966 
L 361.97895 186.776601 
L 362.468995 184.177406 
L 363.204062 180.668003 
L 363.939129 177.93449 
L 364.184151 177.520166 
L 364.429173 177.489597 
L 364.674196 177.71113 
L 366.144329 180.722833 
L 366.879396 180.967163 
L 367.369441 179.512192 
L 367.859485 177.63429 
L 369.574642 169.93505 
L 369.819664 169.403007 
L 370.064686 169.440743 
L 370.309708 169.96557 
L 370.799753 171.778603 
L 371.289798 174.323611 
L 373.004954 186.512409 
L 373.494998 188.18484 
L 373.740021 188.516876 
L 373.985043 188.555732 
L 374.230065 188.237652 
L 374.72011 186.967225 
L 376.190244 180.355585 
L 376.680288 178.808678 
L 376.92531 178.507712 
L 377.170333 178.528993 
L 377.415355 178.834498 
L 378.885489 181.807957 
L 379.375533 182.212838 
L 379.620556 182.097226 
L 380.1106 180.844653 
L 380.600645 179.18261 
L 382.070779 172.723552 
L 382.560823 171.451581 
L 382.805846 171.467002 
L 383.050868 171.905155 
L 383.540913 173.509333 
L 384.030957 175.781648 
L 385.746113 186.961099 
L 386.236158 188.358446 
L 386.48118 188.675757 
L 386.726202 188.682798 
L 387.216247 187.851055 
L 387.706292 186.049539 
L 388.441358 182.662535 
L 389.421448 179.370798 
L 389.66647 179.07859 
L 389.911492 179.145058 
L 390.401537 180.021338 
L 391.626648 182.572717 
L 392.116693 182.957831 
L 392.361715 182.859854 
L 392.85176 181.701155 
L 393.341804 180.203222 
L 395.056961 173.23019 
L 395.301983 172.781408 
L 395.547005 172.81545 
L 395.792027 173.219157 
L 396.282072 174.672485 
L 396.772117 176.7804 
L 398.487273 186.93419 
L 398.487273 186.93419 
" clip-path="url(#p9b8b7c7a2f)" style="fill: none; stroke: #1f77b4; stroke-width: 1.5; stroke-linecap: square"/>
   </g>
   <g id="patch_3">
    <path d="M 57.6 307.584 
L 57.6 41.472 
" style="fill: none; stroke: #000000; stroke-width: 0.8; stroke-linejoin: miter; stroke-linecap: square"/>
   </g>
   <g id="patch_4">
    <path d="M 414.72 307.584 
L 414.72 41.472 
" style="fill: none; stroke: #000000; stroke-width: 0.8; stroke-linejoin: miter; stroke-linecap: square"/>
   </g>
   <g id="patch_5">
    <path d="M 57.6 307.584 
L 414.72 307.584 
" style="fill: none; stroke: #000000; stroke-width: 0.8; stroke-linejoin: miter; stroke-linecap: square"/>
   </g>
   <g id="patch_6">
    <path d="M 57.6 41.472 
L 414.72 41.472 
" style="fill: none; stroke: #000000; stroke-width: 0.8; stroke-linejoin: miter; stroke-linecap: square"/>
   </g>
   <g id="text_18">
    <!-- Obs2 p(t) -->
    <g transform="translate(207.934687 35.472) scale(0.12 -0.12)">
     <defs>
      <path id="DejaVuSans-4f" d="M 2522 4238 
Q 1834 4238 1429 3725 
Q 1025 3213 1025 2328 
Q 1025 1447 1429 934 
Q 1834 422 2522 422 
Q 3209 422 3611 934 
Q 4013 1447 4013 2328 
Q 4013 3213 3611 3725 
Q 3209 4238 2522 4238 
z
M 2522 4750 
Q 3503 4750 4090 4092 
Q 4678 3434 4678 2328 
Q 4678 1225 4090 567 
Q 3503 -91 2522 -91 
Q 1538 -91 948 565 
Q 359 1222 359 2328 
Q 359 3434 948 4092 
Q 1538 4750 2522 4750 
z
" transform="scale(0.015625)"/>
      <path id="DejaVuSans-62" d="M 3116 1747 
Q 3116 2381 2855 2742 
Q 2594 3103 2138 3103 
Q 1681 3103 1420 2742 
Q 1159 2381 1159 1747 
Q 1159 1113 1420 752 
Q 1681 391 2138 391 
Q 2594 391 2855 752 
Q 3116 1113 3116 1747 
z
M 1159 2969 
Q 1341 3281 1617 3432 
Q 1894 3584 2278 3584 
Q 2916 3584 3314 3078 
Q 3713 2572 3713 1747 
Q 3713 922 3314 415 
Q 2916 -91 2278 -91 
Q 1894 -91 1617 61 
Q 1341 213 1159 525 
L 1159 0 
L 581 0 
L 581 4863 
L 1159 4863 
L 1159 2969 
z
" transform="scale(0.015625)"/>
     </defs>
     <use xlink:href="#DejaVuSans-4f"/>
     <use xlink:href="#DejaVuSans-62" x="78.710938"/>
     <use xlink:href="#DejaVuSans-73" x="142.1875"/>
     <use xlink:href="#DejaVuSans-32" x="194.287109"/>
     <use xlink:href="#DejaVuSans-20" x="257.910156"/>
     <use xlink:href="#DejaVuSans-70" x="289.697266"/>
     <use xlink:href="#DejaVuSans-28" x="353.173828"/>
     <use xlink:href="#DejaVuSans-74" x="392.1875"/>
     <use xlink:href="#DejaVuSans-29" x="431.396484"/>
    </g>
   </g>
  </g>
 </g>
 <defs>
  <clipPath id="p9b8b7c7a2f">
   <rect x="57.6" y="41.472" width="357.12" height="266.112"/>
  </clipPath>
 </defs>
</svg>
