<?xml version="1.0" encoding="utf-8" standalone="no"?>
<!DOCTYPE svg PUBLIC "-//W3C//DTD SVG 1.1//EN"
  "http://www.w3.org/Graphics/SVG/1.1/DTD/svg11.dtd">
<svg xmlns:xlink="http://www.w3.org/1999/xlink" width="460.8pt" height="345.6pt" viewBox="0 0 460.8 345.6" xmlns="http://www.w3.org/2000/svg" version="1.1">
 <metadata>
  <rdf:RDF xmlns:dc="http://purl.org/dc/elements/1.1/" xmlns:cc="http://creativecommons.org/ns#" xmlns:rdf="http://www.w3.org/1999/02/22-rdf-syntax-ns#">
   <cc:Work>
    <dc:type rdf:resource="http://purl.org/dc/dcmitype/StillImage"/>
    <dc:date>2025-01-10T16:39:48.578089</dc:date>
    <dc:format>image/svg+xml</dc:format>
    <dc:creator>
     <cc:Agent>
      <dc:title>Matplotlib v3.7.0, https://matplotlib.org/</dc:title>
     </cc:Agent>
    </dc:creator>
   </cc:Work>
  </rdf:RDF>
 </metadata>
 <defs>
  <style type="text/css">*{stroke-linejoin: round; stroke-linecap: butt}</style>
 </defs>
 <g id="figure_1">
  <g id="patch_1">
   <path d="M 0 345.6 
L 460.8 345.6 
L 460.8 0 
L 0 0 
z
" style="fill: #ffffff"/>
  </g>
  <g id="axes_1">
   <g id="patch_2">
    <path d="M 57.6 307.584 
L 414.72 307.584 
L 414.72 41.472 
L 57.6 41.472 
z
" style="fill: #ffffff"/>
   </g>
   <g id="matplotlib.axis_1">
    <g id="xtick_1">
     <g id="line2d_1">
      <defs>
       <path id="m191fad6f71" d="M 0 0 
L 0 3.5 
" style="stroke: #000000; stroke-width: 0.8"/>
      </defs>
      <g>
       <use xlink:href="#m191fad6f71" x="110.043117" y="307.584" style="stroke: #000000; stroke-width: 0.8"/>
      </g>
     </g>
     <g id="text_1">
      <!-- $\mathdefault{10^{0}}$ -->
      <g transform="translate(101.243117 322.182437) scale(0.1 -0.1)">
       <defs>
        <path id="DejaVuSans-31" d="M 794 531 
L 1825 531 
L 1825 4091 
L 703 3866 
L 703 4441 
L 1819 4666 
L 2450 4666 
L 2450 531 
L 3481 531 
L 3481 0 
L 794 0 
L 794 531 
z
" transform="scale(0.015625)"/>
        <path id="DejaVuSans-30" d="M 2034 4250 
Q 1547 4250 1301 3770 
Q 1056 3291 1056 2328 
Q 1056 1369 1301 889 
Q 1547 409 2034 409 
Q 2525 409 2770 889 
Q 3016 1369 3016 2328 
Q 3016 3291 2770 3770 
Q 2525 4250 2034 4250 
z
M 2034 4750 
Q 2819 4750 3233 4129 
Q 3647 3509 3647 2328 
Q 3647 1150 3233 529 
Q 2819 -91 2034 -91 
Q 1250 -91 836 529 
Q 422 1150 422 2328 
Q 422 3509 836 4129 
Q 1250 4750 2034 4750 
z
" transform="scale(0.015625)"/>
       </defs>
       <use xlink:href="#DejaVuSans-31" transform="translate(0 0.765625)"/>
       <use xlink:href="#DejaVuSans-30" transform="translate(63.623047 0.765625)"/>
       <use xlink:href="#DejaVuSans-30" transform="translate(128.203125 39.046875) scale(0.7)"/>
      </g>
     </g>
    </g>
    <g id="xtick_2">
     <g id="line2d_2">
      <g>
       <use xlink:href="#m191fad6f71" x="230.331429" y="307.584" style="stroke: #000000; stroke-width: 0.8"/>
      </g>
     </g>
     <g id="text_2">
      <!-- $\mathdefault{10^{1}}$ -->
      <g transform="translate(221.531429 322.182437) scale(0.1 -0.1)">
       <use xlink:href="#DejaVuSans-31" transform="translate(0 0.684375)"/>
       <use xlink:href="#DejaVuSans-30" transform="translate(63.623047 0.684375)"/>
       <use xlink:href="#DejaVuSans-31" transform="translate(128.203125 38.965625) scale(0.7)"/>
      </g>
     </g>
    </g>
    <g id="xtick_3">
     <g id="line2d_3">
      <g>
       <use xlink:href="#m191fad6f71" x="350.619741" y="307.584" style="stroke: #000000; stroke-width: 0.8"/>
      </g>
     </g>
     <g id="text_3">
      <!-- $\mathdefault{10^{2}}$ -->
      <g transform="translate(341.819741 322.182437) scale(0.1 -0.1)">
       <defs>
        <path id="DejaVuSans-32" d="M 1228 531 
L 3431 531 
L 3431 0 
L 469 0 
L 469 531 
Q 828 903 1448 1529 
Q 2069 2156 2228 2338 
Q 2531 2678 2651 2914 
Q 2772 3150 2772 3378 
Q 2772 3750 2511 3984 
Q 2250 4219 1831 4219 
Q 1534 4219 1204 4116 
Q 875 4013 500 3803 
L 500 4441 
Q 881 4594 1212 4672 
Q 1544 4750 1819 4750 
Q 2544 4750 2975 4387 
Q 3406 4025 3406 3419 
Q 3406 3131 3298 2873 
Q 3191 2616 2906 2266 
Q 2828 2175 2409 1742 
Q 1991 1309 1228 531 
z
" transform="scale(0.015625)"/>
       </defs>
       <use xlink:href="#DejaVuSans-31" transform="translate(0 0.765625)"/>
       <use xlink:href="#DejaVuSans-30" transform="translate(63.623047 0.765625)"/>
       <use xlink:href="#DejaVuSans-32" transform="translate(128.203125 39.046875) scale(0.7)"/>
      </g>
     </g>
    </g>
    <g id="xtick_4">
     <g id="line2d_4">
      <defs>
       <path id="mae0c236c26" d="M 0 0 
L 0 2 
" style="stroke: #000000; stroke-width: 0.6"/>
      </defs>
      <g>
       <use xlink:href="#mae0c236c26" x="62.175585" y="307.584" style="stroke: #000000; stroke-width: 0.6"/>
      </g>
     </g>
    </g>
    <g id="xtick_5">
     <g id="line2d_5">
      <g>
       <use xlink:href="#mae0c236c26" x="73.832727" y="307.584" style="stroke: #000000; stroke-width: 0.6"/>
      </g>
     </g>
    </g>
    <g id="xtick_6">
     <g id="line2d_6">
      <g>
       <use xlink:href="#mae0c236c26" x="83.357306" y="307.584" style="stroke: #000000; stroke-width: 0.6"/>
      </g>
     </g>
    </g>
    <g id="xtick_7">
     <g id="line2d_7">
      <g>
       <use xlink:href="#mae0c236c26" x="91.410222" y="307.584" style="stroke: #000000; stroke-width: 0.6"/>
      </g>
     </g>
    </g>
    <g id="xtick_8">
     <g id="line2d_8">
      <g>
       <use xlink:href="#mae0c236c26" x="98.385975" y="307.584" style="stroke: #000000; stroke-width: 0.6"/>
      </g>
     </g>
    </g>
    <g id="xtick_9">
     <g id="line2d_9">
      <g>
       <use xlink:href="#mae0c236c26" x="104.539026" y="307.584" style="stroke: #000000; stroke-width: 0.6"/>
      </g>
     </g>
    </g>
    <g id="xtick_10">
     <g id="line2d_10">
      <g>
       <use xlink:href="#mae0c236c26" x="146.253507" y="307.584" style="stroke: #000000; stroke-width: 0.6"/>
      </g>
     </g>
    </g>
    <g id="xtick_11">
     <g id="line2d_11">
      <g>
       <use xlink:href="#mae0c236c26" x="167.435228" y="307.584" style="stroke: #000000; stroke-width: 0.6"/>
      </g>
     </g>
    </g>
    <g id="xtick_12">
     <g id="line2d_12">
      <g>
       <use xlink:href="#mae0c236c26" x="182.463897" y="307.584" style="stroke: #000000; stroke-width: 0.6"/>
      </g>
     </g>
    </g>
    <g id="xtick_13">
     <g id="line2d_13">
      <g>
       <use xlink:href="#mae0c236c26" x="194.121039" y="307.584" style="stroke: #000000; stroke-width: 0.6"/>
      </g>
     </g>
    </g>
    <g id="xtick_14">
     <g id="line2d_14">
      <g>
       <use xlink:href="#mae0c236c26" x="203.645617" y="307.584" style="stroke: #000000; stroke-width: 0.6"/>
      </g>
     </g>
    </g>
    <g id="xtick_15">
     <g id="line2d_15">
      <g>
       <use xlink:href="#mae0c236c26" x="211.698534" y="307.584" style="stroke: #000000; stroke-width: 0.6"/>
      </g>
     </g>
    </g>
    <g id="xtick_16">
     <g id="line2d_16">
      <g>
       <use xlink:href="#mae0c236c26" x="218.674287" y="307.584" style="stroke: #000000; stroke-width: 0.6"/>
      </g>
     </g>
    </g>
    <g id="xtick_17">
     <g id="line2d_17">
      <g>
       <use xlink:href="#mae0c236c26" x="224.827338" y="307.584" style="stroke: #000000; stroke-width: 0.6"/>
      </g>
     </g>
    </g>
    <g id="xtick_18">
     <g id="line2d_18">
      <g>
       <use xlink:href="#mae0c236c26" x="266.541819" y="307.584" style="stroke: #000000; stroke-width: 0.6"/>
      </g>
     </g>
    </g>
    <g id="xtick_19">
     <g id="line2d_19">
      <g>
       <use xlink:href="#mae0c236c26" x="287.723539" y="307.584" style="stroke: #000000; stroke-width: 0.6"/>
      </g>
     </g>
    </g>
    <g id="xtick_20">
     <g id="line2d_20">
      <g>
       <use xlink:href="#mae0c236c26" x="302.752209" y="307.584" style="stroke: #000000; stroke-width: 0.6"/>
      </g>
     </g>
    </g>
    <g id="xtick_21">
     <g id="line2d_21">
      <g>
       <use xlink:href="#mae0c236c26" x="314.409351" y="307.584" style="stroke: #000000; stroke-width: 0.6"/>
      </g>
     </g>
    </g>
    <g id="xtick_22">
     <g id="line2d_22">
      <g>
       <use xlink:href="#mae0c236c26" x="323.933929" y="307.584" style="stroke: #000000; stroke-width: 0.6"/>
      </g>
     </g>
    </g>
    <g id="xtick_23">
     <g id="line2d_23">
      <g>
       <use xlink:href="#mae0c236c26" x="331.986846" y="307.584" style="stroke: #000000; stroke-width: 0.6"/>
      </g>
     </g>
    </g>
    <g id="xtick_24">
     <g id="line2d_24">
      <g>
       <use xlink:href="#mae0c236c26" x="338.962599" y="307.584" style="stroke: #000000; stroke-width: 0.6"/>
      </g>
     </g>
    </g>
    <g id="xtick_25">
     <g id="line2d_25">
      <g>
       <use xlink:href="#mae0c236c26" x="345.11565" y="307.584" style="stroke: #000000; stroke-width: 0.6"/>
      </g>
     </g>
    </g>
    <g id="xtick_26">
     <g id="line2d_26">
      <g>
       <use xlink:href="#mae0c236c26" x="386.830131" y="307.584" style="stroke: #000000; stroke-width: 0.6"/>
      </g>
     </g>
    </g>
    <g id="xtick_27">
     <g id="line2d_27">
      <g>
       <use xlink:href="#mae0c236c26" x="408.011851" y="307.584" style="stroke: #000000; stroke-width: 0.6"/>
      </g>
     </g>
    </g>
    <g id="text_4">
     <!-- f (Hz) -->
     <g transform="translate(222.524844 335.860562) scale(0.1 -0.1)">
      <defs>
       <path id="DejaVuSans-66" d="M 2375 4863 
L 2375 4384 
L 1825 4384 
Q 1516 4384 1395 4259 
Q 1275 4134 1275 3809 
L 1275 3500 
L 2222 3500 
L 2222 3053 
L 1275 3053 
L 1275 0 
L 697 0 
L 697 3053 
L 147 3053 
L 147 3500 
L 697 3500 
L 697 3744 
Q 697 4328 969 4595 
Q 1241 4863 1831 4863 
L 2375 4863 
z
" transform="scale(0.015625)"/>
       <path id="DejaVuSans-20" transform="scale(0.015625)"/>
       <path id="DejaVuSans-28" d="M 1984 4856 
Q 1566 4138 1362 3434 
Q 1159 2731 1159 2009 
Q 1159 1288 1364 580 
Q 1569 -128 1984 -844 
L 1484 -844 
Q 1016 -109 783 600 
Q 550 1309 550 2009 
Q 550 2706 781 3412 
Q 1013 4119 1484 4856 
L 1984 4856 
z
" transform="scale(0.015625)"/>
       <path id="DejaVuSans-48" d="M 628 4666 
L 1259 4666 
L 1259 2753 
L 3553 2753 
L 3553 4666 
L 4184 4666 
L 4184 0 
L 3553 0 
L 3553 2222 
L 1259 2222 
L 1259 0 
L 628 0 
L 628 4666 
z
" transform="scale(0.015625)"/>
       <path id="DejaVuSans-7a" d="M 353 3500 
L 3084 3500 
L 3084 2975 
L 922 459 
L 3084 459 
L 3084 0 
L 275 0 
L 275 525 
L 2438 3041 
L 353 3041 
L 353 3500 
z
" transform="scale(0.015625)"/>
       <path id="DejaVuSans-29" d="M 513 4856 
L 1013 4856 
Q 1481 4119 1714 3412 
Q 1947 2706 1947 2009 
Q 1947 1309 1714 600 
Q 1481 -109 1013 -844 
L 513 -844 
Q 928 -128 1133 580 
Q 1338 1288 1338 2009 
Q 1338 2731 1133 3434 
Q 928 4138 513 4856 
z
" transform="scale(0.015625)"/>
      </defs>
      <use xlink:href="#DejaVuSans-66"/>
      <use xlink:href="#DejaVuSans-20" x="35.205078"/>
      <use xlink:href="#DejaVuSans-28" x="66.992188"/>
      <use xlink:href="#DejaVuSans-48" x="106.005859"/>
      <use xlink:href="#DejaVuSans-7a" x="181.201172"/>
      <use xlink:href="#DejaVuSans-29" x="233.691406"/>
     </g>
    </g>
   </g>
   <g id="matplotlib.axis_2">
    <g id="ytick_1">
     <g id="line2d_28">
      <defs>
       <path id="m0d3e4219f6" d="M 0 0 
L -3.5 0 
" style="stroke: #000000; stroke-width: 0.8"/>
      </defs>
      <g>
       <use xlink:href="#m0d3e4219f6" x="57.6" y="280.453023" style="stroke: #000000; stroke-width: 0.8"/>
      </g>
     </g>
     <g id="text_5">
      <!-- −20 -->
      <g transform="translate(29.495313 284.252242) scale(0.1 -0.1)">
       <defs>
        <path id="DejaVuSans-2212" d="M 678 2272 
L 4684 2272 
L 4684 1741 
L 678 1741 
L 678 2272 
z
" transform="scale(0.015625)"/>
       </defs>
       <use xlink:href="#DejaVuSans-2212"/>
       <use xlink:href="#DejaVuSans-32" x="83.789062"/>
       <use xlink:href="#DejaVuSans-30" x="147.412109"/>
      </g>
     </g>
    </g>
    <g id="ytick_2">
     <g id="line2d_29">
      <g>
       <use xlink:href="#m0d3e4219f6" x="57.6" y="239.42461" style="stroke: #000000; stroke-width: 0.8"/>
      </g>
     </g>
     <g id="text_6">
      <!-- 0 -->
      <g transform="translate(44.2375 243.223829) scale(0.1 -0.1)">
       <use xlink:href="#DejaVuSans-30"/>
      </g>
     </g>
    </g>
    <g id="ytick_3">
     <g id="line2d_30">
      <g>
       <use xlink:href="#m0d3e4219f6" x="57.6" y="198.396197" style="stroke: #000000; stroke-width: 0.8"/>
      </g>
     </g>
     <g id="text_7">
      <!-- 20 -->
      <g transform="translate(37.875 202.195416) scale(0.1 -0.1)">
       <use xlink:href="#DejaVuSans-32"/>
       <use xlink:href="#DejaVuSans-30" x="63.623047"/>
      </g>
     </g>
    </g>
    <g id="ytick_4">
     <g id="line2d_31">
      <g>
       <use xlink:href="#m0d3e4219f6" x="57.6" y="157.367784" style="stroke: #000000; stroke-width: 0.8"/>
      </g>
     </g>
     <g id="text_8">
      <!-- 40 -->
      <g transform="translate(37.875 161.167003) scale(0.1 -0.1)">
       <defs>
        <path id="DejaVuSans-34" d="M 2419 4116 
L 825 1625 
L 2419 1625 
L 2419 4116 
z
M 2253 4666 
L 3047 4666 
L 3047 1625 
L 3713 1625 
L 3713 1100 
L 3047 1100 
L 3047 0 
L 2419 0 
L 2419 1100 
L 313 1100 
L 313 1709 
L 2253 4666 
z
" transform="scale(0.015625)"/>
       </defs>
       <use xlink:href="#DejaVuSans-34"/>
       <use xlink:href="#DejaVuSans-30" x="63.623047"/>
      </g>
     </g>
    </g>
    <g id="ytick_5">
     <g id="line2d_32">
      <g>
       <use xlink:href="#m0d3e4219f6" x="57.6" y="116.339371" style="stroke: #000000; stroke-width: 0.8"/>
      </g>
     </g>
     <g id="text_9">
      <!-- 60 -->
      <g transform="translate(37.875 120.13859) scale(0.1 -0.1)">
       <defs>
        <path id="DejaVuSans-36" d="M 2113 2584 
Q 1688 2584 1439 2293 
Q 1191 2003 1191 1497 
Q 1191 994 1439 701 
Q 1688 409 2113 409 
Q 2538 409 2786 701 
Q 3034 994 3034 1497 
Q 3034 2003 2786 2293 
Q 2538 2584 2113 2584 
z
M 3366 4563 
L 3366 3988 
Q 3128 4100 2886 4159 
Q 2644 4219 2406 4219 
Q 1781 4219 1451 3797 
Q 1122 3375 1075 2522 
Q 1259 2794 1537 2939 
Q 1816 3084 2150 3084 
Q 2853 3084 3261 2657 
Q 3669 2231 3669 1497 
Q 3669 778 3244 343 
Q 2819 -91 2113 -91 
Q 1303 -91 875 529 
Q 447 1150 447 2328 
Q 447 3434 972 4092 
Q 1497 4750 2381 4750 
Q 2619 4750 2861 4703 
Q 3103 4656 3366 4563 
z
" transform="scale(0.015625)"/>
       </defs>
       <use xlink:href="#DejaVuSans-36"/>
       <use xlink:href="#DejaVuSans-30" x="63.623047"/>
      </g>
     </g>
    </g>
    <g id="ytick_6">
     <g id="line2d_33">
      <g>
       <use xlink:href="#m0d3e4219f6" x="57.6" y="75.310958" style="stroke: #000000; stroke-width: 0.8"/>
      </g>
     </g>
     <g id="text_10">
      <!-- 80 -->
      <g transform="translate(37.875 79.110177) scale(0.1 -0.1)">
       <defs>
        <path id="DejaVuSans-38" d="M 2034 2216 
Q 1584 2216 1326 1975 
Q 1069 1734 1069 1313 
Q 1069 891 1326 650 
Q 1584 409 2034 409 
Q 2484 409 2743 651 
Q 3003 894 3003 1313 
Q 3003 1734 2745 1975 
Q 2488 2216 2034 2216 
z
M 1403 2484 
Q 997 2584 770 2862 
Q 544 3141 544 3541 
Q 544 4100 942 4425 
Q 1341 4750 2034 4750 
Q 2731 4750 3128 4425 
Q 3525 4100 3525 3541 
Q 3525 3141 3298 2862 
Q 3072 2584 2669 2484 
Q 3125 2378 3379 2068 
Q 3634 1759 3634 1313 
Q 3634 634 3220 271 
Q 2806 -91 2034 -91 
Q 1263 -91 848 271 
Q 434 634 434 1313 
Q 434 1759 690 2068 
Q 947 2378 1403 2484 
z
M 1172 3481 
Q 1172 3119 1398 2916 
Q 1625 2713 2034 2713 
Q 2441 2713 2670 2916 
Q 2900 3119 2900 3481 
Q 2900 3844 2670 4047 
Q 2441 4250 2034 4250 
Q 1625 4250 1398 4047 
Q 1172 3844 1172 3481 
z
" transform="scale(0.015625)"/>
       </defs>
       <use xlink:href="#DejaVuSans-38"/>
       <use xlink:href="#DejaVuSans-30" x="63.623047"/>
      </g>
     </g>
    </g>
    <g id="text_11">
     <!-- dB -->
     <g transform="translate(23.415625 181.132688) rotate(-90) scale(0.1 -0.1)">
      <defs>
       <path id="DejaVuSans-64" d="M 2906 2969 
L 2906 4863 
L 3481 4863 
L 3481 0 
L 2906 0 
L 2906 525 
Q 2725 213 2448 61 
Q 2172 -91 1784 -91 
Q 1150 -91 751 415 
Q 353 922 353 1747 
Q 353 2572 751 3078 
Q 1150 3584 1784 3584 
Q 2172 3584 2448 3432 
Q 2725 3281 2906 2969 
z
M 947 1747 
Q 947 1113 1208 752 
Q 1469 391 1925 391 
Q 2381 391 2643 752 
Q 2906 1113 2906 1747 
Q 2906 2381 2643 2742 
Q 2381 3103 1925 3103 
Q 1469 3103 1208 2742 
Q 947 2381 947 1747 
z
" transform="scale(0.015625)"/>
       <path id="DejaVuSans-42" d="M 1259 2228 
L 1259 519 
L 2272 519 
Q 2781 519 3026 730 
Q 3272 941 3272 1375 
Q 3272 1813 3026 2020 
Q 2781 2228 2272 2228 
L 1259 2228 
z
M 1259 4147 
L 1259 2741 
L 2194 2741 
Q 2656 2741 2882 2914 
Q 3109 3088 3109 3444 
Q 3109 3797 2882 3972 
Q 2656 4147 2194 4147 
L 1259 4147 
z
M 628 4666 
L 2241 4666 
Q 2963 4666 3353 4366 
Q 3744 4066 3744 3513 
Q 3744 3084 3544 2831 
Q 3344 2578 2956 2516 
Q 3422 2416 3680 2098 
Q 3938 1781 3938 1306 
Q 3938 681 3513 340 
Q 3088 0 2303 0 
L 628 0 
L 628 4666 
z
" transform="scale(0.015625)"/>
      </defs>
      <use xlink:href="#DejaVuSans-64"/>
      <use xlink:href="#DejaVuSans-42" x="63.476562"/>
     </g>
    </g>
   </g>
   <g id="line2d_34">
    <path d="M -1 127.718946 
L 73.832727 127.716522 
L 110.043117 130.468642 
L 131.224838 138.520016 
L 146.253507 138.717752 
L 157.910649 148.864287 
L 167.435228 155.679411 
L 175.488144 165.319092 
L 182.463897 176.295341 
L 188.616948 176.186386 
L 194.121039 180.204786 
L 199.100095 201.814497 
L 203.645617 182.135436 
L 207.827093 184.872768 
L 211.698534 178.830273 
L 215.302759 177.949309 
L 218.674287 176.330209 
L 221.841351 164.922232 
L 224.827338 158.015835 
L 232.880254 137.207707 
L 235.310485 64.986606 
L 237.63267 53.568 
L 239.856007 66.166562 
L 241.988571 133.087513 
L 244.037483 139.108607 
L 246.009058 146.83988 
L 247.908924 151.636464 
L 249.742114 164.034964 
L 251.513149 171.081361 
L 253.226108 186.128252 
L 254.884677 183.552342 
L 256.492206 186.479483 
L 258.051741 188.275856 
L 259.566066 193.631662 
L 261.037728 187.541988 
L 262.469065 182.666975 
L 263.862229 210.423151 
L 265.219203 180.176443 
L 266.541819 172.725344 
L 267.831775 184.264556 
L 269.090644 184.024342 
L 270.31989 168.271065 
L 271.520875 166.25375 
L 272.69487 115.607766 
L 273.84306 104.848428 
L 274.966556 117.582248 
L 276.066397 160.490833 
L 277.14356 165.140633 
L 278.198961 174.355562 
L 279.233461 184.580243 
L 280.247873 198.078172 
L 281.242961 191.334923 
L 282.219448 182.005621 
L 283.178017 178.16589 
L 285.043949 191.218891 
L 285.952504 192.032345 
L 286.845526 194.424778 
L 287.723539 183.254735 
L 288.587039 178.396941 
L 289.436498 176.986253 
L 290.272364 174.297878 
L 291.095067 175.912814 
L 291.905014 181.964388 
L 292.702596 189.918382 
L 293.488183 190.167926 
L 294.262131 129.172888 
L 295.02478 118.404444 
L 295.776456 131.628864 
L 296.517469 181.222083 
L 297.248118 192.786164 
L 297.968688 197.538924 
L 298.679455 199.054673 
L 299.380681 192.227086 
L 300.072619 193.499002 
L 300.755512 190.86056 
L 301.429593 208.912806 
L 302.095087 209.676683 
L 302.752209 198.905082 
L 303.401168 193.948658 
L 304.042165 194.881196 
L 304.675391 190.675603 
L 305.919273 196.427912 
L 306.53028 194.883354 
L 307.134224 203.931201 
L 307.731265 205.316061 
L 308.32156 212.146887 
L 308.90526 208.046776 
L 309.482509 166.362065 
L 310.05345 157.201882 
L 310.618218 170.119863 
L 311.176946 200.47954 
L 312.276787 183.196578 
L 312.818145 178.156835 
L 313.35395 176.8458 
L 313.884316 177.815661 
L 314.409351 181.011896 
L 314.929162 182.175498 
L 315.443851 180.684246 
L 315.953519 174.797614 
L 316.458263 179.294561 
L 316.958176 181.054883 
L 317.943876 179.829591 
L 318.429838 177.963394 
L 318.911321 178.11985 
L 319.388407 179.980082 
L 319.861176 184.857163 
L 320.794067 190.850562 
L 321.254339 151.382205 
L 321.710592 142.844951 
L 322.162894 156.567989 
L 322.611313 195.311577 
L 323.055916 197.986414 
L 323.496767 198.728695 
L 323.933929 208.145532 
L 324.367463 208.43141 
L 324.797429 208.552065 
L 325.223885 201.666131 
L 325.646888 212.249398 
L 326.066493 206.565958 
L 326.482754 197.3536 
L 326.895725 201.529943 
L 327.305457 201.666701 
L 327.712 204.788407 
L 328.912986 197.922554 
L 329.307256 199.532047 
L 329.698573 203.035736 
L 330.08698 205.054287 
L 330.472521 205.529776 
L 330.855237 174.594156 
L 331.23517 166.843216 
L 331.986846 205.153707 
L 332.358666 205.607946 
L 332.727859 206.915475 
L 333.094461 204.005381 
L 333.458508 203.62289 
L 333.820035 209.867206 
L 334.179078 206.605803 
L 334.535671 217.439725 
L 334.889845 212.232591 
L 335.241635 204.655804 
L 335.591071 199.598944 
L 336.283009 205.906228 
L 336.625571 204.028749 
L 336.965902 200.962438 
L 337.30403 205.338103 
L 337.639983 204.117174 
L 337.973789 211.76034 
L 338.305477 209.095957 
L 338.635071 203.855796 
L 338.962599 172.057404 
L 339.288086 163.97019 
L 339.611558 178.802016 
L 339.93304 215.127854 
L 340.252555 223.471693 
L 340.885781 226.626347 
L 341.199539 231.06512 
L 341.511424 227.075697 
L 341.821458 228.72444 
L 342.129663 234.566808 
L 342.43606 228.545914 
L 343.043515 209.821789 
L 343.344614 231.692489 
L 343.941655 217.225692 
L 344.237636 219.050356 
L 344.53195 218.719935 
L 344.824615 227.679844 
L 345.405072 213.647348 
L 345.692899 211.980411 
L 345.979149 185.944495 
L 346.26384 181.757413 
L 346.828608 222.541285 
L 347.108719 224.106888 
L 347.387336 233.031138 
L 347.664475 227.020073 
L 347.940151 225.435608 
L 348.21438 233.992315 
L 348.487177 235.881868 
L 348.758558 245.457876 
L 349.028535 241.018643 
L 349.297125 221.543583 
L 349.56434 214.320238 
L 350.094706 248.788037 
L 350.357883 238.601644 
L 350.619741 222.365359 
L 351.139552 209.922512 
L 351.39753 208.409086 
L 351.654241 210.473421 
L 351.909697 215.020512 
L 352.163909 179.273683 
L 352.41689 170.685981 
L 352.668653 185.759954 
L 352.919207 225.488523 
L 353.168566 241.016275 
L 353.41674 246.39997 
L 353.909579 236.10986 
L 354.154266 236.945659 
L 354.397812 240.911 
L 354.640228 238.657775 
L 354.881524 241.959943 
L 355.121711 213.039284 
L 355.360799 221.781252 
L 355.598797 219.047977 
L 355.835716 221.406949 
L 356.071565 225.01235 
L 356.306355 234.371 
L 356.540094 258.113834 
L 357.004457 225.103458 
L 357.464729 210.963169 
L 357.693354 170.876482 
L 357.920982 165.476501 
L 358.147622 183.970005 
L 358.373284 231.765307 
L 358.821703 242.659118 
L 359.044478 240.088333 
L 359.707157 267.910505 
L 359.926196 258.377722 
L 360.361536 232.947533 
L 360.577853 234.958358 
L 360.793279 240.703282 
L 361.007819 236.579568 
L 361.221482 240.303592 
L 361.434275 256.520167 
L 361.646204 262.810314 
L 362.067502 228.057431 
L 362.485428 209.655388 
L 362.693144 172.349737 
L 362.900038 166.896421 
L 363.106115 185.737853 
L 363.311383 237.236052 
L 363.515847 246.982041 
L 363.719514 241.705743 
L 363.92239 243.855257 
L 364.124482 243.35773 
L 364.325794 243.50527 
L 364.526334 249.856819 
L 364.726107 249.475277 
L 364.925119 255.686146 
L 365.123376 225.467292 
L 365.320883 221.775973 
L 365.71367 237.859847 
L 365.908962 236.054704 
L 366.103527 236.318854 
L 366.29737 235.384713 
L 366.490496 236.644425 
L 367.065627 214.130665 
L 367.255939 179.342616 
L 367.44556 175.614706 
L 367.634495 195.406035 
L 368.010328 264.720924 
L 368.197236 261.711719 
L 368.383477 251.125007 
L 368.569056 249.50164 
L 368.753979 246.101942 
L 369.121871 248.92882 
L 369.304851 248.629609 
L 369.487191 220.373488 
L 369.668898 220.240502 
L 370.030425 250.165651 
L 370.210255 248.479056 
L 370.568069 242.937213 
L 370.746061 243.890892 
L 370.923448 244.082501 
L 371.100235 238.312685 
L 371.276426 226.063437 
L 371.452025 194.608752 
L 371.627035 190.538898 
L 371.801461 210.249418 
L 372.148576 266.604513 
L 372.493399 252.26005 
L 372.664961 252.849102 
L 372.835961 254.319818 
L 373.006404 253.837772 
L 373.345629 243.875281 
L 373.51442 235.616816 
L 373.682666 237.471779 
L 374.017543 261.189196 
L 374.350286 247.57242 
L 374.515867 244.939865 
L 374.680924 245.187315 
L 375.009482 255.530723 
L 375.335986 185.332905 
L 375.498476 181.335142 
L 375.660463 201.396612 
L 375.821948 241.671875 
L 375.982936 249.03935 
L 376.14343 247.986069 
L 376.462945 253.956205 
L 376.621972 254.015399 
L 376.938583 248.97124 
L 377.253286 226.235697 
L 377.409929 220.741765 
L 377.721814 242.535729 
L 377.877061 241.718779 
L 378.031848 241.7297 
L 378.186178 243.713892 
L 378.340053 244.030728 
L 378.493476 246.425216 
L 378.64645 257.311797 
L 379.102702 189.739441 
L 379.253905 210.764227 
L 379.404671 250.395164 
L 379.555004 257.717875 
L 379.704905 258.0979 
L 380.003423 278.525925 
L 380.152045 289.254651 
L 380.448026 279.77483 
L 380.74234 226.278067 
L 380.888878 221.881079 
L 381.035005 243.13483 
L 381.180725 282.969742 
L 381.615462 269.772785 
L 382.47423 187.503779 
L 383.038998 259.123842 
L 383.179241 258.765718 
L 383.458603 262.643099 
L 383.597726 262.327998 
L 383.736479 260.01054 
L 383.874865 262.118006 
L 384.012885 222.593216 
L 384.150541 219.847858 
L 384.42477 269.819139 
L 384.697567 259.473004 
L 384.968948 247.737534 
L 385.104111 242.682922 
L 385.238925 245.570431 
L 385.373392 239.381251 
L 385.507515 203.605033 
L 385.641293 200.382901 
L 386.173008 281.264344 
L 386.305096 283.400574 
L 386.43685 279.416578 
L 386.830131 259.62985 
L 386.960569 271.198063 
L 387.220473 235.419693 
L 387.47909 251.666469 
L 387.736433 254.928614 
L 387.992515 249.927215 
L 388.120087 250.432575 
L 388.247347 258.95773 
L 388.62728 199.645228 
L 389.00447 282.669831 
L 389.129597 270.9558 
L 389.378956 263.9718 
L 389.50319 267.379668 
L 389.750776 285.156368 
L 389.997194 237.697123 
L 390.119969 236.07695 
L 390.364656 277.819105 
L 390.486571 274.176477 
L 390.729551 289.792166 
L 390.971405 258.467875 
L 391.091914 248.521734 
L 391.451782 197.784096 
L 391.809187 268.175982 
L 392.046106 259.998933 
L 392.281955 257.55091 
L 392.399482 259.755193 
L 392.516745 276.930412 
L 392.750484 207.439967 
L 392.866962 205.568596 
L 393.214847 257.350721 
L 393.675119 282.264584 
L 394.017682 203.561627 
L 394.131372 202.535491 
L 394.470965 271.864679 
L 394.583674 269.857331 
L 394.69614 276.808179 
L 394.808364 295.488 
L 395.032093 269.359246 
L 395.143599 268.423502 
L 395.476696 218.389321 
L 395.807683 273.528642 
L 395.917547 273.601693 
L 396.245761 249.129315 
L 396.463431 242.759156 
L 396.680197 225.665615 
L 396.896067 265.60887 
L 397.111049 259.537786 
L 397.32515 270.701695 
L 397.431872 280.009986 
L 397.538377 273.421017 
L 397.644665 274.795431 
L 397.856594 219.565204 
L 397.962238 219.602102 
L 398.277891 275.764908 
L 398.487273 284.541569 
L 398.487273 284.541569 
" clip-path="url(#p9116d1b30f)" style="fill: none; stroke: #1f77b4; stroke-width: 1.5; stroke-linecap: square"/>
   </g>
   <g id="patch_3">
    <path d="M 57.6 307.584 
L 57.6 41.472 
" style="fill: none; stroke: #000000; stroke-width: 0.8; stroke-linejoin: miter; stroke-linecap: square"/>
   </g>
   <g id="patch_4">
    <path d="M 414.72 307.584 
L 414.72 41.472 
" style="fill: none; stroke: #000000; stroke-width: 0.8; stroke-linejoin: miter; stroke-linecap: square"/>
   </g>
   <g id="patch_5">
    <path d="M 57.6 307.584 
L 414.72 307.584 
" style="fill: none; stroke: #000000; stroke-width: 0.8; stroke-linejoin: miter; stroke-linecap: square"/>
   </g>
   <g id="patch_6">
    <path d="M 57.6 41.472 
L 414.72 41.472 
" style="fill: none; stroke: #000000; stroke-width: 0.8; stroke-linejoin: miter; stroke-linecap: square"/>
   </g>
   <g id="text_12">
    <!-- Obs1 PSD -->
    <g transform="translate(206.730937 35.472) scale(0.12 -0.12)">
     <defs>
      <path id="DejaVuSans-4f" d="M 2522 4238 
Q 1834 4238 1429 3725 
Q 1025 3213 1025 2328 
Q 1025 1447 1429 934 
Q 1834 422 2522 422 
Q 3209 422 3611 934 
Q 4013 1447 4013 2328 
Q 4013 3213 3611 3725 
Q 3209 4238 2522 4238 
z
M 2522 4750 
Q 3503 4750 4090 4092 
Q 4678 3434 4678 2328 
Q 4678 1225 4090 567 
Q 3503 -91 2522 -91 
Q 1538 -91 948 565 
Q 359 1222 359 2328 
Q 359 3434 948 4092 
Q 1538 4750 2522 4750 
z
" transform="scale(0.015625)"/>
      <path id="DejaVuSans-62" d="M 3116 1747 
Q 3116 2381 2855 2742 
Q 2594 3103 2138 3103 
Q 1681 3103 1420 2742 
Q 1159 2381 1159 1747 
Q 1159 1113 1420 752 
Q 1681 391 2138 391 
Q 2594 391 2855 752 
Q 3116 1113 3116 1747 
z
M 1159 2969 
Q 1341 3281 1617 3432 
Q 1894 3584 2278 3584 
Q 2916 3584 3314 3078 
Q 3713 2572 3713 1747 
Q 3713 922 3314 415 
Q 2916 -91 2278 -91 
Q 1894 -91 1617 61 
Q 1341 213 1159 525 
L 1159 0 
L 581 0 
L 581 4863 
L 1159 4863 
L 1159 2969 
z
" transform="scale(0.015625)"/>
      <path id="DejaVuSans-73" d="M 2834 3397 
L 2834 2853 
Q 2591 2978 2328 3040 
Q 2066 3103 1784 3103 
Q 1356 3103 1142 2972 
Q 928 2841 928 2578 
Q 928 2378 1081 2264 
Q 1234 2150 1697 2047 
L 1894 2003 
Q 2506 1872 2764 1633 
Q 3022 1394 3022 966 
Q 3022 478 2636 193 
Q 2250 -91 1575 -91 
Q 1294 -91 989 -36 
Q 684 19 347 128 
L 347 722 
Q 666 556 975 473 
Q 1284 391 1588 391 
Q 1994 391 2212 530 
Q 2431 669 2431 922 
Q 2431 1156 2273 1281 
Q 2116 1406 1581 1522 
L 1381 1569 
Q 847 1681 609 1914 
Q 372 2147 372 2553 
Q 372 3047 722 3315 
Q 1072 3584 1716 3584 
Q 2034 3584 2315 3537 
Q 2597 3491 2834 3397 
z
" transform="scale(0.015625)"/>
      <path id="DejaVuSans-50" d="M 1259 4147 
L 1259 2394 
L 2053 2394 
Q 2494 2394 2734 2622 
Q 2975 2850 2975 3272 
Q 2975 3691 2734 3919 
Q 2494 4147 2053 4147 
L 1259 4147 
z
M 628 4666 
L 2053 4666 
Q 2838 4666 3239 4311 
Q 3641 3956 3641 3272 
Q 3641 2581 3239 2228 
Q 2838 1875 2053 1875 
L 1259 1875 
L 1259 0 
L 628 0 
L 628 4666 
z
" transform="scale(0.015625)"/>
      <path id="DejaVuSans-53" d="M 3425 4513 
L 3425 3897 
Q 3066 4069 2747 4153 
Q 2428 4238 2131 4238 
Q 1616 4238 1336 4038 
Q 1056 3838 1056 3469 
Q 1056 3159 1242 3001 
Q 1428 2844 1947 2747 
L 2328 2669 
Q 3034 2534 3370 2195 
Q 3706 1856 3706 1288 
Q 3706 609 3251 259 
Q 2797 -91 1919 -91 
Q 1588 -91 1214 -16 
Q 841 59 441 206 
L 441 856 
Q 825 641 1194 531 
Q 1563 422 1919 422 
Q 2459 422 2753 634 
Q 3047 847 3047 1241 
Q 3047 1584 2836 1778 
Q 2625 1972 2144 2069 
L 1759 2144 
Q 1053 2284 737 2584 
Q 422 2884 422 3419 
Q 422 4038 858 4394 
Q 1294 4750 2059 4750 
Q 2388 4750 2728 4690 
Q 3069 4631 3425 4513 
z
" transform="scale(0.015625)"/>
      <path id="DejaVuSans-44" d="M 1259 4147 
L 1259 519 
L 2022 519 
Q 2988 519 3436 956 
Q 3884 1394 3884 2338 
Q 3884 3275 3436 3711 
Q 2988 4147 2022 4147 
L 1259 4147 
z
M 628 4666 
L 1925 4666 
Q 3281 4666 3915 4102 
Q 4550 3538 4550 2338 
Q 4550 1131 3912 565 
Q 3275 0 1925 0 
L 628 0 
L 628 4666 
z
" transform="scale(0.015625)"/>
     </defs>
     <use xlink:href="#DejaVuSans-4f"/>
     <use xlink:href="#DejaVuSans-62" x="78.710938"/>
     <use xlink:href="#DejaVuSans-73" x="142.1875"/>
     <use xlink:href="#DejaVuSans-31" x="194.287109"/>
     <use xlink:href="#DejaVuSans-20" x="257.910156"/>
     <use xlink:href="#DejaVuSans-50" x="289.697266"/>
     <use xlink:href="#DejaVuSans-53" x="350"/>
     <use xlink:href="#DejaVuSans-44" x="413.476562"/>
    </g>
   </g>
  </g>
 </g>
 <defs>
  <clipPath id="p9116d1b30f">
   <rect x="57.6" y="41.472" width="357.12" height="266.112"/>
  </clipPath>
 </defs>
</svg>
