<?xml version="1.0" encoding="utf-8" standalone="no"?>
<!DOCTYPE svg PUBLIC "-//W3C//DTD SVG 1.1//EN"
  "http://www.w3.org/Graphics/SVG/1.1/DTD/svg11.dtd">
<svg xmlns:xlink="http://www.w3.org/1999/xlink" width="460.8pt" height="345.6pt" viewBox="0 0 460.8 345.6" xmlns="http://www.w3.org/2000/svg" version="1.1">
 <metadata>
  <rdf:RDF xmlns:dc="http://purl.org/dc/elements/1.1/" xmlns:cc="http://creativecommons.org/ns#" xmlns:rdf="http://www.w3.org/1999/02/22-rdf-syntax-ns#">
   <cc:Work>
    <dc:type rdf:resource="http://purl.org/dc/dcmitype/StillImage"/>
    <dc:date>2023-10-30T15:11:03.211100</dc:date>
    <dc:format>image/svg+xml</dc:format>
    <dc:creator>
     <cc:Agent>
      <dc:title>Matplotlib v3.7.0, https://matplotlib.org/</dc:title>
     </cc:Agent>
    </dc:creator>
   </cc:Work>
  </rdf:RDF>
 </metadata>
 <defs>
  <style type="text/css">*{stroke-linejoin: round; stroke-linecap: butt}</style>
 </defs>
 <g id="figure_1">
  <g id="patch_1">
   <path d="M 0 345.6 
L 460.8 345.6 
L 460.8 0 
L 0 0 
z
" style="fill: #ffffff"/>
  </g>
  <g id="axes_1">
   <g id="patch_2">
    <path d="M 57.6 307.584 
L 414.72 307.584 
L 414.72 41.472 
L 57.6 41.472 
z
" style="fill: #ffffff"/>
   </g>
   <g id="matplotlib.axis_1">
    <g id="xtick_1">
     <g id="line2d_1">
      <defs>
       <path id="m141838a464" d="M 0 0 
L 0 3.5 
" style="stroke: #000000; stroke-width: 0.8"/>
      </defs>
      <g>
       <use xlink:href="#m141838a464" x="75.597024" y="307.584" style="stroke: #000000; stroke-width: 0.8"/>
      </g>
     </g>
     <g id="text_1">
      <!-- 1.0 -->
      <g transform="translate(67.645462 322.182437) scale(0.1 -0.1)">
       <defs>
        <path id="DejaVuSans-31" d="M 794 531 
L 1825 531 
L 1825 4091 
L 703 3866 
L 703 4441 
L 1819 4666 
L 2450 4666 
L 2450 531 
L 3481 531 
L 3481 0 
L 794 0 
L 794 531 
z
" transform="scale(0.015625)"/>
        <path id="DejaVuSans-2e" d="M 684 794 
L 1344 794 
L 1344 0 
L 684 0 
L 684 794 
z
" transform="scale(0.015625)"/>
        <path id="DejaVuSans-30" d="M 2034 4250 
Q 1547 4250 1301 3770 
Q 1056 3291 1056 2328 
Q 1056 1369 1301 889 
Q 1547 409 2034 409 
Q 2525 409 2770 889 
Q 3016 1369 3016 2328 
Q 3016 3291 2770 3770 
Q 2525 4250 2034 4250 
z
M 2034 4750 
Q 2819 4750 3233 4129 
Q 3647 3509 3647 2328 
Q 3647 1150 3233 529 
Q 2819 -91 2034 -91 
Q 1250 -91 836 529 
Q 422 1150 422 2328 
Q 422 3509 836 4129 
Q 1250 4750 2034 4750 
z
" transform="scale(0.015625)"/>
       </defs>
       <use xlink:href="#DejaVuSans-31"/>
       <use xlink:href="#DejaVuSans-2e" x="63.623047"/>
       <use xlink:href="#DejaVuSans-30" x="95.410156"/>
      </g>
     </g>
    </g>
    <g id="xtick_2">
     <g id="line2d_2">
      <g>
       <use xlink:href="#m141838a464" x="128.472357" y="307.584" style="stroke: #000000; stroke-width: 0.8"/>
      </g>
     </g>
     <g id="text_2">
      <!-- 1.5 -->
      <g transform="translate(120.520795 322.182437) scale(0.1 -0.1)">
       <defs>
        <path id="DejaVuSans-35" d="M 691 4666 
L 3169 4666 
L 3169 4134 
L 1269 4134 
L 1269 2991 
Q 1406 3038 1543 3061 
Q 1681 3084 1819 3084 
Q 2600 3084 3056 2656 
Q 3513 2228 3513 1497 
Q 3513 744 3044 326 
Q 2575 -91 1722 -91 
Q 1428 -91 1123 -41 
Q 819 9 494 109 
L 494 744 
Q 775 591 1075 516 
Q 1375 441 1709 441 
Q 2250 441 2565 725 
Q 2881 1009 2881 1497 
Q 2881 1984 2565 2268 
Q 2250 2553 1709 2553 
Q 1456 2553 1204 2497 
Q 953 2441 691 2322 
L 691 4666 
z
" transform="scale(0.015625)"/>
       </defs>
       <use xlink:href="#DejaVuSans-31"/>
       <use xlink:href="#DejaVuSans-2e" x="63.623047"/>
       <use xlink:href="#DejaVuSans-35" x="95.410156"/>
      </g>
     </g>
    </g>
    <g id="xtick_3">
     <g id="line2d_3">
      <g>
       <use xlink:href="#m141838a464" x="181.347691" y="307.584" style="stroke: #000000; stroke-width: 0.8"/>
      </g>
     </g>
     <g id="text_3">
      <!-- 2.0 -->
      <g transform="translate(173.396128 322.182437) scale(0.1 -0.1)">
       <defs>
        <path id="DejaVuSans-32" d="M 1228 531 
L 3431 531 
L 3431 0 
L 469 0 
L 469 531 
Q 828 903 1448 1529 
Q 2069 2156 2228 2338 
Q 2531 2678 2651 2914 
Q 2772 3150 2772 3378 
Q 2772 3750 2511 3984 
Q 2250 4219 1831 4219 
Q 1534 4219 1204 4116 
Q 875 4013 500 3803 
L 500 4441 
Q 881 4594 1212 4672 
Q 1544 4750 1819 4750 
Q 2544 4750 2975 4387 
Q 3406 4025 3406 3419 
Q 3406 3131 3298 2873 
Q 3191 2616 2906 2266 
Q 2828 2175 2409 1742 
Q 1991 1309 1228 531 
z
" transform="scale(0.015625)"/>
       </defs>
       <use xlink:href="#DejaVuSans-32"/>
       <use xlink:href="#DejaVuSans-2e" x="63.623047"/>
       <use xlink:href="#DejaVuSans-30" x="95.410156"/>
      </g>
     </g>
    </g>
    <g id="xtick_4">
     <g id="line2d_4">
      <g>
       <use xlink:href="#m141838a464" x="234.223024" y="307.584" style="stroke: #000000; stroke-width: 0.8"/>
      </g>
     </g>
     <g id="text_4">
      <!-- 2.5 -->
      <g transform="translate(226.271461 322.182437) scale(0.1 -0.1)">
       <use xlink:href="#DejaVuSans-32"/>
       <use xlink:href="#DejaVuSans-2e" x="63.623047"/>
       <use xlink:href="#DejaVuSans-35" x="95.410156"/>
      </g>
     </g>
    </g>
    <g id="xtick_5">
     <g id="line2d_5">
      <g>
       <use xlink:href="#m141838a464" x="287.098357" y="307.584" style="stroke: #000000; stroke-width: 0.8"/>
      </g>
     </g>
     <g id="text_5">
      <!-- 3.0 -->
      <g transform="translate(279.146794 322.182437) scale(0.1 -0.1)">
       <defs>
        <path id="DejaVuSans-33" d="M 2597 2516 
Q 3050 2419 3304 2112 
Q 3559 1806 3559 1356 
Q 3559 666 3084 287 
Q 2609 -91 1734 -91 
Q 1441 -91 1130 -33 
Q 819 25 488 141 
L 488 750 
Q 750 597 1062 519 
Q 1375 441 1716 441 
Q 2309 441 2620 675 
Q 2931 909 2931 1356 
Q 2931 1769 2642 2001 
Q 2353 2234 1838 2234 
L 1294 2234 
L 1294 2753 
L 1863 2753 
Q 2328 2753 2575 2939 
Q 2822 3125 2822 3475 
Q 2822 3834 2567 4026 
Q 2313 4219 1838 4219 
Q 1578 4219 1281 4162 
Q 984 4106 628 3988 
L 628 4550 
Q 988 4650 1302 4700 
Q 1616 4750 1894 4750 
Q 2613 4750 3031 4423 
Q 3450 4097 3450 3541 
Q 3450 3153 3228 2886 
Q 3006 2619 2597 2516 
z
" transform="scale(0.015625)"/>
       </defs>
       <use xlink:href="#DejaVuSans-33"/>
       <use xlink:href="#DejaVuSans-2e" x="63.623047"/>
       <use xlink:href="#DejaVuSans-30" x="95.410156"/>
      </g>
     </g>
    </g>
    <g id="xtick_6">
     <g id="line2d_6">
      <g>
       <use xlink:href="#m141838a464" x="339.97369" y="307.584" style="stroke: #000000; stroke-width: 0.8"/>
      </g>
     </g>
     <g id="text_6">
      <!-- 3.5 -->
      <g transform="translate(332.022128 322.182437) scale(0.1 -0.1)">
       <use xlink:href="#DejaVuSans-33"/>
       <use xlink:href="#DejaVuSans-2e" x="63.623047"/>
       <use xlink:href="#DejaVuSans-35" x="95.410156"/>
      </g>
     </g>
    </g>
    <g id="xtick_7">
     <g id="line2d_7">
      <g>
       <use xlink:href="#m141838a464" x="392.849023" y="307.584" style="stroke: #000000; stroke-width: 0.8"/>
      </g>
     </g>
     <g id="text_7">
      <!-- 4.0 -->
      <g transform="translate(384.897461 322.182437) scale(0.1 -0.1)">
       <defs>
        <path id="DejaVuSans-34" d="M 2419 4116 
L 825 1625 
L 2419 1625 
L 2419 4116 
z
M 2253 4666 
L 3047 4666 
L 3047 1625 
L 3713 1625 
L 3713 1100 
L 3047 1100 
L 3047 0 
L 2419 0 
L 2419 1100 
L 313 1100 
L 313 1709 
L 2253 4666 
z
" transform="scale(0.015625)"/>
       </defs>
       <use xlink:href="#DejaVuSans-34"/>
       <use xlink:href="#DejaVuSans-2e" x="63.623047"/>
       <use xlink:href="#DejaVuSans-30" x="95.410156"/>
      </g>
     </g>
    </g>
    <g id="text_8">
     <!-- t (s) -->
     <g transform="translate(226.104531 335.860562) scale(0.1 -0.1)">
      <defs>
       <path id="DejaVuSans-74" d="M 1172 4494 
L 1172 3500 
L 2356 3500 
L 2356 3053 
L 1172 3053 
L 1172 1153 
Q 1172 725 1289 603 
Q 1406 481 1766 481 
L 2356 481 
L 2356 0 
L 1766 0 
Q 1100 0 847 248 
Q 594 497 594 1153 
L 594 3053 
L 172 3053 
L 172 3500 
L 594 3500 
L 594 4494 
L 1172 4494 
z
" transform="scale(0.015625)"/>
       <path id="DejaVuSans-20" transform="scale(0.015625)"/>
       <path id="DejaVuSans-28" d="M 1984 4856 
Q 1566 4138 1362 3434 
Q 1159 2731 1159 2009 
Q 1159 1288 1364 580 
Q 1569 -128 1984 -844 
L 1484 -844 
Q 1016 -109 783 600 
Q 550 1309 550 2009 
Q 550 2706 781 3412 
Q 1013 4119 1484 4856 
L 1984 4856 
z
" transform="scale(0.015625)"/>
       <path id="DejaVuSans-73" d="M 2834 3397 
L 2834 2853 
Q 2591 2978 2328 3040 
Q 2066 3103 1784 3103 
Q 1356 3103 1142 2972 
Q 928 2841 928 2578 
Q 928 2378 1081 2264 
Q 1234 2150 1697 2047 
L 1894 2003 
Q 2506 1872 2764 1633 
Q 3022 1394 3022 966 
Q 3022 478 2636 193 
Q 2250 -91 1575 -91 
Q 1294 -91 989 -36 
Q 684 19 347 128 
L 347 722 
Q 666 556 975 473 
Q 1284 391 1588 391 
Q 1994 391 2212 530 
Q 2431 669 2431 922 
Q 2431 1156 2273 1281 
Q 2116 1406 1581 1522 
L 1381 1569 
Q 847 1681 609 1914 
Q 372 2147 372 2553 
Q 372 3047 722 3315 
Q 1072 3584 1716 3584 
Q 2034 3584 2315 3537 
Q 2597 3491 2834 3397 
z
" transform="scale(0.015625)"/>
       <path id="DejaVuSans-29" d="M 513 4856 
L 1013 4856 
Q 1481 4119 1714 3412 
Q 1947 2706 1947 2009 
Q 1947 1309 1714 600 
Q 1481 -109 1013 -844 
L 513 -844 
Q 928 -128 1133 580 
Q 1338 1288 1338 2009 
Q 1338 2731 1133 3434 
Q 928 4138 513 4856 
z
" transform="scale(0.015625)"/>
      </defs>
      <use xlink:href="#DejaVuSans-74"/>
      <use xlink:href="#DejaVuSans-20" x="39.208984"/>
      <use xlink:href="#DejaVuSans-28" x="70.996094"/>
      <use xlink:href="#DejaVuSans-73" x="110.009766"/>
      <use xlink:href="#DejaVuSans-29" x="162.109375"/>
     </g>
    </g>
   </g>
   <g id="matplotlib.axis_2">
    <g id="ytick_1">
     <g id="line2d_8">
      <defs>
       <path id="mbe8c0c4749" d="M 0 0 
L -3.5 0 
" style="stroke: #000000; stroke-width: 0.8"/>
      </defs>
      <g>
       <use xlink:href="#mbe8c0c4749" x="57.6" y="292.945654" style="stroke: #000000; stroke-width: 0.8"/>
      </g>
     </g>
     <g id="text_9">
      <!-- 4.25 -->
      <g transform="translate(28.334375 296.744872) scale(0.1 -0.1)">
       <use xlink:href="#DejaVuSans-34"/>
       <use xlink:href="#DejaVuSans-2e" x="63.623047"/>
       <use xlink:href="#DejaVuSans-32" x="95.410156"/>
       <use xlink:href="#DejaVuSans-35" x="159.033203"/>
      </g>
     </g>
    </g>
    <g id="ytick_2">
     <g id="line2d_9">
      <g>
       <use xlink:href="#mbe8c0c4749" x="57.6" y="257.336715" style="stroke: #000000; stroke-width: 0.8"/>
      </g>
     </g>
     <g id="text_10">
      <!-- 4.50 -->
      <g transform="translate(28.334375 261.135934) scale(0.1 -0.1)">
       <use xlink:href="#DejaVuSans-34"/>
       <use xlink:href="#DejaVuSans-2e" x="63.623047"/>
       <use xlink:href="#DejaVuSans-35" x="95.410156"/>
       <use xlink:href="#DejaVuSans-30" x="159.033203"/>
      </g>
     </g>
    </g>
    <g id="ytick_3">
     <g id="line2d_10">
      <g>
       <use xlink:href="#mbe8c0c4749" x="57.6" y="221.727777" style="stroke: #000000; stroke-width: 0.8"/>
      </g>
     </g>
     <g id="text_11">
      <!-- 4.75 -->
      <g transform="translate(28.334375 225.526996) scale(0.1 -0.1)">
       <defs>
        <path id="DejaVuSans-37" d="M 525 4666 
L 3525 4666 
L 3525 4397 
L 1831 0 
L 1172 0 
L 2766 4134 
L 525 4134 
L 525 4666 
z
" transform="scale(0.015625)"/>
       </defs>
       <use xlink:href="#DejaVuSans-34"/>
       <use xlink:href="#DejaVuSans-2e" x="63.623047"/>
       <use xlink:href="#DejaVuSans-37" x="95.410156"/>
       <use xlink:href="#DejaVuSans-35" x="159.033203"/>
      </g>
     </g>
    </g>
    <g id="ytick_4">
     <g id="line2d_11">
      <g>
       <use xlink:href="#mbe8c0c4749" x="57.6" y="186.118839" style="stroke: #000000; stroke-width: 0.8"/>
      </g>
     </g>
     <g id="text_12">
      <!-- 5.00 -->
      <g transform="translate(28.334375 189.918058) scale(0.1 -0.1)">
       <use xlink:href="#DejaVuSans-35"/>
       <use xlink:href="#DejaVuSans-2e" x="63.623047"/>
       <use xlink:href="#DejaVuSans-30" x="95.410156"/>
       <use xlink:href="#DejaVuSans-30" x="159.033203"/>
      </g>
     </g>
    </g>
    <g id="ytick_5">
     <g id="line2d_12">
      <g>
       <use xlink:href="#mbe8c0c4749" x="57.6" y="150.509901" style="stroke: #000000; stroke-width: 0.8"/>
      </g>
     </g>
     <g id="text_13">
      <!-- 5.25 -->
      <g transform="translate(28.334375 154.30912) scale(0.1 -0.1)">
       <use xlink:href="#DejaVuSans-35"/>
       <use xlink:href="#DejaVuSans-2e" x="63.623047"/>
       <use xlink:href="#DejaVuSans-32" x="95.410156"/>
       <use xlink:href="#DejaVuSans-35" x="159.033203"/>
      </g>
     </g>
    </g>
    <g id="ytick_6">
     <g id="line2d_13">
      <g>
       <use xlink:href="#mbe8c0c4749" x="57.6" y="114.900963" style="stroke: #000000; stroke-width: 0.8"/>
      </g>
     </g>
     <g id="text_14">
      <!-- 5.50 -->
      <g transform="translate(28.334375 118.700182) scale(0.1 -0.1)">
       <use xlink:href="#DejaVuSans-35"/>
       <use xlink:href="#DejaVuSans-2e" x="63.623047"/>
       <use xlink:href="#DejaVuSans-35" x="95.410156"/>
       <use xlink:href="#DejaVuSans-30" x="159.033203"/>
      </g>
     </g>
    </g>
    <g id="ytick_7">
     <g id="line2d_14">
      <g>
       <use xlink:href="#mbe8c0c4749" x="57.6" y="79.292025" style="stroke: #000000; stroke-width: 0.8"/>
      </g>
     </g>
     <g id="text_15">
      <!-- 5.75 -->
      <g transform="translate(28.334375 83.091244) scale(0.1 -0.1)">
       <use xlink:href="#DejaVuSans-35"/>
       <use xlink:href="#DejaVuSans-2e" x="63.623047"/>
       <use xlink:href="#DejaVuSans-37" x="95.410156"/>
       <use xlink:href="#DejaVuSans-35" x="159.033203"/>
      </g>
     </g>
    </g>
    <g id="ytick_8">
     <g id="line2d_15">
      <g>
       <use xlink:href="#mbe8c0c4749" x="57.6" y="43.683087" style="stroke: #000000; stroke-width: 0.8"/>
      </g>
     </g>
     <g id="text_16">
      <!-- 6.00 -->
      <g transform="translate(28.334375 47.482306) scale(0.1 -0.1)">
       <defs>
        <path id="DejaVuSans-36" d="M 2113 2584 
Q 1688 2584 1439 2293 
Q 1191 2003 1191 1497 
Q 1191 994 1439 701 
Q 1688 409 2113 409 
Q 2538 409 2786 701 
Q 3034 994 3034 1497 
Q 3034 2003 2786 2293 
Q 2538 2584 2113 2584 
z
M 3366 4563 
L 3366 3988 
Q 3128 4100 2886 4159 
Q 2644 4219 2406 4219 
Q 1781 4219 1451 3797 
Q 1122 3375 1075 2522 
Q 1259 2794 1537 2939 
Q 1816 3084 2150 3084 
Q 2853 3084 3261 2657 
Q 3669 2231 3669 1497 
Q 3669 778 3244 343 
Q 2819 -91 2113 -91 
Q 1303 -91 875 529 
Q 447 1150 447 2328 
Q 447 3434 972 4092 
Q 1497 4750 2381 4750 
Q 2619 4750 2861 4703 
Q 3103 4656 3366 4563 
z
" transform="scale(0.015625)"/>
       </defs>
       <use xlink:href="#DejaVuSans-36"/>
       <use xlink:href="#DejaVuSans-2e" x="63.623047"/>
       <use xlink:href="#DejaVuSans-30" x="95.410156"/>
       <use xlink:href="#DejaVuSans-30" x="159.033203"/>
      </g>
     </g>
    </g>
    <g id="text_17">
     <!-- p (Pa) -->
     <g transform="translate(22.254687 189.04675) rotate(-90) scale(0.1 -0.1)">
      <defs>
       <path id="DejaVuSans-70" d="M 1159 525 
L 1159 -1331 
L 581 -1331 
L 581 3500 
L 1159 3500 
L 1159 2969 
Q 1341 3281 1617 3432 
Q 1894 3584 2278 3584 
Q 2916 3584 3314 3078 
Q 3713 2572 3713 1747 
Q 3713 922 3314 415 
Q 2916 -91 2278 -91 
Q 1894 -91 1617 61 
Q 1341 213 1159 525 
z
M 3116 1747 
Q 3116 2381 2855 2742 
Q 2594 3103 2138 3103 
Q 1681 3103 1420 2742 
Q 1159 2381 1159 1747 
Q 1159 1113 1420 752 
Q 1681 391 2138 391 
Q 2594 391 2855 752 
Q 3116 1113 3116 1747 
z
" transform="scale(0.015625)"/>
       <path id="DejaVuSans-50" d="M 1259 4147 
L 1259 2394 
L 2053 2394 
Q 2494 2394 2734 2622 
Q 2975 2850 2975 3272 
Q 2975 3691 2734 3919 
Q 2494 4147 2053 4147 
L 1259 4147 
z
M 628 4666 
L 2053 4666 
Q 2838 4666 3239 4311 
Q 3641 3956 3641 3272 
Q 3641 2581 3239 2228 
Q 2838 1875 2053 1875 
L 1259 1875 
L 1259 0 
L 628 0 
L 628 4666 
z
" transform="scale(0.015625)"/>
       <path id="DejaVuSans-61" d="M 2194 1759 
Q 1497 1759 1228 1600 
Q 959 1441 959 1056 
Q 959 750 1161 570 
Q 1363 391 1709 391 
Q 2188 391 2477 730 
Q 2766 1069 2766 1631 
L 2766 1759 
L 2194 1759 
z
M 3341 1997 
L 3341 0 
L 2766 0 
L 2766 531 
Q 2569 213 2275 61 
Q 1981 -91 1556 -91 
Q 1019 -91 701 211 
Q 384 513 384 1019 
Q 384 1609 779 1909 
Q 1175 2209 1959 2209 
L 2766 2209 
L 2766 2266 
Q 2766 2663 2505 2880 
Q 2244 3097 1772 3097 
Q 1472 3097 1187 3025 
Q 903 2953 641 2809 
L 641 3341 
Q 956 3463 1253 3523 
Q 1550 3584 1831 3584 
Q 2591 3584 2966 3190 
Q 3341 2797 3341 1997 
z
" transform="scale(0.015625)"/>
      </defs>
      <use xlink:href="#DejaVuSans-70"/>
      <use xlink:href="#DejaVuSans-20" x="63.476562"/>
      <use xlink:href="#DejaVuSans-28" x="95.263672"/>
      <use xlink:href="#DejaVuSans-50" x="134.277344"/>
      <use xlink:href="#DejaVuSans-61" x="190.080078"/>
      <use xlink:href="#DejaVuSans-29" x="251.359375"/>
     </g>
    </g>
    <g id="text_18">
     <!-- +1.0132e5 -->
     <g transform="translate(57.6 38.472) scale(0.1 -0.1)">
      <defs>
       <path id="DejaVuSans-2b" d="M 2944 4013 
L 2944 2272 
L 4684 2272 
L 4684 1741 
L 2944 1741 
L 2944 0 
L 2419 0 
L 2419 1741 
L 678 1741 
L 678 2272 
L 2419 2272 
L 2419 4013 
L 2944 4013 
z
" transform="scale(0.015625)"/>
       <path id="DejaVuSans-65" d="M 3597 1894 
L 3597 1613 
L 953 1613 
Q 991 1019 1311 708 
Q 1631 397 2203 397 
Q 2534 397 2845 478 
Q 3156 559 3463 722 
L 3463 178 
Q 3153 47 2828 -22 
Q 2503 -91 2169 -91 
Q 1331 -91 842 396 
Q 353 884 353 1716 
Q 353 2575 817 3079 
Q 1281 3584 2069 3584 
Q 2775 3584 3186 3129 
Q 3597 2675 3597 1894 
z
M 3022 2063 
Q 3016 2534 2758 2815 
Q 2500 3097 2075 3097 
Q 1594 3097 1305 2825 
Q 1016 2553 972 2059 
L 3022 2063 
z
" transform="scale(0.015625)"/>
      </defs>
      <use xlink:href="#DejaVuSans-2b"/>
      <use xlink:href="#DejaVuSans-31" x="83.789062"/>
      <use xlink:href="#DejaVuSans-2e" x="147.412109"/>
      <use xlink:href="#DejaVuSans-30" x="179.199219"/>
      <use xlink:href="#DejaVuSans-31" x="242.822266"/>
      <use xlink:href="#DejaVuSans-33" x="306.445312"/>
      <use xlink:href="#DejaVuSans-32" x="370.068359"/>
      <use xlink:href="#DejaVuSans-65" x="433.691406"/>
      <use xlink:href="#DejaVuSans-35" x="495.214844"/>
     </g>
    </g>
   </g>
   <g id="line2d_16">
    <path d="M 73.832727 224.157146 
L 74.25573 216.91478 
L 74.467231 218.295694 
L 74.678733 223.703327 
L 75.101735 240.469641 
L 75.313237 239.737954 
L 75.524738 235.256609 
L 75.947741 232.900142 
L 76.159242 227.877934 
L 77.005247 182.490597 
L 77.216749 179.101756 
L 77.42825 172.650025 
L 77.639751 158.613538 
L 78.274255 94.543224 
L 78.485757 90.83232 
L 78.697258 91.962452 
L 79.120261 101.388422 
L 79.331762 101.744584 
L 79.754765 89.788985 
L 79.966266 90.054634 
L 80.60077 106.647317 
L 81.023773 113.560974 
L 81.235274 123.894374 
L 81.658277 162.322268 
L 82.081279 199.326019 
L 82.504282 213.154663 
L 82.927285 216.348554 
L 83.138786 225.113373 
L 83.561789 252.080687 
L 83.77329 257.043569 
L 83.984791 257.874829 
L 84.407794 260.536893 
L 85.042298 240.253685 
L 85.888303 200.042064 
L 86.311306 166.510992 
L 86.94581 115.705655 
L 87.580314 90.153356 
L 88.003317 69.314149 
L 88.214818 67.783167 
L 88.426319 70.208921 
L 89.272325 99.029307 
L 89.483826 102.443885 
L 89.695327 108.71178 
L 91.175837 202.451181 
L 91.598839 236.42288 
L 91.810341 246.526845 
L 92.021842 249.363622 
L 92.233343 248.954196 
L 92.444845 250.945346 
L 92.656346 258.125057 
L 93.079349 278.614411 
L 93.29085 279.038835 
L 93.713853 263.558559 
L 94.136855 243.404743 
L 95.405863 150.632553 
L 96.040367 91.499146 
L 96.251869 79.963486 
L 96.46337 75.723027 
L 96.674871 74.364808 
L 97.520877 61.360244 
L 97.732378 67.02944 
L 99.001386 134.732396 
L 99.63589 192.099935 
L 100.481895 235.352588 
L 100.904898 262.586785 
L 102.173906 285.467972 
L 102.385407 281.937154 
L 103.019911 252.236626 
L 103.442914 220.710236 
L 104.077418 162.876142 
L 104.50042 134.948088 
L 105.134924 81.865081 
L 105.557927 70.026147 
L 106.192431 62.57034 
L 106.403932 61.693191 
L 106.615434 65.876493 
L 107.884442 142.244249 
L 108.730447 212.580752 
L 109.15345 227.505061 
L 109.787954 269.662825 
L 110.210956 276.746473 
L 111.056962 289.382921 
L 111.268463 285.076595 
L 111.902967 255.066118 
L 112.32597 220.04892 
L 112.960474 155.774792 
L 113.383476 127.46735 
L 114.01798 75.965201 
L 114.229482 68.03143 
L 114.652484 62.809743 
L 115.286988 57.867344 
L 115.49849 63.168136 
L 116.978999 163.144862 
L 117.402002 200.545924 
L 118.248007 244.075473 
L 118.67101 270.47342 
L 119.728516 287.180385 
L 119.940018 287.625678 
L 120.151519 281.682083 
L 120.786023 251.357437 
L 121.209026 212.954302 
L 121.632028 165.040675 
L 123.112538 63.680711 
L 123.324039 61.345368 
L 124.170044 57.611022 
L 124.381546 64.597628 
L 125.862055 168.494828 
L 126.285058 204.561423 
L 126.919562 231.748161 
L 127.342564 265.108997 
L 127.554066 272.671965 
L 127.977068 277.982534 
L 128.611572 289.174911 
L 128.823074 288.058228 
L 129.457578 261.185979 
L 129.88058 230.64586 
L 130.726586 145.33917 
L 131.149588 118.743136 
L 131.784092 67.833985 
L 131.995594 61.425352 
L 132.207095 59.794061 
L 132.630098 59.461813 
L 132.841599 57.78627 
L 133.0531 57.897016 
L 133.264602 66.342782 
L 135.379615 215.466577 
L 135.591116 221.759727 
L 136.437122 273.691589 
L 136.648623 275.148929 
L 137.071626 280.93183 
L 137.494628 288.989282 
L 137.70613 286.297201 
L 138.552135 243.146254 
L 138.975138 200.908892 
L 139.39814 155.421429 
L 140.244146 93.776167 
L 140.667148 65.668557 
L 140.87865 60.685099 
L 141.090151 59.035264 
L 141.513154 57.583442 
L 141.724655 56.228207 
L 141.936156 58.099849 
L 142.359159 84.795582 
L 142.782162 110.935941 
L 142.993663 120.888178 
L 143.628167 176.137045 
L 144.05117 210.042043 
L 144.474172 224.597501 
L 145.108676 269.828458 
L 145.320178 274.556604 
L 145.74318 278.91992 
L 146.377684 288.941261 
L 146.589186 284.761522 
L 147.435191 238.558835 
L 149.127202 88.441807 
L 149.550204 64.332464 
L 149.761706 61.357155 
L 150.184708 59.06285 
L 150.607711 55.55524 
L 150.819212 60.483497 
L 152.299722 162.986737 
L 152.722724 201.295382 
L 153.56873 245.967822 
L 153.991732 272.188836 
L 154.837738 285.808009 
L 155.049239 289.168589 
L 155.26074 289.818174 
L 155.472242 283.534671 
L 156.106746 251.76917 
L 156.529748 213.544382 
L 156.952751 165.47533 
L 158.43326 63.695006 
L 158.644762 61.719191 
L 159.067764 60.478998 
L 159.279266 58.36207 
L 159.490767 57.374388 
L 159.702268 64.296626 
L 161.182778 170.09098 
L 161.60578 206.179558 
L 162.240284 233.304641 
L 162.663287 267.454045 
L 162.874788 274.575131 
L 163.08629 276.355418 
L 163.509292 282.795327 
L 163.932295 290.806321 
L 164.143796 289.532332 
L 164.7783 261.587143 
L 165.201303 231.009906 
L 166.047308 146.280243 
L 166.470311 119.024666 
L 167.104815 68.521926 
L 167.316316 62.242063 
L 167.527818 60.827065 
L 167.95082 60.756338 
L 168.162322 58.885491 
L 168.373823 58.929026 
L 168.585324 67.663374 
L 169.43133 120.213596 
L 169.854332 153.943314 
L 170.488836 209.581569 
L 170.911839 223.661685 
L 171.757844 275.672153 
L 171.969346 277.055955 
L 172.392348 282.798774 
L 172.815351 291.077396 
L 173.026852 288.235203 
L 173.872858 244.314701 
L 174.29586 201.560312 
L 174.718863 156.612122 
L 175.353367 112.871197 
L 175.77637 77.322047 
L 175.987871 66.969335 
L 176.199372 62.339418 
L 176.622375 59.927185 
L 177.045378 57.395193 
L 177.256879 59.778393 
L 177.679882 87.199815 
L 178.102884 112.964937 
L 178.314386 123.121372 
L 178.94889 178.479999 
L 179.371892 211.685522 
L 179.794895 226.526162 
L 180.429399 271.116889 
L 180.6409 275.446222 
L 181.063903 280.135743 
L 181.698407 290.055674 
L 181.909908 285.386024 
L 182.755914 238.831114 
L 184.447924 88.154063 
L 184.870927 64.349554 
L 185.082428 61.562078 
L 185.505431 59.386049 
L 185.928434 55.549006 
L 186.139935 60.680202 
L 187.620444 163.682318 
L 188.043447 201.484949 
L 188.889452 246.003256 
L 189.312455 271.627003 
L 189.946959 280.86503 
L 190.369962 288.434815 
L 190.581463 288.819109 
L 190.792964 282.181639 
L 191.427468 250.362753 
L 191.850471 211.521937 
L 192.273473 163.639848 
L 193.753983 62.116313 
L 193.965484 60.255777 
L 194.388487 59.167503 
L 194.599988 57.041171 
L 194.811489 56.137841 
L 195.022991 63.294392 
L 196.5035 169.191624 
L 196.926503 205.128513 
L 197.561007 232.331277 
L 197.984009 266.433443 
L 198.195511 273.251374 
L 198.407012 274.908766 
L 198.830015 281.350919 
L 199.253017 289.541959 
L 199.464519 288.017028 
L 200.099023 259.726133 
L 200.522025 229.039939 
L 201.368031 144.590175 
L 201.791033 116.978488 
L 202.425537 67.248183 
L 202.637039 61.099586 
L 202.84854 59.575538 
L 203.271543 59.449709 
L 203.483044 57.699807 
L 203.694545 58.005662 
L 203.906047 67.080863 
L 204.540551 109.762552 
L 204.752052 119.552994 
L 205.175055 153.602146 
L 205.809559 208.983258 
L 206.232561 223.147174 
L 207.078567 275.00106 
L 207.290068 276.443327 
L 207.713071 282.259959 
L 208.136073 290.314507 
L 208.347575 287.326802 
L 209.19358 243.116144 
L 209.616583 200.094594 
L 210.039585 155.818397 
L 210.674089 111.554483 
L 211.097092 76.360209 
L 211.308593 66.528455 
L 211.520095 62.242603 
L 212.3661 56.75418 
L 212.577601 59.664756 
L 213.000604 87.765793 
L 213.423607 113.104465 
L 213.635108 123.461038 
L 214.269612 179.183971 
L 214.692615 211.879938 
L 215.115617 227.212659 
L 215.750121 271.404569 
L 216.173124 277.728192 
L 216.596127 284.458835 
L 216.807628 288.501182 
L 217.019129 290.3365 
L 217.230631 285.264549 
L 218.076636 238.298496 
L 219.557145 107.030922 
L 219.980148 72.573737 
L 220.191649 64.663089 
L 220.403151 62.14902 
L 220.826153 60.099516 
L 221.249156 56.306573 
L 221.460657 61.961816 
L 222.941167 166.183135 
L 223.364169 203.678923 
L 223.998673 231.488924 
L 224.421676 265.196587 
L 224.633177 273.703068 
L 225.05618 279.493921 
L 225.690684 290.926341 
L 225.902185 290.908909 
L 226.325188 273.782535 
L 226.748191 252.245149 
L 227.171193 212.700358 
L 227.594196 165.043923 
L 229.074705 64.89702 
L 229.286207 63.26647 
L 229.709209 62.863821 
L 229.920711 61.002717 
L 230.132212 60.476214 
L 230.343713 68.190297 
L 231.824223 175.156665 
L 232.247225 211.006631 
L 232.881729 238.49357 
L 233.304732 272.734534 
L 233.516233 279.168762 
L 233.727735 280.620302 
L 234.150737 286.887907 
L 234.57374 295.488 
L 234.785241 293.596293 
L 235.631247 251.743231 
L 236.054249 209.915911 
L 236.477252 163.298032 
L 237.323257 102.640993 
L 237.74626 72.659868 
L 237.957761 66.845908 
L 238.169263 65.235612 
L 238.380764 64.993658 
L 238.592265 64.927274 
L 238.803767 63.395842 
L 239.015268 64.178617 
L 239.226769 73.9317 
L 239.861273 116.391923 
L 240.072775 126.211875 
L 240.495777 160.693243 
L 241.130281 215.554412 
L 241.553284 229.54083 
L 242.399289 280.400516 
L 242.610791 281.929893 
L 243.033793 287.561672 
L 243.456796 295.080165 
L 243.668297 291.655268 
L 244.514303 246.157264 
L 244.937305 202.534499 
L 245.360308 158.810862 
L 245.994812 113.897597 
L 246.417815 78.89721 
L 246.629316 69.503139 
L 246.840817 65.603582 
L 247.686823 59.464305 
L 247.898324 62.974714 
L 249.167332 143.519609 
L 250.013337 214.374844 
L 250.43634 229.95868 
L 251.070844 273.599837 
L 251.493847 279.624181 
L 251.916849 286.293523 
L 252.128351 290.070146 
L 252.339852 291.524569 
L 252.551353 285.988478 
L 253.397359 238.447075 
L 254.666367 125.8193 
L 255.300871 72.655265 
L 255.512372 64.896345 
L 255.723873 62.491846 
L 256.146876 60.626969 
L 256.569879 56.869121 
L 256.78138 62.778673 
L 258.261889 166.852657 
L 258.684892 203.912076 
L 259.319396 231.104431 
L 259.742399 264.693714 
L 259.9539 272.950244 
L 260.376903 278.465454 
L 261.011407 289.556292 
L 261.222908 289.186622 
L 261.645911 271.67997 
L 262.068913 250.242469 
L 262.491916 210.244291 
L 262.914919 162.295135 
L 264.395428 62.095544 
L 264.606929 60.404851 
L 265.029932 59.899714 
L 265.241433 57.885491 
L 265.452935 57.327765 
L 265.664436 65.053411 
L 267.144945 171.029011 
L 267.567948 206.639896 
L 268.202452 233.705272 
L 268.625455 267.61005 
L 268.836956 273.939463 
L 269.048457 275.327763 
L 269.47146 281.328647 
L 269.894463 289.694438 
L 270.105964 287.704656 
L 270.951969 245.715737 
L 271.374972 203.765556 
L 271.797975 157.404542 
L 272.64398 96.34357 
L 273.066983 66.592739 
L 273.278484 60.972193 
L 273.489985 59.32569 
L 273.912988 58.606039 
L 274.124489 56.981592 
L 274.335991 57.901984 
L 274.547492 67.834675 
L 275.181996 110.059649 
L 275.393497 119.789813 
L 275.8165 154.252381 
L 276.451004 208.997849 
L 276.874007 223.21295 
L 277.720012 274.135297 
L 277.931513 275.66956 
L 278.354516 281.400598 
L 278.777519 289.07737 
L 278.98902 285.722357 
L 279.835025 240.434009 
L 280.258028 196.941106 
L 280.681031 153.764268 
L 281.315534 108.750893 
L 281.738537 73.879569 
L 281.950038 64.700105 
L 282.16154 61.040896 
L 283.007545 54.964168 
L 283.219046 58.58217 
L 284.488054 139.623977 
L 285.33406 210.364895 
L 285.757062 226.423938 
L 286.391566 270.018672 
L 287.449073 286.969841 
L 287.660574 288.386323 
L 287.872076 282.820391 
L 288.718081 235.412871 
L 289.775588 137.773408 
L 290.19859 104.327104 
L 290.621593 69.944076 
L 290.833094 62.339773 
L 291.044596 60.025154 
L 291.467598 58.195501 
L 291.890601 54.403631 
L 292.102102 60.375779 
L 293.582612 164.910296 
L 294.005614 201.692944 
L 294.640118 229.054089 
L 295.063121 262.80221 
L 295.274622 270.853236 
L 295.697625 276.303679 
L 296.332129 287.551202 
L 296.54363 287.21264 
L 296.966633 269.686963 
L 297.389636 248.028739 
L 297.812638 207.872431 
L 298.235641 160.165222 
L 299.71615 60.085539 
L 299.927652 58.424414 
L 300.350654 57.876097 
L 300.562156 55.882038 
L 300.773657 55.388388 
L 300.985158 63.233991 
L 302.465668 169.236543 
L 302.88867 204.881614 
L 303.523174 231.943595 
L 303.946177 265.887569 
L 304.157678 272.179571 
L 304.36918 273.542646 
L 304.792182 279.571622 
L 305.215185 287.96798 
L 305.426686 285.980676 
L 306.272692 243.925513 
L 306.695694 202.03452 
L 307.118697 155.540767 
L 307.964702 94.701845 
L 308.387705 64.928901 
L 308.599206 59.294557 
L 308.810708 57.710334 
L 309.23371 57.134587 
L 309.445212 55.523682 
L 309.656713 56.423942 
L 309.868214 66.313945 
L 310.502718 108.614067 
L 310.71422 118.402886 
L 311.137222 152.827451 
L 311.771726 207.731193 
L 312.194729 221.876922 
L 313.040734 272.737999 
L 313.463737 276.707056 
L 314.098241 287.659733 
L 314.309742 284.260138 
L 315.155748 239.152244 
L 315.57875 195.568222 
L 316.001753 152.413444 
L 316.636257 107.476672 
L 317.05926 72.68118 
L 317.270761 63.473175 
L 317.482262 59.751388 
L 318.328268 53.807396 
L 318.539769 57.454829 
L 319.808777 138.54073 
L 320.654782 209.210744 
L 321.077785 225.269875 
L 321.712289 268.953808 
L 322.769796 285.888689 
L 322.981297 287.27981 
L 323.192798 281.693554 
L 324.038804 234.408779 
L 325.09631 136.762095 
L 325.519313 103.397134 
L 325.942316 69.035167 
L 326.153817 61.452492 
L 326.365318 59.113515 
L 326.788321 57.291006 
L 327.211324 53.568 
L 327.422825 59.557048 
L 328.903334 164.059671 
L 329.326337 200.856323 
L 329.960841 228.280978 
L 330.383844 262.067946 
L 330.595345 270.05 
L 331.018348 275.425697 
L 331.652852 286.727432 
L 331.864353 286.455809 
L 332.287356 268.982317 
L 332.710358 247.336111 
L 333.133361 207.240561 
L 333.556364 159.507665 
L 335.036873 59.476943 
L 335.248374 57.880634 
L 335.671377 57.387966 
L 335.882878 55.384827 
L 336.09438 54.832667 
L 336.305881 62.580064 
L 337.78639 168.555127 
L 338.209393 204.208586 
L 338.843897 231.340264 
L 339.2669 265.177099 
L 339.478401 271.399098 
L 339.689902 272.75718 
L 340.112905 278.955867 
L 340.535908 287.420852 
L 340.747409 285.469873 
L 341.593414 243.49818 
L 342.016417 201.730722 
L 342.43942 155.155965 
L 343.285425 94.439247 
L 343.708428 64.659101 
L 343.919929 58.95506 
L 344.13143 57.305754 
L 344.554433 56.776291 
L 344.765934 55.159994 
L 344.977436 55.938139 
L 345.188937 65.676745 
L 345.823441 108.098258 
L 346.034942 117.879277 
L 346.457945 152.226127 
L 347.092449 207.103709 
L 347.515452 221.253766 
L 348.361457 272.178786 
L 348.78446 276.316394 
L 349.418964 287.375738 
L 349.630465 284.11013 
L 350.47647 239.332085 
L 350.899473 196.012237 
L 351.322476 152.609237 
L 351.95698 108.035557 
L 352.379982 73.215519 
L 352.591484 63.916456 
L 352.802985 60.121011 
L 353.64899 54.346578 
L 353.860492 57.732316 
L 355.1295 138.698566 
L 355.975505 209.856365 
L 356.398508 225.73614 
L 357.033012 269.757043 
L 357.456014 276.078255 
L 357.879017 283.087381 
L 358.090518 287.019396 
L 358.30202 288.647333 
L 358.513521 283.348535 
L 359.359526 236.475024 
L 360.628534 124.521883 
L 361.263038 71.60508 
L 361.47454 63.857116 
L 361.686041 61.426312 
L 362.109044 59.548122 
L 362.532046 55.878684 
L 362.743548 61.683787 
L 364.224057 166.007025 
L 364.64706 203.223365 
L 365.281564 230.826926 
L 365.704566 264.518188 
L 365.916068 272.838113 
L 366.33907 278.496224 
L 366.973574 289.868382 
L 367.185076 289.813361 
L 367.608078 272.54287 
L 368.031081 250.891007 
L 368.454084 211.258702 
L 368.877086 163.562709 
L 370.357595 62.945864 
L 370.569097 61.264764 
L 370.992099 60.554258 
L 371.203601 58.49109 
L 371.415102 57.798419 
L 371.626603 65.385486 
L 373.107113 171.227657 
L 373.530115 206.919882 
L 374.164619 233.959565 
L 374.587622 267.928521 
L 374.799123 274.371855 
L 375.010625 275.792212 
L 375.433627 281.928954 
L 375.85663 290.179544 
L 376.068131 288.289761 
L 376.914137 246.508487 
L 377.337139 204.790314 
L 377.760142 157.915769 
L 378.606147 97.072496 
L 379.02915 66.755397 
L 379.240651 60.903352 
L 379.452153 59.283744 
L 379.875155 58.800369 
L 380.086657 57.099459 
L 380.298158 57.717565 
L 380.509659 67.257923 
L 381.144163 109.684984 
L 381.355665 119.345969 
L 381.778667 153.479773 
L 382.413171 208.562073 
L 382.836174 222.578664 
L 383.682179 273.622889 
L 383.893681 275.145441 
L 384.316683 280.841679 
L 384.739686 288.620937 
L 384.951187 285.372389 
L 385.797193 240.534152 
L 386.220195 197.269002 
L 386.643198 153.547412 
L 387.277702 108.876936 
L 387.700705 74.01389 
L 387.912206 64.582586 
L 388.123707 60.609733 
L 388.969713 54.684798 
L 389.181214 57.99286 
L 390.450222 138.584101 
L 391.296227 209.827146 
L 391.71923 225.554649 
L 392.353734 269.458908 
L 392.776737 275.701153 
L 393.199739 282.609437 
L 393.411241 286.563804 
L 393.622742 288.244866 
L 393.834243 282.954601 
L 394.680249 236.000519 
L 395.949257 123.70174 
L 396.583761 70.752126 
L 396.795262 62.957557 
L 397.006763 60.511561 
L 397.429766 58.50756 
L 397.852769 54.668014 
L 398.06427 60.384739 
L 398.275771 80.727855 
L 398.487273 55.456265 
L 398.487273 55.456265 
" clip-path="url(#p29fbe3c2da)" style="fill: none; stroke: #1f77b4; stroke-width: 1.5; stroke-linecap: square"/>
   </g>
   <g id="patch_3">
    <path d="M 57.6 307.584 
L 57.6 41.472 
" style="fill: none; stroke: #000000; stroke-width: 0.8; stroke-linejoin: miter; stroke-linecap: square"/>
   </g>
   <g id="patch_4">
    <path d="M 414.72 307.584 
L 414.72 41.472 
" style="fill: none; stroke: #000000; stroke-width: 0.8; stroke-linejoin: miter; stroke-linecap: square"/>
   </g>
   <g id="patch_5">
    <path d="M 57.6 307.584 
L 414.72 307.584 
" style="fill: none; stroke: #000000; stroke-width: 0.8; stroke-linejoin: miter; stroke-linecap: square"/>
   </g>
   <g id="patch_6">
    <path d="M 57.6 41.472 
L 414.72 41.472 
" style="fill: none; stroke: #000000; stroke-width: 0.8; stroke-linejoin: miter; stroke-linecap: square"/>
   </g>
   <g id="text_19">
    <!-- Obs1 p(t) -->
    <g transform="translate(207.934687 35.472) scale(0.12 -0.12)">
     <defs>
      <path id="DejaVuSans-4f" d="M 2522 4238 
Q 1834 4238 1429 3725 
Q 1025 3213 1025 2328 
Q 1025 1447 1429 934 
Q 1834 422 2522 422 
Q 3209 422 3611 934 
Q 4013 1447 4013 2328 
Q 4013 3213 3611 3725 
Q 3209 4238 2522 4238 
z
M 2522 4750 
Q 3503 4750 4090 4092 
Q 4678 3434 4678 2328 
Q 4678 1225 4090 567 
Q 3503 -91 2522 -91 
Q 1538 -91 948 565 
Q 359 1222 359 2328 
Q 359 3434 948 4092 
Q 1538 4750 2522 4750 
z
" transform="scale(0.015625)"/>
      <path id="DejaVuSans-62" d="M 3116 1747 
Q 3116 2381 2855 2742 
Q 2594 3103 2138 3103 
Q 1681 3103 1420 2742 
Q 1159 2381 1159 1747 
Q 1159 1113 1420 752 
Q 1681 391 2138 391 
Q 2594 391 2855 752 
Q 3116 1113 3116 1747 
z
M 1159 2969 
Q 1341 3281 1617 3432 
Q 1894 3584 2278 3584 
Q 2916 3584 3314 3078 
Q 3713 2572 3713 1747 
Q 3713 922 3314 415 
Q 2916 -91 2278 -91 
Q 1894 -91 1617 61 
Q 1341 213 1159 525 
L 1159 0 
L 581 0 
L 581 4863 
L 1159 4863 
L 1159 2969 
z
" transform="scale(0.015625)"/>
     </defs>
     <use xlink:href="#DejaVuSans-4f"/>
     <use xlink:href="#DejaVuSans-62" x="78.710938"/>
     <use xlink:href="#DejaVuSans-73" x="142.1875"/>
     <use xlink:href="#DejaVuSans-31" x="194.287109"/>
     <use xlink:href="#DejaVuSans-20" x="257.910156"/>
     <use xlink:href="#DejaVuSans-70" x="289.697266"/>
     <use xlink:href="#DejaVuSans-28" x="353.173828"/>
     <use xlink:href="#DejaVuSans-74" x="392.1875"/>
     <use xlink:href="#DejaVuSans-29" x="431.396484"/>
    </g>
   </g>
  </g>
 </g>
 <defs>
  <clipPath id="p29fbe3c2da">
   <rect x="57.6" y="41.472" width="357.12" height="266.112"/>
  </clipPath>
 </defs>
</svg>
